<?xml version="1.0" encoding="UTF-8" standalone="no"?>
<!-- Created with Inkscape (http://www.inkscape.org/) -->

<svg
   xmlns:dc="http://purl.org/dc/elements/1.1/"
   xmlns:cc="http://creativecommons.org/ns#"
   xmlns:rdf="http://www.w3.org/1999/02/22-rdf-syntax-ns#"
   xmlns:svg="http://www.w3.org/2000/svg"
   xmlns="http://www.w3.org/2000/svg"
   xmlns:sodipodi="http://sodipodi.sourceforge.net/DTD/sodipodi-0.dtd"
   xmlns:inkscape="http://www.inkscape.org/namespaces/inkscape"
   id="svg2"
   version="1.1"
   inkscape:version="0.47pre4 r22446"
   width="984.00002"
   height="594.00001"
   xml:space="preserve"
   sodipodi:docname="diagram.pdf"><metadata
     id="metadata8"><rdf:RDF><cc:Work
         rdf:about=""><dc:format>image/svg+xml</dc:format><dc:type
           rdf:resource="http://purl.org/dc/dcmitype/StillImage" /><dc:title></dc:title></cc:Work></rdf:RDF></metadata><defs
     id="defs6"><inkscape:perspective
       sodipodi:type="inkscape:persp3d"
       inkscape:vp_x="0 : 0.5 : 1"
       inkscape:vp_y="0 : 1000 : 0"
       inkscape:vp_z="1 : 0.5 : 1"
       inkscape:persp3d-origin="0.5 : 0.33333333 : 1"
       id="perspective10" /></defs><sodipodi:namedview
     pagecolor="#ffffff"
     bordercolor="#666666"
     borderopacity="1"
     objecttolerance="10"
     gridtolerance="10"
     guidetolerance="10"
     inkscape:pageopacity="0"
     inkscape:pageshadow="2"
     inkscape:window-width="1062"
     inkscape:window-height="480"
     id="namedview4"
     showgrid="false"
     inkscape:zoom="0.55995935"
     inkscape:cx="492"
     inkscape:cy="297"
     inkscape:window-x="107"
     inkscape:window-y="122"
     inkscape:window-maximized="0"
     inkscape:current-layer="g12" /><g
     id="g12"
     inkscape:groupmode="layer"
     inkscape:label="diagram"
     transform="matrix(1.25,0,0,-1.25,0,594.00001)"><g
       transform="matrix(-0.96875,0,0,-1,786.699,475.20001)"
       id="g16"><path
         id="path18"
         style="fill:none;stroke:#000000;stroke-width:4.06400394;stroke-linecap:butt;stroke-linejoin:miter;stroke-miterlimit:4;stroke-opacity:1;stroke-dasharray:none"
         d="m 765.052,239.449 c 0,108.551 -90.834,196.547 -202.887,196.547 -112.048,0 -202.883,-87.996 -202.883,-196.547 0,-108.547 90.835,-196.543 202.883,-196.543 112.053,0 202.887,87.996 202.887,196.543 z" /></g><g
       transform="matrix(-0.877551,0,0,-1,786.699,475.20001)"
       id="g20"><path
         id="path22"
         style="fill:none;stroke:#000000;stroke-width:4.26995993;stroke-linecap:butt;stroke-linejoin:miter;stroke-miterlimit:4;stroke-opacity:1;stroke-dasharray:none"
         d="m 630.341,154.285 c 0,45.422 -41.963,82.246 -93.727,82.246 -51.76,0 -93.722,-36.824 -93.722,-82.246 0,-45.426 41.962,-82.25 93.722,-82.25 51.764,0 93.727,36.824 93.727,82.25 z" /></g><path
       id="path24"
       style="fill:#000000;fill-opacity:1;fill-rule:nonzero;stroke:none"
       d="m 623.023,475.2 c -0.687,0 -1.5,-0.656 -1.5,-1.5 0,-0.633 0.449,-0.973 1.324,-1.125 -0.656,-0.492 -1.75,-0.918 -2.722,-1.301 l 0.023,-0.051 c 0.078,-0.128 0.898,-0.199 1.074,-0.199 0.571,0.207 1.688,0.649 2.301,1.426 0.098,-0.031 0.172,-0.07 0.25,-0.125 l 0.523,0.727 c -0.109,0.074 -0.246,0.125 -0.398,0.148 0.043,0.141 0.074,0.285 0.074,0.449 0,1.16 -0.535,1.551 -0.949,1.551 z m -0.352,-0.676 c 0.418,0 0.766,-0.582 0.778,-1.074 0,-0.066 -0.004,-0.133 -0.028,-0.199 -0.82,0.164 -1.375,0.453 -1.375,0.824 0,0.207 0.297,0.449 0.625,0.449 z m -63,-2.926 c -0.273,-0.281 -0.589,-0.656 -0.875,-1.046 0.438,-0.364 0.852,-0.7 1.301,-1.125 0.309,0.281 0.52,0.562 0.824,1 -0.425,0.457 -0.8,0.824 -1.25,1.171 z m -2.097,-0.148 c -0.274,-0.285 -0.59,-0.656 -0.875,-1.051 0.437,-0.359 0.824,-0.699 1.273,-1.125 0.309,0.285 0.52,0.563 0.824,1 -0.425,0.461 -0.773,0.824 -1.222,1.176 z m -32.801,-0.176 c -0.316,-0.25 -0.652,-0.594 -1.023,-1 0.164,-2.316 0.296,-4.496 0.296,-6.574 0,-1.609 0.008,-2.398 0.676,-3.074 0.449,-0.449 1.012,-0.625 1.875,-0.625 0.035,-0.004 0.063,0 0.102,0 l 0.222,0 c 0.942,0 1.805,0.39 2.176,1.125 l 0.028,0 c 0.371,-0.821 1.203,-1.125 2.273,-1.125 l 0.25,0 0.148,0 c 0.43,0 0.95,0.105 1.375,0.324 0.504,0.25 0.774,0.719 1,1.273 0.321,0.657 0.426,1.571 0.426,2.75 0,1.215 -0.082,2.543 -0.125,3.801 0.262,0.188 0.481,0.364 0.676,0.551 -0.57,0.941 -0.898,1.789 -0.875,2.5 l -0.074,0.074 c -0.242,-0.207 -0.449,-0.437 -0.602,-0.625 -0.219,-0.238 -0.347,-0.484 -0.347,-0.722 0,-0.407 0.078,-0.875 0.125,-1.375 0.171,-2.016 0.277,-3.926 0.296,-5.676 0,-0.571 -0.191,-0.957 -0.574,-1.176 -0.469,-0.25 -0.875,-0.301 -1.222,-0.301 l -0.227,0 -0.199,0 c -0.582,0 -1,0.168 -1.352,0.449 -0.261,0.211 -0.375,0.52 -0.375,0.903 0,0.238 0.098,0.715 0.25,1.273 l -0.074,0.074 -0.75,-0.546 -0.324,-1.176 c -0.164,-0.625 -1.035,-0.977 -1.875,-0.977 l -0.25,0 -0.153,0 c -0.14,0 -0.425,0.028 -0.699,0.125 -0.426,0.153 -0.824,0.477 -0.824,1.176 l 0,0.625 c 0,2.691 0,5.531 -0.176,7.926 l -0.074,0.023 z m 13.051,0 c -0.317,-0.25 -0.653,-0.594 -1.028,-1 0.164,-2.316 0.301,-4.496 0.301,-6.574 0,-1.609 0.008,-2.398 0.676,-3.074 0.449,-0.449 0.984,-0.625 1.852,-0.625 l 0.125,0 0.574,0 c 1.707,0 3.258,0.523 4.722,1.472 l 1.852,1.204 c 0.359,0.226 0.957,0.421 1.875,0.398 l 0.574,1.148 -0.023,0.028 -0.875,-0.028 c -0.692,0.012 -1.352,0.145 -1.875,0.352 -1.707,0.688 -2.867,0.949 -3.602,0.949 -1.312,0 -2.285,-0.761 -2.375,-1.972 l 0.551,-1.426 0.102,0 0.324,0.972 -0.125,0.551 c 0.304,0.352 0.777,0.551 1.398,0.551 1.008,0 2.156,-0.305 3.426,-0.773 l 0,-0.051 c -2.254,-1.356 -4.078,-1.977 -5.852,-1.977 l -0.671,0 -0.153,0 c -0.14,0 -0.426,0.028 -0.699,0.125 -0.426,0.153 -0.824,0.477 -0.824,1.176 l 0,0.625 c 0,2.691 0,5.531 -0.176,7.926 l -0.074,0.023 z m 99.824,0 c -0.242,-0.23 -0.449,-0.449 -0.625,-0.699 -0.152,-0.195 -0.25,-0.461 -0.25,-0.801 0,-0.492 0.129,-1.207 0.148,-1.699 0.188,-1.914 0.278,-3.309 0.278,-4.426 0,-1.004 -0.371,-1.613 -0.875,-1.972 l -0.074,0 c -0.012,0.765 -0.168,1.382 -0.454,1.898 -0.644,1.137 -1.628,2.574 -2.625,4.148 l 0.352,0.625 c -0.711,0.704 -1.359,1.344 -1.773,1.903 l -0.051,0 c -0.145,-0.207 -0.5,-0.809 -0.5,-1.051 0,-0.359 0.363,-1.012 1.074,-2.051 0.898,-1.312 1.676,-2.426 2.375,-3.5 0.633,-0.961 1.195,-1.785 1.25,-2.222 -1.125,-0.68 -2.789,-1.141 -4.898,-1.426 l 0,-0.102 c 0.753,-0.238 1.679,-0.523 2.699,-0.523 0.887,0 1.996,0.39 2.75,0.949 0.578,0.426 0.902,0.996 1.199,1.852 0.195,0.601 0.375,1.39 0.375,2.125 0,1.332 -0.047,2.589 -0.102,3.921 0.274,0.176 0.512,0.375 0.676,0.528 -0.504,0.82 -0.875,1.578 -0.875,2.222 0,0.079 -0.012,0.149 0,0.227 l -0.074,0.074 z m -48.375,-1.972 c -0.273,-0.286 -0.566,-0.657 -0.852,-1.051 0.438,-0.363 0.829,-0.699 1.278,-1.125 0.304,0.285 0.519,0.562 0.824,1 -0.426,0.457 -0.801,0.824 -1.25,1.176 z m 34.625,0 c -0.273,-0.286 -0.566,-0.657 -0.852,-1.051 0.438,-0.363 0.829,-0.699 1.278,-1.125 0.304,0.285 0.519,0.562 0.824,1 -0.426,0.457 -0.801,0.824 -1.25,1.176 z m -36.727,-0.153 c -0.273,-0.285 -0.589,-0.629 -0.875,-1.023 0.438,-0.363 0.829,-0.723 1.278,-1.153 0.304,0.286 0.543,0.563 0.847,1 -0.425,0.461 -0.8,0.829 -1.25,1.176 z m 34.625,0 c -0.273,-0.285 -0.589,-0.629 -0.875,-1.023 0.438,-0.363 0.852,-0.723 1.301,-1.153 0.309,0.286 0.52,0.563 0.824,1 -0.425,0.461 -0.8,0.829 -1.25,1.176 z M 560,468.325 c -0.297,-0.262 -0.602,-0.582 -0.875,-0.898 l 0.074,-0.801 c -1.883,-1.039 -3.063,-2.074 -3.5,-3.028 -0.242,-0.523 -0.352,-0.957 -0.352,-1.273 0,-0.875 0.828,-1.273 1.977,-1.273 0.851,0 1.551,0.199 2.176,0.472 0.414,-1.234 1.203,-1.523 2.273,-1.523 l 0.227,0 0.171,0 c 1.184,0 1.872,0.597 2.176,1.301 l 0.051,0 c 0.875,-0.942 2.234,-1.539 3.074,-1.528 0.254,0 0.496,0.11 0.727,0.352 0.176,0.195 0.285,0.472 0.347,0.824 l 0.051,0 c 0.461,-0.734 1.043,-0.949 1.676,-0.949 l 0.227,0 0.546,0 c 1.707,0 3.286,0.523 4.75,1.472 l 1.829,1.204 c 0.359,0.226 0.98,0.421 1.898,0.398 l 0.574,1.148 -0.051,0.028 -0.875,-0.028 c -0.687,0.012 -1.347,0.145 -1.875,0.352 -1.703,0.688 -2.839,0.949 -3.574,0.949 -1.312,0 -2.285,-0.761 -2.375,-1.972 l 0.528,-1.426 0.125,0 0.324,0.972 -0.153,0.551 c 0.309,0.352 0.778,0.551 1.403,0.551 1.004,0 2.156,-0.305 3.426,-0.773 l 0,-0.051 c -2.254,-1.356 -4.079,-1.977 -5.852,-1.977 l -0.648,0 -0.204,0 c -0.882,0 -1.457,0.387 -1.699,0.903 -0.59,1.246 -0.824,1.656 -1.097,2.046 -0.375,0.54 -0.766,0.75 -1.301,0.75 -0.735,0 -1.598,-0.707 -2.028,-2.074 -0.328,-1.039 -0.699,-1.625 -1.847,-1.625 l -0.324,0 -0.25,0 c -0.485,0 -0.899,0.082 -1.153,0.301 -0.328,0.285 -0.426,0.781 -0.426,1.523 -0.007,1.696 -0.031,3.407 -0.074,5.102 l -0.097,0 z m 41.171,-0.352 c -0.281,-0.347 -0.523,-0.742 -0.773,-1.125 0.516,-1.867 0.926,-3.328 0.926,-4.074 0,-0.261 -0.321,-0.594 -0.727,-0.824 -0.511,-0.297 -1.195,-0.551 -1.773,-0.551 -1.051,0 -1.508,0.567 -1.551,1.477 l -0.426,-0.028 c -0.019,-0.273 -0.023,-0.55 -0.023,-0.824 0,-1.277 0.676,-2.023 1.898,-2.023 0.735,0 1.481,0.312 2.199,0.75 0.473,0.285 0.688,0.633 0.778,1.051 l 0.051,0 c 0.425,-1.368 1.265,-1.801 2.25,-1.801 l 0.199,0 0.574,0 c 1.707,0 3.258,0.523 4.727,1.472 l 1.824,1.204 c 0.359,0.226 0.98,0.421 1.898,0.398 l 0.574,1.148 -0.023,0.028 -0.898,-0.028 c -0.692,0.012 -1.329,0.145 -1.852,0.352 -1.707,0.688 -2.867,0.949 -3.602,0.949 -1.312,0 -2.285,-0.761 -2.375,-1.972 l 0.551,-1.426 0.102,0 0.324,0.972 -0.125,0.551 c 0.305,0.352 0.75,0.551 1.375,0.551 1.008,0 2.18,-0.305 3.449,-0.773 l -0.023,-0.051 c -2.254,-1.356 -4.055,-1.977 -5.824,-1.977 l -0.676,0 -0.176,0 c -0.82,0 -1.555,0.567 -1.75,1.653 -0.297,1.605 -0.621,3.296 -1.023,4.875 l -0.079,0.046 z m -11.898,-1.949 c -0.285,-0.347 -0.563,-0.754 -0.824,-1.222 0.566,-1.118 1.097,-2.188 1.097,-2.704 0,-0.183 -0.242,-0.332 -0.625,-0.472 -0.48,-0.176 -1.218,-0.227 -2.148,-0.227 l -0.199,0 -0.199,0 c -1.27,0 -1.829,0.879 -2.454,2.375 l -0.074,-0.023 c -0.183,-0.363 -0.379,-0.746 -0.597,-1.25 0.25,-0.528 0.523,-1.051 0.949,-1.653 0.14,-0.183 0.246,-0.343 0.301,-0.472 -0.243,-1.621 -2.188,-3.278 -3.653,-3.278 -0.558,0 -0.953,0.086 -1.25,0.227 l -0.148,-0.375 c 0.906,-0.48 1.902,-0.852 2.722,-0.852 0.813,0 1.739,0.657 2.602,2.176 0.297,0.528 0.449,1.188 0.449,1.699 0,0.122 -0.012,0.247 -0.023,0.375 l 0.051,0 c 0.273,-0.25 0.617,-0.347 1.097,-0.347 l 0.227,0 0.125,0 c 1.672,0 2.457,0.183 2.949,0.676 0.438,0.578 0.773,1.203 0.773,2.023 0,1.082 -0.593,2.438 -1.097,3.324 l -0.051,0 z m 34.625,0 c -0.285,-0.347 -0.562,-0.754 -0.824,-1.222 0.566,-1.118 1.097,-2.188 1.097,-2.704 0,-0.183 -0.242,-0.332 -0.625,-0.472 -0.48,-0.176 -1.218,-0.227 -2.148,-0.227 l -0.199,0 -0.977,0 c -0.304,2.242 -1.344,3.653 -2.347,3.653 -0.692,0 -1.262,-0.45 -1.676,-1.051 -0.317,-0.449 -0.551,-1.008 -0.551,-1.75 0,-1.531 1.117,-2.25 3.352,-2.25 l 0.546,0 c -0.14,-0.559 -0.5,-0.988 -1.023,-1.528 -0.941,-0.96 -1.945,-1.5 -3.051,-1.5 -0.656,0 -1.172,0.149 -1.597,0.375 l -0.204,-0.347 c 1.051,-0.645 2.157,-1.102 3.153,-1.102 0.578,0 1.808,0.598 2.648,1.875 0.461,0.692 0.77,1.535 0.824,2.227 l 0.903,0 0.148,0 c 1.676,0 2.434,0.183 2.926,0.676 0.437,0.578 0.773,1.203 0.773,2.023 0,1.082 -0.593,2.438 -1.097,3.324 l -0.051,0 z m -64.625,-0.625 0.051,-2.699 c -0.645,-0.207 -1.156,-0.301 -1.625,-0.301 -0.746,0 -1.403,0.176 -1.403,0.602 0,0.578 1.032,1.394 2.977,2.398 z m 6.699,-1.574 c 0.473,0 0.973,-0.328 1.403,-0.977 0.281,-0.437 0.546,-1.046 0.546,-1.472 0,-0.254 -0.191,-0.25 -0.398,-0.25 -0.383,0 -1.031,0.191 -1.523,0.472 -0.485,0.274 -1.168,0.848 -1.278,1.25 0.199,0.571 0.649,0.977 1.25,0.977 z m 51.602,-0.199 c 0.402,0 0.801,-0.231 1.148,-0.625 0.371,-0.406 0.656,-0.988 0.778,-1.602 -0.711,0 -1.375,0.012 -1.977,0.176 -0.68,0.195 -1.199,0.516 -1.199,1.074 0,0.438 0.636,0.977 1.25,0.977 z m -43.074,-5.25 c -0.297,-0.34 -0.606,-0.731 -0.903,-1.125 0.438,-0.371 0.875,-0.723 1.301,-1.125 0.371,0.316 0.66,0.679 0.898,1.074 -0.425,0.449 -0.851,0.848 -1.296,1.176 z m 33.699,0 c -0.297,-0.34 -0.582,-0.731 -0.875,-1.125 0.437,-0.371 0.847,-0.723 1.273,-1.125 0.371,0.316 0.684,0.679 0.926,1.074 -0.426,0.449 -0.875,0.848 -1.324,1.176 z m -78.324,-0.403 c -0.274,-0.281 -0.567,-0.656 -0.852,-1.046 0.437,-0.364 0.828,-0.727 1.273,-1.153 0.309,0.285 0.52,0.59 0.829,1.028 -0.43,0.457 -0.805,0.824 -1.25,1.171 z m -2.102,-0.148 c -0.273,-0.285 -0.59,-0.656 -0.875,-1.051 0.438,-0.359 0.828,-0.699 1.273,-1.125 0.309,0.285 0.547,0.563 0.852,1 -0.426,0.461 -0.801,0.824 -1.25,1.176 z" /><path
       id="path26"
       style="fill:#000000;fill-opacity:1;fill-rule:nonzero;stroke:none"
       d="m 260.074,473.075 c -1.352,-0.523 -3.176,-1.137 -4.926,-1.727 l -0.199,-0.847 0.023,-0.028 c 1.512,0.489 3.086,1.016 4.625,1.625 l 0.5,0.954 -0.023,0.023 z m -1.227,-4.75 c -0.312,-0.324 -0.676,-0.727 -1,-1.176 0.5,-0.41 0.961,-0.812 1.477,-1.301 0.347,0.329 0.597,0.653 0.949,1.153 -0.488,0.523 -0.914,0.926 -1.426,1.324 z m -2.426,-0.148 c -0.312,-0.329 -0.648,-0.75 -0.972,-1.204 0.5,-0.41 0.937,-0.812 1.449,-1.296 0.347,0.324 0.597,0.648 0.949,1.148 -0.488,0.523 -0.914,0.949 -1.426,1.352 z m 2.403,-3.579 c -0.329,-0.398 -0.625,-0.859 -0.926,-1.398 0.648,-1.273 1.25,-2.512 1.25,-3.102 0,-0.21 -0.289,-0.386 -0.727,-0.546 -0.551,-0.204 -1.386,-0.227 -2.449,-0.227 l -0.227,0 -0.222,0 c -1.449,0 -2.09,0.988 -2.801,2.699 l -0.102,-0.023 c -0.211,-0.414 -0.421,-0.875 -0.671,-1.449 0.285,-0.602 0.586,-1.164 1.074,-1.852 0.16,-0.211 0.285,-0.426 0.347,-0.574 -0.273,-1.852 -2.472,-3.75 -4.148,-3.75 -0.637,0 -1.113,0.113 -1.449,0.273 l -0.176,-0.426 c 1.039,-0.546 2.188,-0.972 3.125,-0.972 0.926,0 1.988,0.762 2.977,2.5 0.336,0.597 0.5,1.336 0.5,1.926 0,0.136 -0.016,0.296 -0.028,0.449 l 0.051,0 c 0.313,-0.289 0.727,-0.403 1.273,-0.403 l 0.25,0 0.153,0 c 1.91,0 2.812,0.188 3.375,0.75 0.5,0.665 0.875,1.391 0.875,2.329 0,1.234 -0.676,2.785 -1.25,3.796 l -0.074,0 z m -17.778,-0.574 c -1.5,0 -2.597,-0.863 -2.699,-2.25 l 0.602,-1.648 0.125,0 0.375,1.125 -0.153,0.625 c 0.352,0.398 0.887,0.625 1.602,0.625 1.148,0 2.472,-0.34 3.926,-0.875 l -0.028,-0.051 c -2.574,-1.551 -4.648,-2.25 -6.676,-2.25 l -0.75,0 -0.199,0 c -0.699,0 -1.461,0.301 -1.824,0.773 -0.523,0.665 -0.898,1.29 -1.523,1.977 -0.653,0.727 -1.289,1.352 -1.977,1.875 l -0.102,0 c -0.648,-0.711 -1.546,-1.5 -2.472,-2.324 -0.563,-0.488 -1.063,-1.262 -1.278,-2.153 -0.136,-0.535 -0.222,-1.011 -0.222,-1.523 0,-0.914 0.488,-2.387 1.074,-4 0.551,-1.5 1.086,-3.102 1.375,-4.426 l 0.148,0 c 0.125,0.528 0.278,1.262 0.278,1.852 0,0.637 -0.653,2.699 -1.324,4.801 -0.426,1.336 -0.625,2.187 -0.625,2.722 0,0.5 0.472,1.176 1.472,1.949 0.039,-2.148 1.449,-3.875 3.176,-3.875 0.812,0 1.5,0.926 1.602,1.875 l 0.074,0.028 c 0.551,-0.778 1.125,-1.153 2.097,-1.153 l 0.25,0 0.653,0 c 1.949,0 3.722,0.59 5.398,1.676 l 2.102,1.352 c 0.41,0.262 1.097,0.5 2.148,0.472 l 0.676,1.301 -0.051,0.028 -1,0 c -0.785,0.011 -1.551,0.16 -2.148,0.398 -1.949,0.789 -3.262,1.074 -4.102,1.074 z m -9.347,-1.801 c 1.086,-0.835 1.648,-1.5 2.125,-2.125 0.324,-0.421 0.449,-0.75 0.449,-0.972 0,-0.262 -0.387,-0.477 -0.824,-0.477 -0.688,0 -1.164,0.301 -1.528,0.625 -0.562,0.5 -0.949,1.188 -0.949,2.028 0,0.359 0.523,0.722 0.727,0.921 z m 10.25,-6.375 c -0.34,-0.386 -0.688,-0.824 -1.028,-1.273 0.5,-0.426 0.988,-0.812 1.477,-1.273 0.426,0.359 0.773,0.773 1.051,1.222 -0.489,0.512 -0.989,0.949 -1.5,1.324 z m 2.824,-3.898 c -1.352,-0.523 -3.176,-1.137 -4.926,-1.727 l -0.199,-0.875 0.023,-0.023 c 1.512,0.488 3.09,1.039 4.625,1.648 l 0.5,0.926 -0.023,0.051 z" /><path
       id="path28"
       style="fill:#000000;fill-opacity:1;fill-rule:nonzero;stroke:none"
       d="m 23.503,216.626 c -0.386,-0.352 -0.875,-0.875 -1.222,-1.324 0.199,-2.164 0.449,-5.489 0.449,-7.778 l 0,-1.222 c 0,-0.829 -0.023,-1.715 -0.148,-2.5 l 0.171,-0.102 c 0.727,0.801 1.063,1.336 1.102,2.023 0.062,0.551 0.074,1.29 0.074,2.051 0,2.914 -0.062,6.074 -0.324,8.801 l -0.102,0.051 z m 5.454,-6.153 c -0.313,-0.511 -0.59,-1.035 -0.875,-1.574 0.546,-0.836 1.046,-1.75 1.5,-2.75 0.074,-0.211 0.171,-0.437 0.171,-0.648 0,-0.137 -0.046,-0.34 -0.148,-0.551 -0.824,-1.852 -2.613,-3.363 -4.375,-3.375 -0.551,0 -1.012,0.102 -1.398,0.227 l -0.125,-0.426 c 1.222,-0.625 2.273,-0.977 3.199,-0.977 0.625,0 1.312,0.352 2.074,1.153 0.977,1.171 1.574,2.359 1.574,3.472 l 0,1.375 c 0,1.074 -0.301,1.75 -0.625,2.375 l -0.898,1.676 -0.074,0.023 z m -15.75,-0.148 c -1.5,0 -2.602,-0.863 -2.704,-2.25 l 0.602,-1.648 0.125,0 0.375,1.125 -0.148,0.625 c 0.347,0.398 0.886,0.625 1.597,0.625 1.153,0 2.477,-0.34 3.926,-0.875 l -0.023,-0.051 c -2.579,-1.551 -4.653,-2.278 -6.676,-2.278 l -0.75,0 c -0.676,0 -0.875,-0.449 -0.875,-0.75 0,-0.335 0.187,-0.847 0.875,-0.847 l 0.648,0 c 1.949,0 3.727,0.586 5.403,1.676 l 2.097,1.375 c 0.414,0.261 1.102,0.472 2.153,0.449 l 0.671,1.324 -0.046,0.023 -1,-0.023 c -0.79,0.012 -1.551,0.164 -2.153,0.398 -1.949,0.79 -3.261,1.102 -4.097,1.102 z m 0.898,-8.176 c -0.336,-0.386 -0.688,-0.824 -1.023,-1.273 0.5,-0.426 0.984,-0.84 1.472,-1.301 0.426,0.363 0.778,0.773 1.051,1.227 -0.488,0.511 -0.988,0.972 -1.5,1.347 z" /><path
       id="path30"
       style="fill:#000000;fill-opacity:1;fill-rule:nonzero;stroke:none"
       d="m 16.949,198.196 -0.028,0.035 C 15.574,197.708 13.75,197.095 12,196.509 l -0.188,-0.864 0.023,-0.023 c 1.512,0.484 3.075,1.023 4.614,1.637 l 0.5,0.937" /><path
       id="path32"
       style="fill:#000000;fill-opacity:1;fill-rule:nonzero;stroke:none"
       d="m 4.609,205.606 c 1.215,-0.937 2.851,-1.609 4.328,-1.609 l 0.586,0 0,1.609 -0.727,0 c -1.062,0 -2.16,0.227 -3,0.676 l 0,0.051 2.414,2.074 0.301,1.414 c -0.926,0.387 -2.125,0.574 -3.574,0.574 -1.227,0 -2.375,-0.199 -3.352,-0.414 L 1,209.884 0.46,208.52 0.535,208.407 c 0.187,0.063 0.425,0.152 0.613,0.152 0.25,0 0.539,-0.328 0.852,-0.613 0.484,-0.476 0.96,-1.062 1.484,-1.465 C 1.687,205.356 0,203.669 0,201.434 c 0,-3.226 2.562,-4.664 5.597,-4.664 1,0 1.738,0.137 2.137,0.364 0.777,0.437 1.465,0.925 2.101,1.398 l -0.085,0.227 c -0.829,-0.215 -1.954,-0.364 -3.188,-0.364 -3.414,0 -5.715,1.438 -5.715,3.539 0,1.348 1.465,2.547 3.688,3.672 l 0.074,0 m 0.09,1.352 c -0.465,0.375 -0.813,0.699 -1.25,1.074 -0.278,0.25 -0.699,0.59 -0.926,0.789 l 0,0.063 c 0.687,0.148 1.324,0.25 2.398,0.25 0.875,0 1.688,-0.137 2.391,-0.289 l 0,-0.075 c -0.801,-0.761 -1.75,-1.312 -2.562,-1.824 l -0.051,0.012" /><path
       id="path34"
       style="fill:#000000;fill-opacity:1;fill-rule:nonzero;stroke:none"
       d="m 243.597,24.126 c -0.511,0 -1.035,-0.262 -1.523,-0.699 -0.364,-0.364 -0.574,-0.766 -0.574,-1.102 0,-0.539 0.386,-0.926 0.972,-1.102 l 0,-0.023 c -0.211,-0.074 -0.461,-0.289 -0.574,-0.426 l -0.301,-0.523 0.028,-0.028 c 0.91,0.415 2,0.727 3.25,0.926 0.171,0.25 0.324,0.539 0.472,0.852 l 0,0.051 c -0.426,-0.028 -0.847,-0.051 -1.273,-0.051 -0.738,0 -1.778,0.199 -1.778,0.801 0,0.187 0.438,0.421 0.875,0.421 0.153,0 0.289,0 0.375,-0.023 0.141,-0.039 0.266,-0.227 0.403,-0.5 l 0.023,0 c 0.199,0.238 0.403,0.5 0.403,0.824 0,0.324 -0.278,0.602 -0.778,0.602 z m 0.352,-4.074 c -0.387,-0.352 -0.875,-0.875 -1.227,-1.329 0.199,-2.16 0.449,-5.484 0.449,-7.773 l 0,-1.227 c 0,-0.824 -0.023,-1.71 -0.148,-2.5 l 0.176,-0.097 c 0.722,0.801 1.062,1.336 1.097,2.023 0.063,0.551 0.079,1.289 0.079,2.051 0,2.914 -0.063,6.074 -0.329,8.801 l -0.097,0.051 z m -24.875,-3.801 c -0.903,0 -1.75,-0.528 -2.324,-1.477 -0.375,-0.636 -0.551,-1.363 -0.551,-1.898 0,-1.09 0.523,-1.762 1.875,-2.727 C 216.875,9.098 216,7.739 216,6.098 c 0,-3.222 2.562,-4.648 5.597,-4.648 1,0 1.727,0.125 2.125,0.352 0.778,0.437 1.465,0.921 2.102,1.398 l -0.074,0.227 c -0.829,-0.215 -1.965,-0.352 -3.204,-0.352 -3.41,0 -5.699,1.426 -5.699,3.523 0,0.977 0.84,2.016 2.102,2.778 1.187,0.711 2.676,1.363 4.25,1.972 l 0.472,1.625 -0.074,0.051 c -1.125,-0.426 -2.25,-0.91 -3.375,-1.449 -0.211,-0.102 -0.426,-0.227 -0.676,-0.227 -0.25,0 -0.875,0.352 -1.324,0.676 -0.762,0.574 -1.097,1.012 -1.097,1.574 0,0.516 1.109,1.227 2.5,1.227 0.66,0 1.296,-0.125 1.949,-0.426 l 0.199,0.278 c -0.762,1.023 -1.602,1.574 -2.699,1.574 z m 9,-0.074 c -0.289,-0.465 -0.653,-1.114 -0.653,-1.426 0,-0.153 0.102,-0.324 0.403,-0.477 0.886,-0.449 1.836,-1.113 2.551,-1.875 0.734,-0.812 1.171,-1.699 1.171,-2.375 0,-0.097 -0.086,-0.211 -0.25,-0.301 -0.91,-0.511 -1.722,-0.824 -2.699,-0.824 -1.562,0 -2.011,0.852 -2.051,1.926 l -0.5,0 C 225.984,10.427 226,10.126 226,9.927 c 0,-1.852 0.972,-2.653 2.398,-2.653 1.176,0 2.363,0.512 3.477,1.176 0.324,0.676 0.523,1.398 0.523,2.176 0,1.051 -0.488,2.023 -1.25,2.972 -0.836,1.04 -1.961,1.954 -2.977,2.579 l -0.097,0 z m 9.574,-1.903 c -0.586,0 -1.227,-0.398 -1.801,-1.023 -0.488,-0.625 -0.801,-1.324 -0.801,-2.153 0,-1.66 1.266,-2.347 2.727,-2.347 0.563,0 1.137,0.074 1.676,0.222 -0.09,-0.734 -0.613,-1.484 -1.176,-2.097 -1.148,-1.278 -2.414,-1.903 -3.676,-1.903 -0.613,0 -1.211,0.114 -1.824,0.426 l -0.199,-0.398 c 1.25,-0.852 2.449,-1.227 3.597,-1.227 1.039,0 2.09,0.688 3.204,2.375 0.66,1.028 0.949,2.114 0.949,3.278 0,1.386 -0.324,2.586 -0.801,3.449 -0.488,0.898 -1.148,1.398 -1.875,1.398 z M 237.222,12.7 c 1.074,0 1.813,-1.012 2.153,-2.273 -0.454,-0.114 -0.954,-0.153 -1.426,-0.153 -1.028,0 -2.125,0.551 -2.125,1.324 0,0.465 0.812,1.102 1.398,1.102 z m -5.676,-9.5 c -1.347,-0.523 -3.171,-1.137 -4.921,-1.727 l -0.176,-0.847 0.023,-0.028 c 1.512,0.489 3.063,1.016 4.602,1.625 l 0.5,0.954 -0.028,0.023 z" /><path
       id="path36"
       style="fill:#000000;fill-opacity:1;fill-rule:nonzero;stroke:none"
       d="m 129.222,313.876 c -0.273,-0.285 -0.59,-0.656 -0.875,-1.051 0.437,-0.359 0.828,-0.699 1.273,-1.125 0.309,0.285 0.547,0.563 0.852,1 -0.426,0.461 -0.801,0.824 -1.25,1.176 z m -2.125,-0.153 c -0.273,-0.281 -0.566,-0.628 -0.852,-1.023 0.438,-0.359 0.829,-0.723 1.278,-1.148 0.304,0.281 0.519,0.586 0.824,1.023 -0.426,0.461 -0.801,0.801 -1.25,1.148 z m 67.801,-0.074 c -0.274,-0.285 -0.567,-0.629 -0.852,-1.023 0.438,-0.363 0.828,-0.723 1.278,-1.153 0.304,0.286 0.515,0.563 0.824,1 -0.426,0.461 -0.801,0.829 -1.25,1.176 z m 25,-0.324 c -0.34,-0.305 -0.77,-0.758 -1.074,-1.148 0.171,-1.895 0.398,-4.801 0.398,-6.801 l 0,-1.074 c 0,-0.723 -0.016,-1.512 -0.125,-2.204 l 0.148,-0.074 c 0.637,0.699 0.918,1.176 0.954,1.778 0.054,0.48 0.074,1.132 0.074,1.796 0,2.551 -0.047,5.317 -0.278,7.704 l -0.097,0.023 z m -61.074,-1.75 c -0.274,-0.285 -0.567,-0.633 -0.852,-1.023 0.438,-0.364 0.828,-0.727 1.273,-1.153 0.309,0.285 0.52,0.563 0.829,1 -0.43,0.461 -0.805,0.824 -1.25,1.176 z m 37.597,-0.102 c -0.273,-0.281 -0.566,-0.656 -0.847,-1.046 0.437,-0.364 0.824,-0.7 1.273,-1.125 0.305,0.281 0.52,0.562 0.824,1 -0.426,0.457 -0.801,0.824 -1.25,1.171 z m -39.699,-0.046 c -0.273,-0.286 -0.59,-0.633 -0.875,-1.028 0.437,-0.359 0.828,-0.722 1.273,-1.148 0.309,0.285 0.547,0.586 0.852,1.023 -0.426,0.461 -0.801,0.801 -1.25,1.153 z m 37.602,-0.102 c -0.274,-0.285 -0.594,-0.633 -0.875,-1.023 0.437,-0.364 0.824,-0.727 1.273,-1.153 0.305,0.285 0.543,0.563 0.852,1 -0.43,0.461 -0.805,0.824 -1.25,1.176 z m -64.801,-0.699 c -0.297,-0.262 -0.578,-0.582 -0.852,-0.903 l 0.074,-0.824 c -1.878,-1.039 -3.062,-2.047 -3.5,-3 -0.238,-0.523 -0.347,-0.98 -0.347,-1.301 0,-0.875 0.824,-1.273 1.972,-1.273 0.856,0 1.555,0.227 2.176,0.5 0.418,-1.234 1.18,-1.523 2.25,-1.523 l 0.25,0 0.176,0 c 1.18,0 1.867,0.574 2.176,1.273 l 0.023,0 c 0.875,-0.941 2.258,-1.535 3.102,-1.523 0.25,0 0.496,0.132 0.722,0.375 0.176,0.195 0.286,0.472 0.352,0.824 l 0.051,0 c 0.457,-0.735 1.039,-0.949 1.676,-0.949 l 0.199,0 0.574,0 c 1.707,0 3.285,0.496 4.75,1.449 l 1.824,1.199 c 0.363,0.23 0.957,0.422 1.875,0.398 l 0.602,1.153 -0.051,0.023 -0.875,0 c -0.688,0.012 -1.352,0.145 -1.875,0.352 -1.707,0.687 -2.844,0.949 -3.574,0.949 -1.313,0 -2.289,-0.762 -2.375,-1.977 l 0.523,-1.449 0.102,0 0.347,1 -0.148,0.528 c 0.305,0.347 0.777,0.546 1.398,0.546 1.008,0 2.157,-0.277 3.426,-0.75 l 0,-0.046 c -2.254,-1.36 -4.078,-1.977 -5.847,-1.977 l -0.676,0 -0.176,0 c -0.887,0 -1.461,0.387 -1.699,0.898 -0.59,1.25 -0.828,1.657 -1.102,2.051 -0.371,0.535 -0.762,0.727 -1.301,0.727 -0.73,0 -1.597,-0.707 -2.023,-2.074 -0.328,-1.039 -0.703,-1.602 -1.852,-1.602 l -0.324,0 -0.273,0 c -0.481,0 -0.875,0.055 -1.125,0.273 -0.328,0.286 -0.426,0.809 -0.426,1.551 -0.012,1.696 -0.031,3.406 -0.074,5.102 l -0.125,0 z m 40.75,-0.375 c -0.297,-0.34 -0.606,-0.731 -0.903,-1.125 0.438,-0.371 0.875,-0.723 1.301,-1.125 0.371,0.316 0.66,0.679 0.903,1.074 -0.43,0.449 -0.852,0.848 -1.301,1.176 z m 9.375,-1.227 c -0.965,0 -1.762,-0.621 -2.278,-1.472 -0.293,-0.493 -0.472,-0.957 -0.472,-1.426 0,-0.953 0.508,-1.649 1.273,-2.153 l 0,-0.046 c -0.621,-0.176 -1.183,-0.227 -1.597,-0.227 l -0.704,0 -0.148,0 c -1.062,0 -1.656,0.137 -1.977,1.102 -0.25,0.742 -0.468,1.3 -0.875,2.097 l -0.097,0 c -0.285,-0.371 -0.508,-0.754 -0.727,-1.148 0.242,-0.418 0.5,-0.965 0.852,-1.778 0.328,-0.949 0.398,-1.386 0.398,-1.824 0,-0.426 -0.316,-0.754 -0.801,-1.125 -0.687,-0.535 -1.773,-0.949 -2.648,-0.949 -0.82,0 -1.648,0.32 -2.074,0.727 -0.426,0.382 -0.727,0.968 -0.727,1.898 0,0.504 0.254,1.352 0.625,2.051 l -0.426,0.222 c -0.5,-0.828 -0.949,-1.785 -0.949,-3.171 0,-1.95 1.321,-3.329 3.375,-3.329 1.293,0 2.946,0.793 3.699,1.778 0.297,0.394 0.622,1.418 0.676,2.523 l 0.028,0 c 0.414,-0.34 0.929,-0.472 1.574,-0.472 l 0.222,0 0.352,0 c 0.875,0 1.711,0.265 2.648,0.574 1.336,0.437 2.184,0.535 3.903,1.148 l 0.574,1.352 -0.051,0.051 c -1.301,-0.438 -2.293,-0.778 -3.125,-0.778 -0.316,0 -0.898,0.274 -1.324,0.602 -0.633,0.492 -0.949,1.035 -0.949,1.551 0,0.382 0.84,0.921 2,0.921 0.797,0 1.359,-0.195 1.949,-0.699 l 0.227,0.199 c -0.571,1.118 -1.411,1.801 -2.426,1.801 z m -20.824,-0.699 c -0.286,-0.352 -0.563,-0.781 -0.829,-1.25 0.571,-1.117 1.102,-2.187 1.102,-2.699 0,-0.188 -0.242,-0.332 -0.625,-0.477 -0.48,-0.176 -1.246,-0.199 -2.176,-0.199 l -0.176,0 -0.199,0 c -1.269,0 -1.824,0.852 -2.449,2.352 l -0.074,0 c -0.188,-0.364 -0.383,-0.774 -0.602,-1.278 0.254,-0.523 0.524,-1.023 0.949,-1.625 0.145,-0.183 0.223,-0.367 0.278,-0.5 -0.242,-1.617 -2.16,-3.273 -3.625,-3.273 -0.559,0 -0.957,0.105 -1.25,0.25 l -0.176,-0.375 c 0.906,-0.481 1.93,-0.852 2.75,-0.852 0.809,0 1.734,0.656 2.602,2.176 0.293,0.523 0.449,1.16 0.449,1.676 0,0.121 -0.016,0.269 -0.028,0.398 l 0.051,0 c 0.274,-0.25 0.621,-0.347 1.102,-0.347 l 0.222,0 0.125,0 c 1.676,0 2.461,0.156 2.954,0.648 0.437,0.578 0.773,1.203 0.773,2.023 0,1.086 -0.598,2.465 -1.102,3.352 l -0.046,0 z m 57.023,0 c -0.285,-0.352 -0.563,-0.781 -0.824,-1.25 0.566,-1.117 1.097,-2.187 1.097,-2.699 0,-0.188 -0.242,-0.332 -0.625,-0.477 -0.48,-0.176 -1.218,-0.199 -2.148,-0.199 l -0.176,0 -0.301,0 c -1.125,0 -1.906,0.32 -1.949,1.25 l -0.023,0.023 -0.403,-0.273 c -0.019,-0.207 -0.023,-0.391 -0.023,-0.602 0,-1.312 0.938,-1.796 2.352,-1.796 l 0.347,0 0.125,0 c 1.676,0 2.457,0.156 2.949,0.648 0.438,0.578 0.75,1.203 0.75,2.023 0,1.086 -0.593,2.465 -1.097,3.352 l -0.051,0 z m -25.852,-0.023 c -0.468,-0.887 -0.625,-1.766 -0.625,-2.653 0,-1.332 0.629,-2.324 1.602,-2.949 0.961,-0.613 2.25,-0.852 3.75,-0.852 1.355,0 2.98,0.329 4.25,0.704 0.789,0.226 1.34,0.48 1.699,0.699 0.418,-0.746 1.153,-0.949 2.227,-0.949 l 0.25,0 0.5,0 c 1.769,0 3.277,0.476 4.801,1.449 l 1.847,1.199 c 0.364,0.23 0.949,0.426 1.824,0.426 l 0.704,1.125 -0.028,0.023 -0.949,0 c -0.687,0 -1.352,0.145 -1.875,0.352 -1.727,0.687 -2.867,0.949 -3.602,0.949 -1.312,0 -2.285,-0.762 -2.375,-1.977 l 0.551,-1.449 0.102,0 0.324,1 -0.125,0.528 c 0.305,0.347 0.777,0.546 1.398,0.546 1.008,0 2.157,-0.277 3.426,-0.75 l 0,-0.046 c -2.254,-1.36 -4.078,-1.977 -5.847,-1.977 l -0.676,0 -0.199,0 c -0.582,0 -0.954,0.105 -1.301,0.398 -0.254,0.211 -0.375,0.485 -0.375,0.903 0,0.273 0.097,0.816 0.25,1.301 l -0.074,0.074 -0.727,-0.551 -0.5,-1.523 c -0.449,-0.2 -0.945,-0.356 -1.449,-0.477 -1.215,-0.285 -2.446,-0.477 -3.727,-0.477 -1.367,0 -2.578,0.165 -3.472,0.704 -0.868,0.523 -1.454,1.382 -1.454,2.398 0,0.48 0.118,1.051 0.329,1.676 l -0.454,0.176 z m -61.171,-0.625 0.046,-2.704 c -0.644,-0.207 -1.152,-0.296 -1.625,-0.296 -0.742,0 -1.398,0.195 -1.398,0.625 0,0.578 1.027,1.367 2.977,2.375 z m 6.699,-1.579 c 0.469,0 0.972,-0.328 1.398,-0.972 0.285,-0.438 0.551,-1.024 0.551,-1.449 0,-0.254 -0.219,-0.278 -0.426,-0.278 -0.383,0 -1.008,0.192 -1.5,0.477 -0.48,0.273 -1.191,0.844 -1.301,1.25 0.2,0.566 0.676,0.972 1.278,0.972 z m 8.523,-5.421 c -0.293,-0.34 -0.605,-0.735 -0.898,-1.125 0.437,-0.375 0.871,-0.723 1.301,-1.125 0.371,0.316 0.656,0.679 0.898,1.074 -0.426,0.449 -0.852,0.847 -1.301,1.176 z m 71.375,-0.454 c -0.293,-0.335 -0.605,-0.73 -0.898,-1.125 0.437,-0.371 0.871,-0.718 1.301,-1.125 0.371,0.321 0.656,0.684 0.898,1.079 -0.426,0.445 -0.852,0.843 -1.301,1.171 z" /><path
       id="path38"
       style="fill:#000000;fill-opacity:1;fill-rule:nonzero;stroke:none"
       d="m 352.679,223.595 c -0.141,-0.176 -0.258,-0.344 -0.399,-0.551 0.242,-0.528 0.363,-0.985 0.375,-1.125 -0.055,-0.067 -0.164,-0.102 -0.25,-0.102 -0.109,0 -0.242,0.024 -0.351,0.102 -0.227,0.109 -0.403,0.48 -0.422,1.051 l -0.028,0.023 c -0.14,-0.086 -0.23,-0.191 -0.347,-0.301 l 0.047,-0.75 c 0,-0.219 -0.125,-0.5 -0.5,-0.5 -0.227,0 -0.348,0.211 -0.348,0.551 0,0.195 0.043,0.406 0.098,0.625 l -0.047,0 c -0.133,-0.078 -0.246,-0.152 -0.375,-0.25 -0.067,-0.242 -0.102,-0.484 -0.102,-0.727 0,-0.304 0.043,-0.554 0.149,-0.773 0.121,-0.188 0.304,-0.324 0.578,-0.324 0.304,0 0.644,0.219 0.972,0.625 l 0.051,0 c 0.195,-0.164 0.422,-0.227 0.676,-0.227 0.273,0 0.48,0.164 0.625,0.602 0.066,0.207 0.051,0.426 0.051,0.625 0,0.285 -0.118,0.844 -0.403,1.426 l -0.05,0 z m -91.547,-3.125 c -0.274,-0.286 -0.594,-0.633 -0.875,-1.028 0.437,-0.359 0.851,-0.722 1.297,-1.148 0.308,0.285 0.519,0.562 0.828,1 -0.43,0.457 -0.805,0.824 -1.25,1.176 z m 42.75,0 c -0.274,-0.286 -0.567,-0.633 -0.852,-1.028 0.438,-0.359 0.828,-0.722 1.274,-1.148 0.308,0.285 0.519,0.562 0.828,1 -0.43,0.457 -0.805,0.824 -1.25,1.176 z m -44.852,-0.125 c -0.273,-0.286 -0.59,-0.657 -0.875,-1.051 0.438,-0.364 0.828,-0.723 1.274,-1.153 0.308,0.286 0.519,0.59 0.828,1.028 -0.43,0.457 -0.778,0.824 -1.227,1.176 z m 42.75,0 c -0.273,-0.286 -0.59,-0.657 -0.875,-1.051 0.438,-0.364 0.828,-0.723 1.274,-1.153 0.308,0.286 0.546,0.59 0.851,1.028 -0.426,0.457 -0.801,0.824 -1.25,1.176 z m -27.199,-0.176 c -0.317,-0.254 -0.652,-0.621 -1.027,-1.028 0.164,-2.316 0.277,-4.496 0.277,-6.574 0,-1.605 0.031,-2.371 0.699,-3.051 0.449,-0.445 0.984,-0.625 1.852,-0.625 l 0.125,0 0.5,0 c 1.769,0 3.277,0.504 4.797,1.477 l 1.828,1.176 c 0.359,0.23 0.972,0.426 1.847,0.426 l 0.676,1.125 0,0.023 -0.949,0 c -0.692,0 -1.352,0.141 -1.875,0.352 -1.731,0.687 -2.867,0.949 -3.602,0.949 -1.312,0 -2.285,-0.762 -2.375,-1.977 l 0.551,-1.449 0.102,0 0.324,1 -0.125,0.551 c 0.305,0.347 0.777,0.523 1.398,0.523 1.008,0 2.157,-0.277 3.426,-0.75 l -0.023,-0.051 c -2.254,-1.355 -4.055,-1.972 -5.828,-1.972 l -0.672,0 -0.153,0 c -0.14,0 -0.425,0.027 -0.699,0.125 -0.426,0.152 -0.824,0.472 -0.824,1.176 l 0,0.597 c 0,2.692 0,5.531 -0.176,7.926 l -0.074,0.051 z m -3.652,-0.028 c -0.239,-0.207 -0.446,-0.414 -0.598,-0.597 -0.219,-0.242 -0.324,-0.485 -0.324,-0.727 0,-0.402 0.078,-0.871 0.125,-1.375 0.172,-2.012 0.277,-3.926 0.297,-5.676 0,-0.566 -0.192,-0.953 -0.575,-1.171 -0.468,-0.254 -0.875,-0.301 -1.222,-0.301 l -0.227,0 -0.199,0 c -0.582,0 -1.027,0.14 -1.375,0.426 -0.262,0.207 -0.352,0.539 -0.352,0.921 0,0.243 0.098,0.696 0.25,1.25 l -0.074,0.102 -0.75,-0.551 -0.324,-1.199 c -0.164,-0.625 -1.035,-0.949 -1.875,-0.949 l -0.25,0 -0.25,0 c -0.481,0 -0.899,0.054 -1.152,0.273 -0.329,0.285 -0.422,0.809 -0.422,1.551 -0.012,1.695 -0.008,3.406 -0.051,5.102 l -0.125,0 c -0.297,-0.266 -0.602,-0.586 -0.875,-0.903 l 0.074,-0.824 c -1.883,-1.039 -3.062,-2.047 -3.5,-3 -0.242,-0.523 -0.351,-0.957 -0.351,-1.273 0,-0.875 0.828,-1.301 1.976,-1.301 0.852,0 1.551,0.226 2.176,0.5 0.414,-1.239 1.203,-1.528 2.273,-1.528 l 0.227,0 0.223,0 c 0.941,0 1.804,0.395 2.175,1.125 l 0.028,0 c 0.371,-0.82 1.175,-1.125 2.25,-1.125 l 0.273,0 0.149,0 c 0.429,0 0.949,0.11 1.375,0.329 0.503,0.25 0.773,0.714 1,1.273 0.32,0.656 0.425,1.57 0.425,2.75 0,1.215 -0.105,2.516 -0.148,3.773 0.262,0.188 0.504,0.391 0.699,0.579 -0.57,0.937 -0.898,1.789 -0.875,2.5 l -0.101,0.046 z m 18.125,0 c -0.239,-0.207 -0.446,-0.414 -0.598,-0.597 -0.219,-0.242 -0.324,-0.485 -0.324,-0.727 0,-0.402 0.078,-0.871 0.125,-1.375 0.172,-2.012 0.277,-3.926 0.297,-5.676 0,-0.566 -0.192,-0.953 -0.575,-1.171 -0.468,-0.254 -0.875,-0.301 -1.222,-0.301 l -0.25,0 -0.278,0 c -1.125,0 -1.906,0.344 -1.949,1.273 l -0.023,0 -0.403,-0.25 c -0.019,-0.207 -0.023,-0.418 -0.023,-0.625 0,-1.312 0.937,-1.801 2.351,-1.801 l 0.325,0 0.175,0 c 0.426,0 0.946,0.11 1.375,0.329 0.5,0.25 0.77,0.714 1,1.273 0.317,0.656 0.422,1.57 0.422,2.75 0,1.215 -0.105,2.516 -0.148,3.773 0.262,0.188 0.504,0.391 0.699,0.579 -0.566,0.937 -0.922,1.789 -0.898,2.5 l -0.075,0.046 -0.003,0 z m 46.402,0 c -0.242,-0.207 -0.449,-0.414 -0.602,-0.597 -0.218,-0.242 -0.324,-0.485 -0.324,-0.727 0,-0.402 0.055,-0.871 0.102,-1.375 0.172,-2.012 0.3,-3.926 0.324,-5.676 0,-0.566 -0.192,-0.953 -0.574,-1.171 -0.473,-0.254 -0.875,-0.301 -1.227,-0.301 l -0.25,0 -0.125,0 c -0.305,0 -0.617,0.097 -0.898,0.25 -0.493,0.304 -0.774,1.043 -0.926,1.875 -0.164,0.941 -0.258,1.457 -0.301,1.699 l -0.101,0 c -0.36,-0.578 -0.575,-1.211 -0.922,-1.477 -0.231,-0.183 -0.524,-0.273 -0.778,-0.273 -0.359,0 -0.672,0.051 -0.925,0.227 -0.227,0.171 -0.516,0.437 -0.797,0.699 l -0.102,0 -0.351,-1.403 c 0.57,-0.601 1.125,-1.183 1.375,-1.875 0,-0.414 -0.395,-0.933 -0.899,-1.523 -0.851,-1.008 -1.875,-1.551 -3,-1.551 -0.371,0 -0.742,0.145 -1.023,0.278 l -0.153,-0.352 c 1.051,-0.523 1.899,-0.875 2.852,-0.875 0.566,0 1.418,0.566 2.148,1.648 0.426,0.637 0.606,1.258 0.625,1.477 0.024,0.305 0.028,0.445 0.028,0.574 0,0.492 -0.02,0.942 -0.153,1.5 0.723,-0.043 1.297,0.508 1.625,1.176 l 0.051,0 0.274,-1.125 c 0.437,-1.773 0.976,-2.352 2.277,-2.352 l 0.199,0 0.176,0 c 0.426,0 0.949,0.11 1.375,0.329 0.504,0.25 0.746,0.714 0.973,1.273 0.32,0.656 0.453,1.57 0.453,2.75 0,1.215 -0.11,2.516 -0.153,3.773 0.262,0.188 0.504,0.391 0.7,0.579 -0.567,0.937 -0.922,1.789 -0.899,2.5 l -0.074,0.046 z m -42.727,-0.222 c -0.34,-0.309 -0.769,-0.758 -1.074,-1.153 0.176,-1.89 0.375,-4.796 0.375,-6.796 l 0,-1.079 c 0,-0.718 0.008,-1.507 -0.101,-2.199 l 0.125,-0.074 c 0.636,0.699 0.945,1.172 0.976,1.773 0.055,0.485 0.074,1.133 0.074,1.801 0,2.551 -0.07,5.317 -0.3,7.699 l -0.075,0.028 z m 46.375,0 c -0.34,-0.309 -0.742,-0.758 -1.05,-1.153 0.175,-1.89 0.375,-4.796 0.375,-6.796 l 0,-1.079 c 0,-0.718 -0.016,-1.507 -0.125,-2.199 l 0.152,-0.074 c 0.633,0.699 0.941,1.172 0.973,1.773 0.054,0.485 0.078,1.133 0.078,1.801 0,2.551 -0.071,5.317 -0.301,7.699 l -0.102,0.028 z m 14.102,-0.426 c -0.274,-0.285 -0.567,-0.656 -0.852,-1.051 0.438,-0.359 0.828,-0.699 1.278,-1.125 0.304,0.285 0.515,0.563 0.824,1 -0.426,0.461 -0.801,0.824 -1.25,1.176 z m -2.102,-0.148 c -0.273,-0.286 -0.59,-0.633 -0.875,-1.028 0.438,-0.359 0.852,-0.722 1.301,-1.148 0.305,0.285 0.52,0.562 0.824,1 -0.425,0.457 -0.8,0.824 -1.25,1.176 z m -20.074,-1.727 c -0.273,-0.285 -0.59,-0.633 -0.875,-1.023 0.438,-0.364 0.828,-0.727 1.274,-1.153 0.308,0.285 0.546,0.59 0.851,1.028 -0.426,0.457 -0.801,0.796 -1.25,1.148 z m -2.125,-0.125 c -0.273,-0.285 -0.566,-0.656 -0.851,-1.051 0.437,-0.359 0.828,-0.699 1.277,-1.125 0.305,0.285 0.519,0.563 0.824,1 -0.426,0.461 -0.801,0.824 -1.25,1.176 z m -24.699,-0.273 c -0.297,-0.266 -0.602,-0.586 -0.875,-0.903 l 0.074,-0.824 c -1.883,-1.039 -3.062,-2.047 -3.5,-3 -0.242,-0.523 -0.351,-0.957 -0.351,-1.273 0,-0.875 0.851,-1.301 2,-1.301 0.855,0 1.527,0.226 2.152,0.5 0.414,-1.239 1.203,-1.528 2.273,-1.528 l 0.227,0 0.176,0 c 1.179,0 1.867,0.602 2.172,1.301 l 0.05,0 c 0.875,-0.941 2.258,-1.558 3.102,-1.551 0.25,0 0.469,0.137 0.699,0.375 0.176,0.2 0.285,0.477 0.352,0.829 l 0.047,0 c 0.46,-0.735 1.066,-0.954 1.703,-0.954 l 0.199,0 0.574,0 c 1.707,0 3.258,0.524 4.727,1.477 l 1.824,1.176 c 0.359,0.23 0.98,0.422 1.898,0.398 l 0.575,1.153 -0.024,0.023 -0.898,0 c -0.692,0.012 -1.352,0.141 -1.875,0.352 -1.707,0.687 -2.844,0.949 -3.578,0.949 -1.313,0 -2.286,-0.762 -2.375,-1.977 l 0.527,-1.449 0.125,0 0.324,1 -0.125,0.551 c 0.305,0.347 0.75,0.523 1.375,0.523 1.008,0 2.18,-0.277 3.449,-0.75 l -0.023,-0.051 c -2.254,-1.355 -4.055,-1.972 -5.824,-1.972 l -0.676,0 -0.199,0 c -0.887,0 -1.461,0.386 -1.703,0.898 -0.59,1.246 -0.825,1.656 -1.098,2.051 -0.371,0.535 -0.766,0.727 -1.301,0.727 -0.734,0 -1.598,-0.711 -2.023,-2.079 -0.328,-1.039 -0.703,-1.597 -1.852,-1.597 l -0.324,0 -0.25,0 c -0.481,0 -0.899,0.054 -1.152,0.273 -0.329,0.285 -0.422,0.809 -0.422,1.551 -0.012,1.695 -0.008,3.406 -0.051,5.102 l -0.125,0 z m 48.848,-1.625 c -0.719,0 -1.415,-0.625 -1.797,-1.329 -0.219,-0.39 -0.403,-0.878 -0.403,-1.273 0,-0.809 0.164,-1.375 0.778,-1.801 0.48,-0.328 1.187,-0.472 2,-0.472 0.468,0 0.886,0.058 1.25,0.125 0.086,-0.211 0.148,-0.446 0.148,-0.653 0,-0.304 -0.683,-0.875 -1.351,-1.324 -1.211,-0.797 -2.481,-1.051 -3.5,-1.051 -2,0 -3.422,1.43 -3.422,3.727 0,0.558 0.156,1.152 0.375,1.801 l -0.477,0.125 c -0.406,-0.844 -0.648,-1.961 -0.648,-3.079 0,-2.668 1.968,-4.148 4.125,-4.148 1.867,0 3.527,0.898 4.597,1.852 0.364,0.328 0.746,0.812 0.801,1.171 0.133,0.473 0.176,1.008 0.176,1.579 0,0.918 -0.293,2.023 -0.5,2.648 -0.57,1.41 -1.266,2.102 -2.152,2.102 z m 7.351,-1.051 c -0.273,-0.449 -0.523,-0.906 -0.773,-1.375 0.48,-0.735 0.906,-1.528 1.297,-2.403 0.066,-0.183 0.152,-0.386 0.152,-0.574 0,-0.121 -0.012,-0.289 -0.102,-0.472 -0.722,-1.622 -2.308,-2.942 -3.847,-2.954 -0.485,0 -0.887,0.067 -1.227,0.176 l -0.101,-0.347 c 1.074,-0.547 1.992,-0.852 2.8,-0.852 0.547,0 1.133,0.301 1.801,1 0.852,1.027 1.375,2.051 1.375,3.023 l 0,1.204 c 0,0.937 -0.266,1.55 -0.551,2.097 l -0.773,1.477 -0.051,0 z m -99.676,-0.25 0.051,-2.699 c -0.644,-0.211 -1.156,-0.329 -1.625,-0.329 -0.742,0 -1.398,0.2 -1.398,0.625 0,0.582 1.027,1.395 2.972,2.403 z m 42.75,0 0.051,-2.699 c -0.644,-0.211 -1.156,-0.329 -1.625,-0.329 -0.742,0 -1.398,0.2 -1.398,0.625 0,0.582 1.027,1.395 2.972,2.403 z m 49.375,-0.125 c 0.809,0 1.453,-0.731 1.825,-1.977 -0.274,-0.054 -0.606,-0.051 -1,-0.051 -1.54,0 -2.149,0.543 -2.149,1 0,0.539 0.703,1.028 1.324,1.028 z m -42.675,-1.449 c 0.472,0 0.976,-0.356 1.402,-1 0.285,-0.438 0.551,-1.024 0.551,-1.454 0,-0.25 -0.196,-0.273 -0.403,-0.273 -0.382,0 -1.008,0.191 -1.5,0.477 -0.48,0.273 -1.191,0.843 -1.3,1.25 0.199,0.566 0.648,1 1.25,1 z m 8.527,-5.454 c -0.297,-0.336 -0.582,-0.73 -0.875,-1.125 0.437,-0.371 0.848,-0.718 1.273,-1.125 0.371,0.321 0.684,0.684 0.926,1.079 -0.426,0.445 -0.875,0.843 -1.324,1.171 z m -52.074,-0.421 c -0.274,-0.286 -0.567,-0.633 -0.852,-1.028 0.438,-0.359 0.828,-0.722 1.274,-1.148 0.308,0.285 0.519,0.562 0.828,1 -0.43,0.457 -0.805,0.824 -1.25,1.176 z m -2.102,-0.153 c -0.273,-0.285 -0.59,-0.629 -0.875,-1.023 0.438,-0.364 0.828,-0.723 1.274,-1.153 0.308,0.286 0.546,0.59 0.851,1.028 -0.426,0.457 -0.801,0.801 -1.25,1.148 z m 64.625,-14.426 c -0.297,-0.336 -0.605,-0.703 -0.898,-1.097 0.437,-0.371 0.871,-0.723 1.297,-1.125 0.375,0.316 0.66,0.679 0.902,1.074 -0.426,0.449 -0.852,0.82 -1.301,1.148 z m -29.051,-0.097 c -0.316,-0.254 -0.652,-0.621 -1.023,-1.028 0.164,-2.316 0.301,-4.496 0.301,-6.574 0,-1.605 0.007,-2.371 0.672,-3.051 0.449,-0.445 0.988,-0.625 1.851,-0.625 l 0.125,0 0.199,0 c 0.746,0 1.739,0.211 3.125,0.704 1.391,-0.493 2.481,-0.704 3.575,-0.704 l 0.328,0 0.172,0 c 0.429,0 0.925,0.11 1.351,0.329 0.504,0.25 0.77,0.714 1,1.273 0.317,0.656 0.449,1.57 0.449,2.75 0,1.215 -0.105,2.516 -0.148,3.773 0.262,0.188 0.476,0.391 0.676,0.579 -0.571,0.937 -0.899,1.789 -0.875,2.5 l -0.078,0.046 c -0.239,-0.207 -0.446,-0.414 -0.598,-0.597 -0.219,-0.242 -0.324,-0.485 -0.324,-0.727 0,-0.402 0.054,-0.871 0.097,-1.375 0.176,-2.012 0.305,-3.926 0.325,-5.676 0,-0.566 -0.192,-0.953 -0.575,-1.171 -0.468,-0.254 -0.875,-0.301 -1.222,-0.301 l -0.25,0 -0.352,0 c -0.734,0 -1.285,0.078 -1.699,0.199 0.437,0.754 0.723,1.543 0.723,2.551 0,0.535 -0.161,1.047 -0.422,1.551 -0.407,0.773 -0.883,1.199 -1.278,1.199 -0.394,0 -1.082,-0.387 -1.648,-1 -0.734,-0.766 -0.977,-1.746 -0.977,-2.574 0,-0.54 0.028,-1.086 0.375,-1.676 -0.48,-0.11 -1.148,-0.25 -1.75,-0.25 l -0.199,0 -0.148,0 c -0.145,0 -0.43,0.027 -0.703,0.125 -0.426,0.152 -0.825,0.472 -0.825,1.176 l 0,0.597 c 0,2.692 0,5.531 -0.175,7.926 l -0.075,0.051 z m -3.625,-0.028 c -0.238,-0.207 -0.445,-0.414 -0.597,-0.597 -0.219,-0.242 -0.352,-0.485 -0.352,-0.727 0,-0.402 0.082,-0.871 0.125,-1.375 0.176,-2.012 0.277,-3.926 0.301,-5.676 0,-0.566 -0.192,-0.953 -0.574,-1.171 -0.473,-0.254 -0.875,-0.301 -1.227,-0.301 l -0.226,0 -0.2,0 c -0.578,0 -0.988,0.14 -1.347,0.426 -0.285,0.218 -0.375,0.511 -0.375,0.949 0,0.347 0.129,0.875 0.25,1.222 l -0.078,0.102 -0.7,-0.551 -0.472,-1.551 c -0.45,-0.195 -0.95,-0.351 -1.453,-0.472 -1.211,-0.285 -2.469,-0.477 -3.75,-0.477 -1.368,0 -2.579,0.164 -3.473,0.699 -0.863,0.528 -1.426,1.411 -1.426,2.426 0,0.481 0.094,1.028 0.301,1.653 l -0.426,0.199 c -0.469,-0.887 -0.648,-1.766 -0.648,-2.653 0,-1.332 0.625,-2.351 1.597,-2.972 0.965,-0.614 2.254,-0.852 3.75,-0.852 1.356,0 2.981,0.328 4.25,0.699 0.789,0.231 1.34,0.485 1.7,0.704 0.418,-0.747 1.179,-0.954 2.25,-0.954 l 0.25,0 0.152,0 c 0.426,0 0.949,0.11 1.375,0.329 0.504,0.25 0.769,0.714 1,1.273 0.316,0.656 0.426,1.57 0.426,2.75 0,1.215 -0.082,2.516 -0.125,3.773 0.261,0.188 0.476,0.391 0.672,0.579 -0.567,0.937 -0.895,1.789 -0.875,2.5 l -0.075,0.046 z m 59.926,0 c -0.242,-0.207 -0.445,-0.414 -0.601,-0.597 -0.219,-0.242 -0.325,-0.485 -0.325,-0.727 0,-0.402 0.082,-0.871 0.125,-1.375 0.176,-2.012 0.254,-3.738 0.278,-5.051 0,-0.39 -0.004,-0.804 -0.028,-1.199 -0.25,-0.316 -0.738,-0.613 -1.972,-0.801 l -0.528,-1.125 0.102,-0.097 c 1.617,-0.121 3.426,-0.485 3.426,-0.903 -0.254,-0.336 -0.821,-0.757 -1.375,-1.097 -0.996,-0.602 -2.102,-0.824 -3.153,-0.824 -1.027,0 -1.855,0.46 -2.5,1.25 -0.457,0.656 -0.625,1.371 -0.625,2.148 0,0.754 0.192,1.5 0.477,2.301 l -0.426,0.176 c -0.449,-1.032 -0.824,-2.114 -0.824,-3.426 0,-1.172 0.406,-2.164 1.148,-2.949 0.614,-0.582 1.575,-1.028 2.625,-1.028 1.446,0 3.184,0.543 4.903,2.227 0.328,0.633 0.449,1.101 0.449,1.472 0,0.922 -0.211,1.297 -1.5,1.602 0.59,1.016 0.699,1.945 0.699,3.125 0,1.215 -0.082,2.492 -0.125,3.75 0.262,0.187 0.527,0.414 0.727,0.602 -0.571,0.937 -0.922,1.789 -0.903,2.5 l -0.074,0.046 z m -40.949,-0.222 c -0.34,-0.309 -0.77,-0.758 -1.074,-1.153 0.172,-1.89 0.398,-4.796 0.398,-6.796 l 0,-1.079 c 0,-0.718 -0.016,-1.507 -0.125,-2.199 l 0.149,-0.074 c 0.636,0.699 0.917,1.172 0.953,1.773 0.054,0.485 0.074,1.133 0.074,1.801 0,2.551 -0.047,5.317 -0.277,7.699 l -0.098,0.028 z m 7.848,0 c -0.336,-0.309 -0.766,-0.758 -1.075,-1.153 0.176,-1.89 0.403,-4.796 0.403,-6.796 l 0,-1.079 c 0,-0.718 -0.016,-1.507 -0.125,-2.199 l 0.148,-0.074 c 0.633,0.699 0.918,1.172 0.949,1.773 0.055,0.485 0.102,1.133 0.102,1.801 0,2.551 -0.07,5.317 -0.301,7.699 l -0.101,0.028 z m 37.578,0 c -0.34,-0.309 -0.746,-0.758 -1.051,-1.153 0.176,-1.89 0.375,-4.796 0.375,-6.796 l 0,-1.079 c 0,-0.718 0.008,-1.507 -0.102,-2.199 l 0.125,-0.074 c 0.637,0.699 0.942,1.172 0.977,1.773 0.055,0.485 0.074,1.133 0.074,1.801 0,2.551 -0.07,5.317 -0.301,7.699 l -0.097,0.028 z m -54.403,-0.551 c -0.273,-0.285 -0.566,-0.633 -0.847,-1.023 0.437,-0.364 0.824,-0.727 1.273,-1.153 0.305,0.285 0.52,0.59 0.824,1.028 -0.425,0.457 -0.8,0.796 -1.25,1.148 z m -2.097,-0.125 c -0.274,-0.285 -0.594,-0.656 -0.875,-1.051 0.437,-0.359 0.851,-0.699 1.297,-1.125 0.308,0.285 0.519,0.563 0.828,1 -0.43,0.461 -0.805,0.824 -1.25,1.176 z m 25.797,-2.398 c -0.282,-0.352 -0.524,-0.743 -0.774,-1.125 0.516,-1.872 0.926,-3.309 0.926,-4.051 0,-0.262 -0.32,-0.598 -0.727,-0.824 -0.511,-0.297 -1.195,-0.551 -1.773,-0.551 -1.051,0 -1.508,0.566 -1.551,1.472 l -0.426,-0.046 c -0.019,-0.274 -0.023,-0.528 -0.023,-0.801 0,-1.281 0.676,-2.028 1.898,-2.028 0.735,0 1.481,0.289 2.2,0.727 0.472,0.285 0.687,0.633 0.777,1.051 l 0.074,0 c 0.426,-1.367 1.242,-1.778 2.227,-1.778 l 0.199,0 0.25,0 c 0.84,0 1.785,0.25 3,0.75 1.433,-0.457 2.816,-0.75 3.723,-0.75 1.5,0 2.175,0.969 2.175,2.051 0,0.973 -0.398,1.629 -1.347,2.352 -1.27,0.961 -2.813,1.906 -3.852,2.926 l -0.074,0 c -0.098,-0.375 -0.168,-0.75 -0.199,-1.102 -0.43,-0.242 -0.77,-0.609 -1.078,-1.023 -0.481,-0.668 -0.7,-1.309 -0.7,-1.977 0,-0.516 0.075,-1.039 0.25,-1.5 -0.675,-0.262 -1.414,-0.324 -1.949,-0.324 l -0.199,0 -0.176,0 c -0.82,0 -1.527,0.566 -1.726,1.648 -0.293,1.61 -0.645,3.301 -1.047,4.875 l -0.075,0.028 -0.003,0 z m -24.2,-2.653 c 0.45,0 0.805,-0.418 1.102,-1 0.109,-0.219 0.25,-0.582 0.25,-0.972 0,-0.45 -0.973,-1.172 -1.727,-1.329 -0.941,0.286 -1.347,0.844 -1.5,1.477 0.2,0.809 1.024,1.824 1.875,1.824 z m 31.477,-0.301 c 0.469,0 1.125,-0.828 1.125,-1.75 0,-0.601 -1.192,-1.062 -1.727,-1.25 -0.797,0.407 -1.199,0.926 -1.199,1.278 0,0.566 0.981,1.722 1.801,1.722 z m 1.875,-0.921 c 1.379,-0.875 2.348,-1.641 2.348,-2.352 0,-0.285 -0.563,-0.5 -1.172,-0.5 -0.801,0 -1.438,0.102 -2.028,0.301 0.481,0.84 0.762,1.676 0.852,2.551 z m 21.426,-4.875 c -0.45,0 -0.899,-0.243 -1.328,-0.625 -0.317,-0.321 -0.5,-0.68 -0.5,-0.977 0,-0.469 0.335,-0.797 0.851,-0.949 l 0,-0.028 c -0.187,-0.062 -0.402,-0.253 -0.5,-0.375 l -0.273,-0.449 0.023,-0.023 c 0.797,0.359 1.758,0.625 2.852,0.801 0.152,0.218 0.293,0.476 0.422,0.75 l 0,0.023 c -0.372,-0.023 -0.75,-0.023 -1.125,-0.023 -0.645,0 -1.547,0.171 -1.547,0.699 0,0.164 0.367,0.375 0.75,0.375 0.129,0 0.273,-0.004 0.347,-0.028 0.121,-0.031 0.231,-0.183 0.352,-0.421 l 0.023,0 c 0.176,0.207 0.352,0.414 0.352,0.699 0,0.285 -0.262,0.551 -0.699,0.551 z m -74.875,-1.602 c -0.297,-0.34 -0.606,-0.73 -0.903,-1.125 0.438,-0.371 0.875,-0.719 1.301,-1.125 0.371,0.316 0.66,0.68 0.899,1.074 -0.426,0.449 -0.852,0.848 -1.297,1.176 z" /><path
       id="path40"
       style="fill:#000000;fill-opacity:1;fill-rule:nonzero;stroke:none"
       d="m 302.074,378.723 c -0.317,-0.25 -0.653,-0.617 -1.028,-1.023 0.165,-2.32 0.278,-4.496 0.278,-6.574 0,-1.61 0.008,-2.399 0.676,-3.074 0.445,-0.45 1.007,-0.625 1.875,-0.625 0.035,-0.004 0.082,0 0.125,0 l 0.199,0 c 0.742,0 1.734,0.207 3.125,0.699 1.387,-0.492 2.48,-0.699 3.574,-0.699 l 0.301,0 0.176,0 c 0.425,0 0.945,0.128 1.375,0.347 0.5,0.254 0.742,0.692 0.972,1.25 0.317,0.656 0.449,1.571 0.449,2.75 0,1.215 -0.105,2.543 -0.148,3.801 0.262,0.188 0.504,0.363 0.699,0.551 -0.566,0.941 -0.922,1.789 -0.898,2.5 l -0.074,0.074 c -0.243,-0.207 -0.45,-0.414 -0.602,-0.602 -0.219,-0.238 -0.324,-0.507 -0.324,-0.75 0,-0.402 0.082,-0.843 0.125,-1.347 0.176,-2.012 0.277,-3.926 0.301,-5.676 0,-0.57 -0.196,-0.98 -0.579,-1.199 -0.468,-0.254 -0.875,-0.301 -1.222,-0.301 l -0.25,0 -0.352,0 c -0.73,0 -1.285,0.078 -1.699,0.199 0.437,0.754 0.727,1.543 0.727,2.551 0,0.535 -0.141,1.047 -0.403,1.551 -0.402,0.777 -0.879,1.222 -1.273,1.222 -0.395,0 -1.082,-0.41 -1.653,-1.023 -0.73,-0.766 -1,-1.742 -1,-2.574 0,-0.535 0.051,-1.059 0.403,-1.653 -0.481,-0.109 -1.176,-0.273 -1.778,-0.273 l -0.171,0 -0.153,0 c -0.14,0 -0.426,0.027 -0.699,0.125 -0.426,0.152 -0.824,0.477 -0.824,1.176 l 0,0.625 c 0,2.691 0,5.527 -0.176,7.926 l -0.074,0.046 z m -3.653,-0.023 c -0.238,-0.207 -0.445,-0.414 -0.597,-0.602 -0.219,-0.238 -0.324,-0.507 -0.324,-0.75 0,-0.402 0.054,-0.843 0.097,-1.347 0.176,-2.012 0.305,-3.926 0.324,-5.676 0,-0.57 -0.191,-0.98 -0.574,-1.199 -0.469,-0.254 -0.875,-0.301 -1.222,-0.301 l -0.25,0 -0.204,0 c -0.578,0 -0.988,0.141 -1.347,0.426 -0.285,0.219 -0.375,0.535 -0.375,0.972 0,0.352 0.129,0.875 0.25,1.227 l -0.074,0.074 -0.704,-0.551 -0.472,-1.523 c -0.449,-0.195 -0.949,-0.355 -1.449,-0.477 -1.215,-0.281 -2.446,-0.5 -3.727,-0.5 -1.367,0 -2.578,0.165 -3.477,0.704 -0.863,0.523 -1.449,1.406 -1.449,2.421 0,0.485 0.117,1.055 0.324,1.676 l -0.449,0.176 c -0.469,-0.887 -0.648,-1.766 -0.648,-2.648 0,-1.336 0.652,-2.329 1.625,-2.954 0.961,-0.609 2.25,-0.847 3.75,-0.847 1.355,0 2.957,0.301 4.222,0.676 0.79,0.226 1.368,0.503 1.727,0.722 0.414,-0.742 1.152,-0.972 2.227,-0.972 l 0.25,0 0.171,0 c 0.43,0 0.926,0.128 1.352,0.347 0.504,0.254 0.77,0.692 1,1.25 0.316,0.656 0.449,1.571 0.449,2.75 0,1.215 -0.105,2.543 -0.148,3.801 0.262,0.188 0.476,0.363 0.676,0.551 -0.571,0.941 -0.899,1.789 -0.875,2.5 l -0.079,0.074 z m 40.75,0 c -0.238,-0.207 -0.445,-0.414 -0.597,-0.602 -0.219,-0.238 -0.352,-0.507 -0.352,-0.75 0,-0.402 0.082,-0.843 0.125,-1.347 0.176,-2.012 0.305,-3.926 0.324,-5.676 0,-0.57 -0.214,-0.98 -0.597,-1.199 -0.473,-0.254 -0.875,-0.301 -1.227,-0.301 l -0.222,0 -0.204,0 c -0.578,0 -1,0.164 -1.347,0.449 -0.262,0.207 -0.375,0.52 -0.375,0.903 0,0.238 0.097,0.714 0.25,1.273 l -0.074,0.074 -0.75,-0.551 -0.329,-1.171 c -0.164,-0.625 -1.031,-0.977 -1.875,-0.977 l -0.25,0 -0.171,0 c -0.821,0 -1.532,0.594 -1.727,1.676 -0.297,1.605 -0.645,3.273 -1.051,4.847 l -0.051,0.051 c -0.281,-0.347 -0.523,-0.742 -0.773,-1.125 0.516,-1.871 0.898,-3.332 0.898,-4.074 0,-0.262 -0.32,-0.594 -0.722,-0.824 -0.516,-0.297 -1.196,-0.551 -1.778,-0.551 -1.046,0 -1.503,0.566 -1.546,1.477 l -0.426,-0.028 c -0.024,-0.273 -0.028,-0.551 -0.028,-0.824 0,-1.281 0.676,-2.023 1.903,-2.023 0.73,0 1.476,0.312 2.199,0.75 0.469,0.281 0.711,0.632 0.801,1.046 l 0.051,0 c 0.425,-1.367 1.238,-1.796 2.222,-1.796 l 0.199,0 0.227,0 c 0.941,0 1.805,0.39 2.176,1.125 l 0.051,0 c 0.371,-0.821 1.175,-1.125 2.25,-1.125 l 0.25,0 0.148,0 c 0.426,0 0.949,0.128 1.375,0.347 0.504,0.254 0.77,0.692 1,1.25 0.316,0.656 0.426,1.571 0.426,2.75 0,1.215 -0.082,2.543 -0.125,3.801 0.262,0.188 0.476,0.363 0.676,0.551 -0.571,0.941 -0.899,1.789 -0.875,2.5 l -0.079,0.074 z m -21.773,-0.227 c -0.34,-0.304 -0.742,-0.753 -1.051,-1.148 0.176,-1.891 0.375,-4.824 0.375,-6.824 l 0,-1.051 c 0,-0.723 0.012,-1.512 -0.097,-2.199 l 0.125,-0.074 c 0.632,0.699 0.941,1.148 0.972,1.75 0.055,0.48 0.074,1.156 0.074,1.824 0,2.547 -0.07,5.316 -0.296,7.699 l -0.102,0.023 z m -8.949,-0.546 c -0.274,-0.286 -0.59,-0.657 -0.875,-1.051 0.437,-0.363 0.824,-0.699 1.273,-1.125 0.309,0.285 0.543,0.562 0.852,1 -0.426,0.457 -0.801,0.824 -1.25,1.176 z m -2.125,-0.153 c -0.274,-0.285 -0.567,-0.629 -0.852,-1.023 0.438,-0.363 0.828,-0.723 1.278,-1.153 0.304,0.286 0.515,0.59 0.824,1.028 -0.426,0.457 -0.801,0.801 -1.25,1.148 z m 43.875,-1.051 c -0.274,-0.281 -0.59,-0.656 -0.875,-1.046 0.437,-0.364 0.824,-0.7 1.273,-1.125 0.309,0.281 0.543,0.562 0.852,1 -0.426,0.457 -0.801,0.824 -1.25,1.171 z m 18.449,0 c -0.273,-0.281 -0.566,-0.656 -0.852,-1.046 0.438,-0.364 0.829,-0.7 1.278,-1.125 0.304,0.281 0.519,0.562 0.824,1 -0.426,0.457 -0.801,0.824 -1.25,1.171 z m -20.574,-0.148 c -0.274,-0.285 -0.567,-0.633 -0.852,-1.023 0.438,-0.364 0.828,-0.727 1.278,-1.153 0.304,0.285 0.515,0.563 0.824,1 -0.426,0.461 -0.801,0.824 -1.25,1.176 z m 18.472,0 c -0.273,-0.285 -0.589,-0.633 -0.875,-1.023 0.438,-0.364 0.829,-0.727 1.278,-1.153 0.304,0.285 0.543,0.563 0.847,1 -0.425,0.461 -0.8,0.824 -1.25,1.176 z m -16.375,-3.102 c -0.281,-0.347 -0.562,-0.777 -0.824,-1.25 0.571,-1.113 1.102,-2.183 1.102,-2.699 0,-0.183 -0.242,-0.332 -0.625,-0.472 -0.481,-0.176 -1.223,-0.227 -2.153,-0.227 l -0.171,0 -0.977,0 c -0.305,2.242 -1.344,3.676 -2.352,3.676 -0.687,0 -1.281,-0.449 -1.699,-1.051 -0.316,-0.449 -0.551,-1.031 -0.551,-1.773 0,-1.532 1.145,-2.25 3.375,-2.25 l 0.528,0 c -0.145,-0.559 -0.5,-0.993 -1.028,-1.528 -0.937,-0.961 -1.945,-1.5 -3.046,-1.5 -0.657,0 -1.176,0.172 -1.602,0.403 l -0.176,-0.375 c 1.051,-0.649 2.156,-1.102 3.153,-1.102 0.578,0 1.781,0.594 2.625,1.875 0.457,0.688 0.769,1.535 0.824,2.227 l 0.926,0 0.125,0 c 1.671,0 2.457,0.179 2.949,0.671 0.437,0.582 0.75,1.207 0.75,2.028 0,1.082 -0.598,2.465 -1.102,3.347 l -0.051,0 z m 18.477,0 c -0.285,-0.347 -0.563,-0.777 -0.824,-1.25 0.566,-1.113 1.097,-2.183 1.097,-2.699 0,-0.183 -0.242,-0.332 -0.625,-0.472 -0.48,-0.176 -1.218,-0.227 -2.148,-0.227 l -0.199,0 -0.176,0 c -0.613,0 -1.281,0.285 -1.602,0.699 -0.457,0.582 -0.777,1.125 -1.324,1.727 -0.566,0.633 -1.121,1.164 -1.722,1.625 l -0.102,0 c -0.57,-0.625 -1.34,-1.305 -2.148,-2.028 -0.493,-0.425 -0.942,-1.097 -1.125,-1.875 -0.122,-0.468 -0.176,-0.875 -0.176,-1.324 0,-0.797 0.41,-2.113 0.926,-3.523 0.48,-1.313 0.945,-2.692 1.199,-3.852 l 0.148,0 c 0.11,0.461 0.227,1.086 0.227,1.602 0,0.558 -0.586,2.363 -1.176,4.199 -0.371,1.172 -0.523,1.93 -0.523,2.398 0,0.438 0.398,1.024 1.273,1.704 0.031,-1.883 1.266,-3.403 2.773,-3.403 0.711,0 1.313,0.821 1.403,1.653 l 0.074,0.023 c 0.48,-0.68 0.973,-1.023 1.824,-1.023 l 0.227,0 0.125,0 c 1.672,0 2.457,0.179 2.949,0.671 0.438,0.582 0.773,1.207 0.773,2.028 0,1.082 -0.593,2.465 -1.097,3.347 l -0.051,0 z m -60.699,-0.75 c 0.449,0 0.777,-0.394 1.074,-0.972 0.109,-0.219 0.25,-0.606 0.25,-1 0,-0.449 -0.969,-1.149 -1.727,-1.301 -0.937,0.285 -1.343,0.816 -1.5,1.449 0.2,0.809 1.047,1.824 1.903,1.824 z M 361,371.376 c 0.949,-0.735 1.433,-1.305 1.847,-1.852 0.285,-0.371 0.403,-0.676 0.403,-0.875 0,-0.23 -0.344,-0.398 -0.727,-0.398 -0.602,0 -1.031,0.265 -1.352,0.551 -0.492,0.437 -0.824,1.039 -0.824,1.773 0,0.316 0.477,0.625 0.653,0.801 z m -17.153,-0.324 c 0.406,0 0.801,-0.235 1.153,-0.625 0.371,-0.407 0.652,-0.989 0.773,-1.602 -0.711,0 -1.375,0.012 -1.977,0.176 -0.675,0.195 -1.199,0.515 -1.199,1.074 0,0.438 0.637,0.977 1.25,0.977 z m -9,-5.653 c -0.273,-0.285 -0.566,-0.656 -0.847,-1.051 0.437,-0.359 0.824,-0.695 1.273,-1.125 0.305,0.286 0.52,0.563 0.824,1 -0.426,0.461 -0.801,0.829 -1.25,1.176 z m -2.097,-0.148 c -0.274,-0.285 -0.594,-0.656 -0.875,-1.051 0.437,-0.359 0.824,-0.699 1.273,-1.125 0.305,0.285 0.543,0.563 0.852,1 -0.43,0.461 -0.805,0.824 -1.25,1.176 z m -44.926,-0.199 c -0.297,-0.34 -0.582,-0.735 -0.875,-1.125 0.437,-0.375 0.847,-0.723 1.273,-1.125 0.371,0.316 0.684,0.679 0.926,1.074 -0.426,0.449 -0.875,0.847 -1.324,1.176 z" /><g
       transform="matrix(-1,0,0,-1,786.699,475.20001)"
       id="g42"><path
         id="path44"
         style="fill:none;stroke:#000000;stroke-width:4;stroke-linecap:butt;stroke-linejoin:miter;stroke-miterlimit:4;stroke-opacity:1;stroke-dasharray:none"
         d="M 271.715,20.906 418,78.051 c 0,0 4.625,-14.594 20.57,-26.289 C 454.52,40.07 490,23.191 490,23.191" /></g><g
       transform="matrix(-1,0,0,-1,786.699,475.20001)"
       id="g46"><path
         id="path48"
         style="fill:none;stroke:#000000;stroke-width:4;stroke-linecap:butt;stroke-linejoin:miter;stroke-miterlimit:4;stroke-opacity:1;stroke-dasharray:none"
         d="m 471.715,16.336 20.57,8 -11.43,17.141" /></g><g
       transform="matrix(-1,0,0,-1,786.699,475.20001)"
       id="g50"><path
         id="path52"
         style="fill:none;stroke:#999999;stroke-width:4;stroke-linecap:butt;stroke-linejoin:miter;stroke-miterlimit:4;stroke-opacity:1;stroke-dasharray:none"
         d="m 606.57,20.906 c 0,0 77.715,20.571 121.145,85.715 43.43,65.141 43.43,139.43 43.43,139.43" /></g><g
       transform="matrix(-1,0,0,-1,786.699,475.20001)"
       id="g54"><path
         id="path56"
         style="fill:none;stroke:#999999;stroke-width:4;stroke-linecap:butt;stroke-linejoin:miter;stroke-miterlimit:4;stroke-opacity:1;stroke-dasharray:none"
         d="M 784.488,230.707 772.254,249.078 757.969,234.23" /></g><g
       transform="matrix(-1,0,0,-1,786.699,475.20001)"
       id="g58"><path
         id="path60"
         style="fill:none;stroke:#999999;stroke-width:4;stroke-linecap:butt;stroke-linejoin:miter;stroke-miterlimit:4;stroke-opacity:1;stroke-dasharray:none"
         d="m 773.43,287.191 c 0,0 -19.516,85.032 -78.86,128 -59.34,42.969 -86.855,38.86 -86.855,38.86" /></g><g
       transform="matrix(-1,0,0,-1,786.699,475.20001)"
       id="g62"><path
         id="path64"
         style="fill:none;stroke:#999999;stroke-width:4;stroke-linecap:butt;stroke-linejoin:miter;stroke-miterlimit:4;stroke-opacity:1;stroke-dasharray:none"
         d="M 626.613,464.797 606.754,455.168 619.523,439" /></g><g
       transform="matrix(-1,0,0,-1,786.699,475.20001)"
       id="g66"><path
         id="path68"
         style="fill:none;stroke:#999999;stroke-width:4;stroke-linecap:butt;stroke-linejoin:miter;stroke-miterlimit:4;stroke-opacity:1;stroke-dasharray:none"
         d="m 512.855,462.051 c 0,0 -97.671,-21.926 -141.71,-105.145 C 332.5,278.25 329.762,191.395 386,122.621" /></g><g
       transform="matrix(-1,0,0,-1,786.699,475.20001)"
       id="g70"><path
         id="path72"
         style="fill:none;stroke:#999999;stroke-width:4;stroke-linecap:butt;stroke-linejoin:miter;stroke-miterlimit:4;stroke-opacity:1;stroke-dasharray:none"
         d="m 366.93,121.008 22.05,-1.02 -3.503,20.305" /></g><g
       transform="matrix(-1,0,0,-1,786.699,475.20001)"
       id="g74"><path
         id="path76"
         style="fill:none;stroke:#000000;stroke-width:4;stroke-linecap:butt;stroke-linejoin:miter;stroke-miterlimit:4;stroke-opacity:1;stroke-dasharray:none"
         d="m 534.379,83.809 2.016,21.98 -20.442,-2.582" /></g><g
       transform="matrix(-1,0,0,-1,786.699,475.20001)"
       id="g78"><path
         id="path80"
         style="fill:none;stroke:#000000;stroke-width:4;stroke-linecap:butt;stroke-linejoin:miter;stroke-miterlimit:4;stroke-opacity:1;stroke-dasharray:none"
         d="m 519.559,236.148 -21.586,-4.605 8.539,-18.75" /></g><path
       id="path82"
       style="fill:#000000;fill-opacity:1;fill-rule:nonzero;stroke:none"
       d="m 729.324,404.927 c -0.273,-0.286 -0.59,-0.633 -0.875,-1.028 0.437,-0.359 0.852,-0.722 1.301,-1.148 0.304,0.285 0.519,0.586 0.824,1.023 -0.426,0.461 -0.801,0.801 -1.25,1.153 z m -2.102,-0.125 c -0.273,-0.286 -0.589,-0.657 -0.875,-1.051 0.438,-0.363 0.829,-0.699 1.278,-1.125 0.304,0.285 0.519,0.562 0.824,1 -0.426,0.457 -0.777,0.824 -1.227,1.176 z m -54.347,-0.653 c -0.285,-0.347 -0.524,-0.742 -0.778,-1.125 0.516,-1.871 0.903,-3.304 0.903,-4.051 0,-0.261 -0.297,-0.593 -0.699,-0.824 -0.516,-0.293 -1.196,-0.551 -1.778,-0.551 -1.051,0 -1.504,0.571 -1.551,1.477 l -0.421,-0.051 c -0.024,-0.273 -0.051,-0.527 -0.051,-0.801 0,-1.277 0.699,-2.023 1.926,-2.023 0.73,0 1.476,0.289 2.199,0.727 0.469,0.281 0.687,0.632 0.773,1.046 l 0.051,0 c 0.426,-1.367 1.242,-1.773 2.227,-1.773 l 0.222,0 0.125,0 c 1.676,0 2.457,0.156 2.949,0.648 0.438,0.582 0.75,1.231 0.75,2.051 0,1.082 -0.57,2.442 -1.074,3.324 l -0.074,0 c -0.285,-0.347 -0.539,-0.753 -0.801,-1.222 0.571,-1.117 1.074,-2.211 1.074,-2.727 0,-0.183 -0.242,-0.332 -0.625,-0.472 -0.48,-0.176 -1.218,-0.204 -2.148,-0.204 l -0.176,0 -0.199,0 c -0.82,0 -1.527,0.571 -1.727,1.653 -0.293,1.605 -0.617,3.301 -1.023,4.875 l -0.074,0.023 z m 13.25,0 c -0.285,-0.347 -0.524,-0.742 -0.778,-1.125 0.516,-1.871 0.903,-3.304 0.903,-4.051 0,-0.261 -0.297,-0.593 -0.699,-0.824 -0.516,-0.293 -1.223,-0.551 -1.801,-0.551 -1.051,0 -1.481,0.571 -1.528,1.477 l -0.421,-0.051 c -0.024,-0.273 -0.051,-0.527 -0.051,-0.801 0,-1.277 0.676,-2.023 1.898,-2.023 0.735,0 1.481,0.289 2.199,0.727 0.473,0.281 0.715,0.632 0.801,1.046 l 0.051,0 c 0.426,-1.367 1.242,-1.773 2.227,-1.773 l 0.222,0 0.551,0 c 1.707,0 3.285,0.523 4.75,1.477 l 1.824,1.171 c 0.363,0.231 0.981,0.422 1.903,0.403 l 0.574,1.148 -0.051,0.028 -0.875,0 c -0.688,0.007 -1.352,0.14 -1.875,0.347 -1.707,0.692 -2.844,0.949 -3.574,0.949 -1.313,0 -2.289,-0.757 -2.375,-1.972 l 0.523,-1.449 0.125,0 0.324,1 -0.148,0.546 c 0.305,0.352 0.777,0.528 1.398,0.528 1.008,0 2.157,-0.281 3.426,-0.75 l 0,-0.051 c -2.254,-1.355 -4.078,-1.977 -5.847,-1.977 l -0.653,0 -0.199,0 c -0.82,0 -1.527,0.571 -1.727,1.653 -0.293,1.605 -0.644,3.301 -1.046,4.875 l -0.051,0.023 z m 30.097,-2.426 c -1.312,0 -2.285,-0.757 -2.375,-1.972 l 0.551,-1.449 0.102,0 0.324,1 -0.125,0.546 c 0.305,0.352 0.777,0.528 1.398,0.528 1.008,0 2.157,-0.281 3.426,-0.75 l 0,-0.051 c -2.254,-1.355 -4.078,-1.977 -5.847,-1.977 l -0.676,0 -0.176,0 c -0.613,0 -1.281,0.262 -1.602,0.676 -0.457,0.582 -0.777,1.125 -1.324,1.727 -0.566,0.633 -1.121,1.191 -1.722,1.648 l -0.102,0 c -0.57,-0.621 -1.34,-1.301 -2.148,-2.023 -0.493,-0.426 -0.914,-1.098 -1.102,-1.875 -0.121,-0.473 -0.199,-0.903 -0.199,-1.352 0,-0.797 0.41,-2.09 0.926,-3.5 0.48,-1.312 0.945,-2.715 1.199,-3.875 l 0.148,0 c 0.11,0.461 0.227,1.114 0.227,1.625 0,0.559 -0.586,2.364 -1.176,4.199 -0.371,1.172 -0.523,1.907 -0.523,2.375 0,0.438 0.398,1.024 1.273,1.704 0.031,-1.883 1.266,-3.375 2.773,-3.375 0.711,0 1.313,0.816 1.403,1.648 l 0.074,0.023 c 0.48,-0.675 0.973,-1.023 1.824,-1.023 l 0.227,0 0.574,0 c 1.707,0 3.258,0.523 4.727,1.477 l 1.824,1.171 c 0.359,0.231 0.98,0.422 1.898,0.403 l 0.574,1.148 -0.023,0.028 -0.875,0 c -0.687,0.007 -1.352,0.14 -1.875,0.347 -1.707,0.692 -2.867,0.949 -3.602,0.949 z m 19.25,-0.222 c -0.523,0 -0.968,-0.278 -1.375,-0.653 -0.402,-0.437 -0.679,-0.886 -0.796,-1.324 -0.395,-1.379 -1.043,-1.926 -1.852,-1.926 l -0.227,0 -0.148,0 c -0.305,0 -0.59,0.098 -0.875,0.25 -0.492,0.309 -0.797,1.047 -0.949,1.875 -0.164,0.942 -0.231,1.461 -0.278,1.704 l -0.125,0 c -0.359,-0.582 -0.574,-1.215 -0.921,-1.477 -0.231,-0.187 -0.524,-0.273 -0.778,-0.273 -0.359,0 -0.648,0.046 -0.898,0.222 -0.231,0.176 -0.516,0.438 -0.801,0.699 l -0.102,0 -0.375,-1.398 c 0.571,-0.602 1.125,-1.187 1.375,-1.875 0,-0.414 -0.371,-0.934 -0.875,-1.523 -0.851,-1.008 -1.871,-1.551 -3,-1.551 -0.371,0 -0.738,0.144 -1.023,0.273 l -0.176,-0.347 c 1.051,-0.528 1.926,-0.875 2.875,-0.875 0.571,0 1.418,0.566 2.153,1.648 0.425,0.633 0.601,1.258 0.625,1.477 0.019,0.304 0.023,0.441 0.023,0.574 0,0.492 -0.043,0.941 -0.176,1.5 0.723,-0.043 1.297,0.508 1.625,1.176 l 0.051,0 0.273,-1.125 c 0.438,-1.774 1,-2.352 2.301,-2.352 l 0.199,0 0.176,0 c 0.985,0 1.617,0.461 1.903,1.426 l 0.074,0 c 1.082,-0.801 2.168,-1.301 3.25,-1.301 0.523,0 0.918,0.43 1.148,1.426 -0.176,1.914 -0.965,3.75 -2.301,3.75 z m -0.273,-1.278 c 0.687,0 1.406,-0.722 1.727,-2.375 -0.047,-0.097 -0.188,-0.125 -0.352,-0.125 -0.438,0 -0.883,0.125 -1.301,0.301 -0.656,0.274 -1.195,0.633 -1.523,1.125 0.316,0.723 0.824,1.074 1.449,1.074 z m -27.148,-0.097 c 0.949,-0.735 1.433,-1.305 1.847,-1.852 0.285,-0.371 0.403,-0.652 0.403,-0.847 0,-0.231 -0.344,-0.403 -0.727,-0.403 -0.602,0 -1.031,0.242 -1.352,0.528 -0.492,0.437 -0.824,1.039 -0.824,1.773 0,0.316 0.477,0.625 0.653,0.801 z m -14.903,-5.551 c -0.293,-0.34 -0.605,-0.73 -0.898,-1.125 0.437,-0.371 0.871,-0.719 1.301,-1.125 0.371,0.316 0.656,0.68 0.898,1.074 -0.426,0.449 -0.852,0.848 -1.301,1.176 z m 23.852,0 c -0.297,-0.34 -0.582,-0.73 -0.875,-1.125 0.437,-0.371 0.871,-0.719 1.301,-1.125 0.371,0.316 0.656,0.68 0.898,1.074 -0.426,0.449 -0.875,0.848 -1.324,1.176 z m -38.153,-0.426 c -0.273,-0.285 -0.589,-0.629 -0.875,-1.023 0.438,-0.363 0.852,-0.723 1.301,-1.153 0.309,0.286 0.52,0.563 0.824,1 -0.425,0.461 -0.8,0.829 -1.25,1.176 z m -2.125,-0.148 c -0.273,-0.285 -0.562,-0.633 -0.847,-1.028 0.437,-0.359 0.824,-0.722 1.273,-1.148 0.309,0.285 0.52,0.586 0.824,1.023 -0.425,0.461 -0.8,0.801 -1.25,1.153 z" /><path
       id="path84"
       style="fill:#000000;fill-opacity:1;fill-rule:nonzero;stroke:none"
       d="m 534.245,349.302 c -0.273,-0.286 -0.59,-0.633 -0.875,-1.028 0.438,-0.359 0.828,-0.722 1.278,-1.148 0.304,0.285 0.543,0.562 0.847,1 -0.426,0.457 -0.801,0.824 -1.25,1.176 z m -2.125,-0.125 c -0.273,-0.286 -0.566,-0.657 -0.847,-1.051 0.437,-0.363 0.824,-0.723 1.273,-1.153 0.305,0.286 0.52,0.59 0.824,1.028 -0.426,0.457 -0.801,0.824 -1.25,1.176 z m 31.727,-2.176 c -0.274,-0.285 -0.59,-0.633 -0.875,-1.028 0.437,-0.359 0.851,-0.722 1.301,-1.148 0.304,0.285 0.515,0.586 0.824,1.023 -0.426,0.461 -0.801,0.801 -1.25,1.153 z m 34.625,0 c -0.274,-0.285 -0.567,-0.633 -0.852,-1.028 0.438,-0.359 0.828,-0.722 1.278,-1.148 0.304,0.285 0.515,0.586 0.824,1.023 -0.426,0.461 -0.801,0.801 -1.25,1.153 z m -36.727,-0.125 c -0.273,-0.285 -0.59,-0.656 -0.875,-1.051 0.438,-0.359 0.828,-0.699 1.278,-1.125 0.304,0.285 0.515,0.563 0.824,1 -0.426,0.461 -0.778,0.824 -1.227,1.176 z m 34.625,0 c -0.273,-0.285 -0.59,-0.656 -0.875,-1.051 0.438,-0.359 0.828,-0.699 1.278,-1.125 0.304,0.285 0.543,0.563 0.847,1 -0.426,0.461 -0.801,0.824 -1.25,1.176 z m -61.824,-0.824 c -0.297,-0.266 -0.578,-0.586 -0.852,-0.903 l 0.051,-0.824 c -1.879,-1.039 -3.062,-2.047 -3.5,-3 -0.238,-0.523 -0.347,-0.957 -0.347,-1.273 0,-0.875 0.851,-1.301 2,-1.301 0.851,0 1.55,0.226 2.171,0.5 0.418,-1.238 1.18,-1.528 2.25,-1.528 l 0.25,0 0.153,0 c 1.179,0 1.867,0.602 2.176,1.301 l 0.046,0 c 0.875,-0.941 2.258,-1.558 3.102,-1.551 0.25,0 0.496,0.137 0.727,0.375 0.171,0.2 0.281,0.477 0.347,0.829 l 0.051,0 c 0.461,-0.735 1.039,-0.954 1.676,-0.954 l 0.199,0 0.574,0 c 1.707,0 3.285,0.524 4.75,1.477 l 1.824,1.176 c 0.364,0.23 0.957,0.422 1.875,0.398 l 0.579,1.153 -0.028,0.023 -0.875,0 c -0.687,0.012 -1.347,0.141 -1.875,0.352 -1.707,0.687 -2.867,0.949 -3.597,0.949 -1.313,0 -2.29,-0.762 -2.375,-1.977 l 0.546,-1.449 0.102,0 0.324,1 -0.125,0.551 c 0.309,0.347 0.778,0.523 1.403,0.523 1.003,0 2.156,-0.277 3.421,-0.75 l 0,-0.051 c -2.25,-1.355 -4.078,-1.972 -5.847,-1.972 l -0.676,0 -0.176,0 c -0.887,0 -1.457,0.387 -1.699,0.898 -0.59,1.246 -0.828,1.656 -1.102,2.051 -0.371,0.535 -0.789,0.727 -1.324,0.727 -0.73,0 -1.597,-0.711 -2.023,-2.079 -0.328,-1.039 -0.676,-1.597 -1.824,-1.597 l -0.329,0 -0.273,0 c -0.48,0 -0.898,0.054 -1.148,0.273 -0.329,0.285 -0.403,0.809 -0.403,1.551 -0.012,1.695 -0.031,3.406 -0.074,5.102 l -0.125,0 z m 41.199,-0.375 c -0.285,-0.352 -0.523,-0.743 -0.773,-1.125 0.511,-1.872 0.898,-3.309 0.898,-4.051 0,-0.262 -0.293,-0.598 -0.699,-0.824 -0.516,-0.297 -1.219,-0.551 -1.801,-0.551 -1.051,0 -1.48,0.566 -1.523,1.472 l -0.426,-0.046 c -0.023,-0.274 -0.051,-0.528 -0.051,-0.801 0,-1.281 0.676,-2.028 1.903,-2.028 0.73,0 1.476,0.29 2.199,0.727 0.469,0.285 0.711,0.633 0.801,1.051 l 0.046,0 c 0.43,-1.367 1.243,-1.778 2.227,-1.778 l 0.227,0 0.546,0 c 1.707,0 3.286,0.524 4.75,1.477 l 1.829,1.176 c 0.359,0.23 0.98,0.422 1.898,0.398 l 0.574,1.153 -0.051,0.023 -0.875,0 c -0.687,0.012 -1.347,0.141 -1.875,0.352 -1.703,0.687 -2.839,0.949 -3.574,0.949 -1.312,0 -2.285,-0.762 -2.375,-1.977 l 0.528,-1.449 0.125,0 0.324,1 -0.153,0.551 c 0.309,0.347 0.778,0.523 1.403,0.523 1.004,0 2.156,-0.277 3.426,-0.75 l 0,-0.051 c -2.254,-1.355 -4.079,-1.972 -5.852,-1.972 l -0.648,0 -0.204,0 c -0.82,0 -1.527,0.566 -1.722,1.648 -0.297,1.61 -0.621,3.301 -1.028,4.875 l -0.074,0.028 z m -11.898,-1.926 c -0.285,-0.352 -0.563,-0.754 -0.824,-1.227 0.566,-1.113 1.074,-2.211 1.074,-2.722 0,-0.188 -0.219,-0.336 -0.602,-0.477 -0.48,-0.176 -1.246,-0.199 -2.176,-0.199 l -0.171,0 -0.204,0 c -1.265,0 -1.824,0.851 -2.449,2.347 l -0.074,0 c -0.188,-0.359 -0.406,-0.769 -0.625,-1.273 0.25,-0.523 0.547,-1.023 0.977,-1.625 0.14,-0.187 0.218,-0.367 0.273,-0.5 -0.242,-1.617 -2.16,-3.273 -3.625,-3.273 -0.559,0 -0.953,0.105 -1.25,0.25 l -0.176,-0.375 c 0.91,-0.485 1.93,-0.852 2.75,-0.852 0.809,0 1.738,0.656 2.602,2.176 0.293,0.523 0.449,1.183 0.449,1.699 0,0.121 -0.016,0.242 -0.023,0.375 l 0.046,0 c 0.274,-0.25 0.622,-0.352 1.102,-0.352 l 0.227,0 0.125,0 c 1.671,0 2.457,0.161 2.949,0.653 0.437,0.578 0.75,1.23 0.75,2.051 0,1.082 -0.574,2.437 -1.074,3.324 l -0.051,0 z m 34.625,0 c -0.285,-0.352 -0.563,-0.754 -0.824,-1.227 0.566,-1.113 1.097,-2.211 1.097,-2.722 0,-0.188 -0.242,-0.336 -0.625,-0.477 -0.48,-0.176 -1.246,-0.199 -2.176,-0.199 l -0.171,0 -0.977,0 c -0.305,2.242 -1.344,3.648 -2.352,3.648 -0.687,0 -1.257,-0.449 -1.671,-1.051 -0.321,-0.445 -0.579,-1.003 -0.579,-1.75 0,-1.531 1.145,-2.25 3.375,-2.25 l 0.551,0 c -0.14,-0.554 -0.523,-0.988 -1.051,-1.523 -0.937,-0.961 -1.918,-1.523 -3.023,-1.523 -0.656,0 -1.199,0.168 -1.625,0.398 l -0.176,-0.352 c 1.051,-0.644 2.156,-1.125 3.153,-1.125 0.578,0 1.781,0.598 2.625,1.875 0.457,0.692 0.793,1.563 0.847,2.25 l 0.903,0 0.125,0 c 1.671,0 2.457,0.161 2.949,0.653 0.437,0.578 0.773,1.23 0.773,2.051 0,1.082 -0.597,2.437 -1.097,3.324 l -0.051,0 z m -64.653,-0.625 0.079,-2.699 c -0.649,-0.211 -1.157,-0.329 -1.625,-0.329 -0.747,0 -1.403,0.2 -1.403,0.625 0,0.582 1.004,1.395 2.949,2.403 z m 6.727,-1.574 c 0.469,0 0.973,-0.356 1.398,-1 0.286,-0.438 0.551,-1.024 0.551,-1.454 0,-0.25 -0.215,-0.273 -0.426,-0.273 -0.382,0 -1.007,0.191 -1.5,0.477 -0.48,0.273 -1.187,0.843 -1.296,1.25 0.195,0.566 0.671,1 1.273,1 z m 51.574,-0.227 c 0.406,0 0.824,-0.207 1.176,-0.602 0.371,-0.402 0.629,-0.984 0.75,-1.597 -0.711,0 -1.348,-0.016 -1.949,0.148 -0.68,0.199 -1.199,0.543 -1.199,1.102 0,0.437 0.609,0.949 1.222,0.949 z m -43.074,-5.227 c -0.297,-0.335 -0.578,-0.73 -0.875,-1.125 0.438,-0.371 0.875,-0.718 1.301,-1.125 0.371,0.321 0.66,0.684 0.898,1.079 -0.426,0.445 -0.875,0.843 -1.324,1.171 z m 33.727,0 c -0.297,-0.335 -0.606,-0.73 -0.903,-1.125 0.438,-0.371 0.875,-0.718 1.301,-1.125 0.371,0.321 0.66,0.684 0.898,1.079 -0.425,0.445 -0.851,0.843 -1.296,1.171 z" /><g
       transform="matrix(-1,0,0,-1,786.699,475.20001)"
       id="g86"><path
         id="path88"
         style="fill:none;stroke:#000000;stroke-width:4;stroke-linecap:butt;stroke-linejoin:miter;stroke-miterlimit:4;stroke-opacity:1;stroke-dasharray:none"
         d="m 173.43,78.621 c 0,16.727 -38.375,30.285 -85.715,30.285 C 40.375,108.906 2,95.348 2,78.621 2,61.895 40.375,48.336 87.715,48.336 c 47.34,0 85.715,13.559 85.715,30.285 z" /></g><g
       transform="matrix(-1,0,0,-1,786.699,475.20001)"
       id="g90"><path
         id="path92"
         style="fill:none;stroke:#000000;stroke-width:4;stroke-linecap:butt;stroke-linejoin:miter;stroke-miterlimit:4;stroke-opacity:1;stroke-dasharray:none"
         d="m 306.285,126.32 c 0,0 119.121,-45.984 152,-52 32.883,-6.011 65.145,15.43 65.145,15.43" /></g><g
       transform="matrix(-1,0,0,-1,786.699,475.20001)"
       id="g94"><path
         id="path96"
         style="fill:none;stroke:#000000;stroke-width:4;stroke-linecap:butt;stroke-linejoin:miter;stroke-miterlimit:4;stroke-opacity:1;stroke-dasharray:none"
         d="M 108.57,38.32 136,12.035" /></g><g
       transform="matrix(-1,0,0,-1,786.699,475.20001)"
       id="g98"><path
         id="path100"
         style="fill:none;stroke:#000000;stroke-width:4;stroke-linecap:butt;stroke-linejoin:miter;stroke-miterlimit:4;stroke-opacity:1;stroke-dasharray:none"
         d="m 108.57,117.18 36.575,19.425" /></g><g
       transform="matrix(-1,0,0,-1,786.699,475.20001)"
       id="g102"><path
         id="path104"
         style="fill:none;stroke:#000000;stroke-width:4;stroke-linecap:butt;stroke-linejoin:miter;stroke-miterlimit:4;stroke-opacity:1;stroke-dasharray:none"
         d="m 116.703,10.352 22.074,-0.028 -4.414,20.125" /></g><g
       transform="matrix(-1,0,0,-1,786.699,475.20001)"
       id="g106"><path
         id="path108"
         style="fill:none;stroke:#000000;stroke-width:4;stroke-linecap:butt;stroke-linejoin:miter;stroke-miterlimit:4;stroke-opacity:1;stroke-dasharray:none"
         d="m 136.695,116.469 8.68,20.293 -20.242,3.832" /></g></g></svg>