<?xml version="1.0" encoding="UTF-8" standalone="no"?>
<!-- Created with Inkscape (http://www.inkscape.org/) -->

<svg
   xmlns:dc="http://purl.org/dc/elements/1.1/"
   xmlns:cc="http://creativecommons.org/ns#"
   xmlns:rdf="http://www.w3.org/1999/02/22-rdf-syntax-ns#"
   xmlns:svg="http://www.w3.org/2000/svg"
   xmlns="http://www.w3.org/2000/svg"
   xmlns:sodipodi="http://sodipodi.sourceforge.net/DTD/sodipodi-0.dtd"
   xmlns:inkscape="http://www.inkscape.org/namespaces/inkscape"
   width="983.36609"
   height="593.25128"
   id="svg2"
   version="1.1"
   inkscape:version="0.47pre4 r22446"
   sodipodi:docname="Diagram Translation template.svg"
   inkscape:export-filename="/home/heather/Desktop/Localisation guide/Diagram Translation template2.png"
   inkscape:export-xdpi="300"
   inkscape:export-ydpi="300">
  <defs
     id="defs4">
    <inkscape:perspective
       sodipodi:type="inkscape:persp3d"
       inkscape:vp_x="0 : 297.24567 : 1"
       inkscape:vp_y="0 : 1000 : 0"
       inkscape:vp_z="1016.0045 : 297.24567 : 1"
       inkscape:persp3d-origin="508.00226 : 198.16378 : 1"
       id="perspective49" />
  </defs>
  <sodipodi:namedview
     id="base"
     pagecolor="#ffffff"
     bordercolor="#666666"
     borderopacity="1.0"
     inkscape:pageopacity="0.0"
     inkscape:pageshadow="2"
     inkscape:zoom="0.7"
     inkscape:cx="415.68891"
     inkscape:cy="242.63668"
     inkscape:document-units="px"
     inkscape:current-layer="layer1"
     showgrid="false"
     inkscape:window-width="1214"
     inkscape:window-height="767"
     inkscape:window-x="64"
     inkscape:window-y="-22"
     inkscape:window-maximized="1"
     fit-margin-top="0"
     fit-margin-left="0"
     fit-margin-right="0"
     fit-margin-bottom="0" />
  <metadata
     id="metadata7">
    <rdf:RDF>
      <cc:Work
         rdf:about="">
        <dc:format>image/svg+xml</dc:format>
        <dc:type
           rdf:resource="http://purl.org/dc/dcmitype/StillImage" />
        <dc:title />
      </cc:Work>
    </rdf:RDF>
  </metadata>
  <g
     inkscape:label="Layer 1"
     inkscape:groupmode="layer"
     id="layer1"
     transform="translate(322.50001,-200.51482)">
    <path
       transform="matrix(0.89571626,0,0,0.92461027,15.316718,34.018292)"
       style="fill:none;stroke:#000000;stroke-width:5.49421215;stroke-miterlimit:4;stroke-opacity:1"
       d="m 657.14285,503.79074 c 0,146.74995 -122.80189,265.7143 -274.2857,265.7143 -151.48382,0 -274.28571,-118.96435 -274.28571,-265.7143 0,-146.74995 122.80189,-265.71429 274.28571,-265.71429 151.48381,0 274.2857,118.96434 274.2857,265.71429 z"
       id="path3004" />
    <path
       transform="matrix(0.73436249,0,0,0.83683169,268.23311,136.75742)"
       style="fill:none;stroke:#000000;stroke-width:6.37816429;stroke-miterlimit:4;stroke-opacity:1"
       d="m 137.14286,306.64789 c 0,67.85212 -62.680138,122.85714 -140.0000029,122.85714 -77.3198651,0 -139.9999971,-55.00502 -139.9999971,-122.85714 0,-67.85213 62.680132,-122.85714 139.9999971,-122.85714 77.3198649,0 140.0000029,55.00501 140.0000029,122.85714 z"
       id="path3006" />
    <path
       style="font-size:28px;font-style:normal;font-variant:normal;font-weight:normal;font-stretch:normal;line-height:125%;letter-spacing:0px;word-spacing:0px;fill:#000000;fill-opacity:1;stroke:none;font-family:Adobe Arabic;-inkscape-font-specification:Adobe Arabic"
       d="M 309.21875 0 C 308.35742 0 307.34375 0.82227 307.34375 1.875 C 307.34375 2.66797 307.90625 3.08985 309 3.28125 C 308.17969 3.89649 306.81055 4.42773 305.59375 4.90625 L 305.625 4.96875 C 305.7207 5.13281 306.75 5.21875 306.96875 5.21875 C 307.67969 4.95899 309.07813 4.4082 309.84375 3.4375 C 309.9668 3.4785 310.06055 3.52536 310.15625 3.59375 L 310.8125 2.6875 C 310.67578 2.5918 310.50391 2.52735 310.3125 2.5 C 310.36719 2.32227 310.40625 2.14258 310.40625 1.9375 C 310.40625 0.48829 309.73828 0 309.21875 0 z M 308.78125 0.84375 C 309.30078 0.84375 309.73633 1.57226 309.75 2.1875 C 309.75 2.2695 309.7461 2.35547 309.71875 2.4375 C 308.69336 2.23242 308 1.87109 308 1.40625 C 308 1.14648 308.37109 0.84375 308.78125 0.84375 z M 230.03125 4.5 C 229.68945 4.85546 229.29297 5.32032 228.9375 5.8125 C 229.48437 6.26367 230.00195 6.68555 230.5625 7.21875 C 230.94531 6.86328 231.21094 6.51562 231.59375 5.96875 C 231.06055 5.39453 230.5918 4.93749 230.03125 4.5 z M 227.40625 4.6875 C 227.06445 5.04297 226.66797 5.50781 226.3125 6 C 226.85937 6.45117 227.3457 6.87305 227.90625 7.40625 C 228.28906 7.05078 228.55469 6.70312 228.9375 6.15625 C 228.4043 5.58203 227.9668 5.125 227.40625 4.6875 z M 186.40625 4.90625 C 186.00977 5.2207 185.58985 5.65039 185.125 6.15625 C 185.33008 9.05469 185.5 11.77735 185.5 14.375 C 185.5 16.38476 185.50979 17.3711 186.34375 18.21875 C 186.90429 18.7793 187.60742 19 188.6875 19 C 188.72971 19.003973 188.76623 19 188.8125 19 L 189.09375 19 C 190.26953 19 191.34766 18.50976 191.8125 17.59375 L 191.84375 17.59375 C 192.30859 18.61914 193.34766 19 194.6875 19 L 195 19 L 195.1875 19 C 195.72071 19 196.37305 18.86719 196.90625 18.59375 C 197.53515 18.2793 197.86914 17.69726 198.15625 17 C 198.55273 16.17969 198.6875 15.03906 198.6875 13.5625 C 198.6875 12.04492 198.58594 10.38476 198.53125 8.8125 C 198.85937 8.58007 199.1289 8.35742 199.375 8.125 C 198.66406 6.94922 198.2539 5.88867 198.28125 5 L 198.1875 4.90625 C 197.88672 5.16602 197.62891 5.45508 197.4375 5.6875 C 197.16406 5.98829 197 6.29297 197 6.59375 C 197 7.09961 197.10153 7.6836 197.15625 8.3125 C 197.375 10.82813 197.5039 13.21875 197.53125 15.40625 C 197.53125 16.11718 197.29101 16.60156 196.8125 16.875 C 196.22461 17.18945 195.71875 17.25 195.28125 17.25 L 195 17.25 L 194.75 17.25 C 194.02539 17.25 193.5 17.04296 193.0625 16.6875 C 192.73437 16.42773 192.59375 16.04102 192.59375 15.5625 C 192.59375 15.26172 192.71484 14.66602 192.90625 13.96875 L 192.8125 13.875 L 191.875 14.5625 L 191.46875 16.03125 C 191.26368 16.81054 190.17773 17.25 189.125 17.25 L 188.8125 17.25 L 188.625 17.25 C 188.44727 17.25 188.0918 17.21684 187.75 17.09375 C 187.2168 16.90234 186.71875 16.5 186.71875 15.625 L 186.71875 14.84375 C 186.71875 11.48047 186.71875 7.93163 186.5 4.9375 L 186.40625 4.90625 z M 202.71875 4.90625 C 202.32226 5.2207 201.90234 5.65039 201.4375 6.15625 C 201.64258 9.05469 201.8125 11.77735 201.8125 14.375 C 201.8125 16.38476 201.82229 17.3711 202.65625 18.21875 C 203.21679 18.7793 203.88867 19 204.96875 19 L 205.125 19 L 205.84375 19 C 207.97656 19 209.91797 18.3457 211.75 17.15625 L 214.0625 15.65625 C 214.51367 15.36914 215.25782 15.1289 216.40625 15.15625 L 217.125 13.71875 L 217.09375 13.6875 L 216 13.71875 C 215.13867 13.70505 214.3125 13.54101 213.65625 13.28125 C 211.52344 12.41992 210.07226 12.09375 209.15625 12.09375 C 207.51563 12.09375 206.29688 13.04492 206.1875 14.5625 L 206.875 16.34375 L 207 16.34375 L 207.40625 15.125 L 207.25 14.4375 C 207.63281 14 208.2207 13.75 209 13.75 C 210.25781 13.75 211.69532 14.13086 213.28125 14.71875 L 213.28125 14.78125 C 210.46485 16.47656 208.18359 17.25 205.96875 17.25 L 205.125 17.25 L 204.9375 17.25 C 204.75977 17.25 204.4043 17.21684 204.0625 17.09375 C 203.5293 16.90234 203.03125 16.5 203.03125 15.625 L 203.03125 14.84375 C 203.03125 11.48047 203.03125 7.93163 202.8125 4.9375 L 202.71875 4.90625 z M 327.5 4.90625 C 327.19922 5.19336 326.9375 5.4668 326.71875 5.78125 C 326.52734 6.02734 326.40625 6.35743 326.40625 6.78125 C 326.40625 7.39649 326.56641 8.29101 326.59375 8.90625 C 326.82617 11.29882 326.9375 13.04297 326.9375 14.4375 C 326.9375 15.69532 326.47266 16.45507 325.84375 16.90625 L 325.75 16.90625 C 325.73633 15.94922 325.54297 15.17383 325.1875 14.53125 C 324.38086 13.10937 323.15039 11.3125 321.90625 9.34375 L 322.34375 8.5625 C 321.45508 7.6875 320.64453 6.88477 320.125 6.1875 L 320.0625 6.1875 C 319.88477 6.44726 319.4375 7.19921 319.4375 7.5 C 319.4375 7.95117 319.89258 8.76368 320.78125 10.0625 C 321.90234 11.70313 322.875 13.09766 323.75 14.4375 C 324.54297 15.64063 325.24414 16.67187 325.3125 17.21875 C 323.9043 18.0664 321.82617 18.64453 319.1875 19 L 319.1875 19.125 C 320.13086 19.42578 321.29102 19.78125 322.5625 19.78125 C 323.66992 19.78125 325.05664 19.29101 326 18.59375 C 326.72461 18.06055 327.13086 17.34766 327.5 16.28125 C 327.74609 15.5293 327.96875 14.54101 327.96875 13.625 C 327.96875 11.95703 327.91211 10.38672 327.84375 8.71875 C 328.18555 8.5 328.48242 8.25391 328.6875 8.0625 C 328.05859 7.03711 327.59375 6.08789 327.59375 5.28125 C 327.59375 5.18555 327.58008 5.0957 327.59375 5 L 327.5 4.90625 z M 267.03125 7.375 C 266.68945 7.73047 266.32422 8.19531 265.96875 8.6875 C 266.51562 9.13867 267.00195 9.56055 267.5625 10.09375 C 267.94531 9.73828 268.21094 9.39062 268.59375 8.84375 C 268.06055 8.26953 267.5918 7.8125 267.03125 7.375 z M 310.3125 7.375 C 309.9707 7.73047 309.60547 8.19531 309.25 8.6875 C 309.79687 9.13867 310.2832 9.56055 310.84375 10.09375 C 311.22656 9.73828 311.49219 9.39062 311.875 8.84375 C 311.3418 8.26953 310.87305 7.8125 310.3125 7.375 z M 264.40625 7.5625 C 264.06445 7.91797 263.66797 8.35156 263.3125 8.84375 C 263.85938 9.29492 264.3457 9.74804 264.90625 10.28125 C 265.28906 9.92578 265.58594 9.57813 265.96875 9.03125 C 265.43555 8.45704 264.9668 8 264.40625 7.5625 z M 307.6875 7.5625 C 307.3457 7.91797 306.94922 8.35156 306.59375 8.84375 C 307.14062 9.29492 307.6582 9.74804 308.21875 10.28125 C 308.60156 9.92578 308.86719 9.57813 309.25 9.03125 C 308.7168 8.45704 308.24805 8 307.6875 7.5625 z M 230.4375 8.59375 C 230.06836 8.92188 229.68555 9.32226 229.34375 9.71875 L 229.4375 10.71875 C 227.08594 12.01757 225.60938 13.31055 225.0625 14.5 C 224.76172 15.15625 224.625 15.69727 224.625 16.09375 C 224.625 17.1875 225.6582 17.6875 227.09375 17.6875 C 228.16016 17.6875 229.0332 17.43555 229.8125 17.09375 C 230.33203 18.63867 231.31641 19 232.65625 19 L 232.9375 19 L 233.15625 19 C 234.63281 19 235.49219 18.25 235.875 17.375 L 235.9375 17.375 C 237.03125 18.55078 238.72852 19.29492 239.78125 19.28125 C 240.0957 19.28125 240.40039 19.14453 240.6875 18.84375 C 240.90625 18.59766 241.04297 18.25 241.125 17.8125 L 241.1875 17.8125 C 241.76172 18.72851 242.48828 19 243.28125 19 L 243.5625 19 L 244.25 19 C 246.38281 19 248.35547 18.3457 250.1875 17.15625 L 252.46875 15.65625 C 252.91992 15.36914 253.69531 15.1289 254.84375 15.15625 L 255.5625 13.71875 L 255.5 13.6875 L 254.40625 13.71875 C 253.54492 13.70505 252.71875 13.54101 252.0625 13.28125 C 249.92969 12.41992 248.50976 12.09375 247.59375 12.09375 C 245.95313 12.09375 244.73438 13.04492 244.625 14.5625 L 245.28125 16.34375 L 245.4375 16.34375 L 245.84375 15.125 L 245.65625 14.4375 C 246.03906 14 246.62695 13.75 247.40625 13.75 C 248.66406 13.75 250.10156 14.13086 251.6875 14.71875 L 251.6875 14.78125 C 248.8711 16.47656 246.58984 17.25 244.375 17.25 L 243.5625 17.25 L 243.3125 17.25 C 242.20508 17.25 241.48828 16.76757 241.1875 16.125 C 240.44922 14.5664 240.1543 14.05469 239.8125 13.5625 C 239.34766 12.89258 238.85742 12.625 238.1875 12.625 C 237.27149 12.625 236.18945 13.50976 235.65625 15.21875 C 235.24609 16.51757 234.7793 17.25 233.34375 17.25 L 232.9375 17.25 L 232.625 17.25 C 232.02344 17.25 231.50195 17.14847 231.1875 16.875 C 230.77734 16.51953 230.65625 15.89843 230.65625 14.96875 C 230.64258 12.84961 230.61719 10.71289 230.5625 8.59375 L 230.4375 8.59375 z M 281.90625 9.03125 C 281.55078 9.46875 281.25195 9.95898 280.9375 10.4375 C 281.58008 12.77539 282.09375 14.60156 282.09375 15.53125 C 282.09375 15.85937 281.69336 16.27539 281.1875 16.5625 C 280.54492 16.93164 279.69336 17.25 278.96875 17.25 C 277.65625 17.25 277.08594 16.54101 277.03125 15.40625 L 276.5 15.4375 C 276.47266 15.77929 276.46875 16.12696 276.46875 16.46875 C 276.46875 18.06836 277.3125 19 278.84375 19 C 279.75976 19 280.69141 18.60937 281.59375 18.0625 C 282.18164 17.70703 282.45313 17.26953 282.5625 16.75 L 282.625 16.75 C 283.1582 18.45898 284.20703 19 285.4375 19 L 285.6875 19 L 286.40625 19 C 288.53906 19 290.48047 18.3457 292.3125 17.15625 L 294.59375 15.65625 C 295.04492 15.36914 295.82031 15.1289 296.96875 15.15625 L 297.6875 13.71875 L 297.65625 13.6875 L 296.53125 13.71875 C 295.66992 13.70505 294.875 13.54101 294.21875 13.28125 C 292.08594 12.41992 290.63476 12.09375 289.71875 12.09375 C 288.07813 12.09375 286.85938 13.04492 286.75 14.5625 L 287.4375 16.34375 L 287.5625 16.34375 L 287.96875 15.125 L 287.8125 14.4375 C 288.19531 14 288.75195 13.75 289.53125 13.75 C 290.78906 13.75 292.25781 14.13086 293.84375 14.71875 L 293.8125 14.78125 C 290.9961 16.47656 288.74609 17.25 286.53125 17.25 L 285.6875 17.25 L 285.46875 17.25 C 284.44336 17.25 283.52734 16.54101 283.28125 15.1875 C 282.91211 13.17773 282.50586 11.0625 282 9.09375 L 281.90625 9.03125 z M 267.03125 11.46875 C 266.67578 11.90625 266.32812 12.41211 266 13 C 266.71094 14.39453 267.375 15.73243 267.375 16.375 C 267.375 16.60742 267.07227 16.79101 266.59375 16.96875 C 265.99219 17.18749 265.06836 17.25 263.90625 17.25 L 263.65625 17.25 L 263.40625 17.25 C 261.82031 17.25 261.12305 16.15429 260.34375 14.28125 L 260.25 14.3125 C 260.01758 14.76367 259.77344 15.24609 259.5 15.875 C 259.81445 16.53124 260.1543 17.18555 260.6875 17.9375 C 260.86523 18.16993 260.99414 18.36719 261.0625 18.53125 C 260.76172 20.55468 258.33203 22.625 256.5 22.625 C 255.80274 22.625 255.30664 22.52148 254.9375 22.34375 L 254.75 22.8125 C 255.88476 23.41407 257.13086 23.875 258.15625 23.875 C 259.16797 23.875 260.32617 23.05664 261.40625 21.15625 C 261.77539 20.5 261.96875 19.67382 261.96875 19.03125 C 261.96875 18.88086 261.95117 18.72656 261.9375 18.5625 L 262 18.5625 C 262.3418 18.87695 262.77344 19 263.375 19 L 263.65625 19 L 263.8125 19 C 265.90429 19 266.88477 18.77148 267.5 18.15625 C 268.04688 17.43164 268.46875 16.65039 268.46875 15.625 C 268.46875 14.27149 267.72266 12.57617 267.09375 11.46875 L 267.03125 11.46875 z M 310.3125 11.46875 C 309.95703 11.90625 309.60938 12.41211 309.28125 13 C 309.99219 14.39453 310.65625 15.73243 310.65625 16.375 C 310.65625 16.60742 310.35352 16.79101 309.875 16.96875 C 309.27344 17.18749 308.34961 17.25 307.1875 17.25 L 306.9375 17.25 L 305.71875 17.25 C 305.33594 14.44727 304.03906 12.6875 302.78125 12.6875 C 301.91992 12.6875 301.20703 13.24805 300.6875 14 C 300.29102 14.56055 300 15.25781 300 16.1875 C 300 18.10156 301.39844 19 304.1875 19 L 304.875 19 C 304.69727 19.69727 304.25 20.23633 303.59375 20.90625 C 302.41797 22.10938 301.16211 22.78125 299.78125 22.78125 C 298.96094 22.78125 298.31445 22.59961 297.78125 22.3125 L 297.53125 22.75 C 298.84375 23.55664 300.22461 24.125 301.46875 24.125 C 302.19336 24.125 303.72852 23.38085 304.78125 21.78125 C 305.35547 20.91992 305.74414 19.86133 305.8125 19 L 306.9375 19 L 307.125 19 C 309.21679 19 310.16602 18.77148 310.78125 18.15625 C 311.32812 17.43164 311.75 16.65039 311.75 15.625 C 311.75 14.27149 311.00391 12.57617 310.375 11.46875 L 310.3125 11.46875 z M 229.53125 12.25 L 229.59375 15.625 C 228.78711 15.88476 228.15039 16 227.5625 16 C 226.63281 16 225.8125 15.7832 225.8125 15.25 C 225.8125 14.52539 227.09766 13.50781 229.53125 12.25 z M 237.90625 14.21875 C 238.49414 14.21875 239.12305 14.63086 239.65625 15.4375 C 240.01172 15.98437 240.34375 16.74805 240.34375 17.28125 C 240.34375 17.59571 240.10352 17.59375 239.84375 17.59375 C 239.36523 17.59375 238.55273 17.35547 237.9375 17 C 237.33594 16.6582 236.48047 15.94335 236.34375 15.4375 C 236.58984 14.72656 237.1543 14.21875 237.90625 14.21875 z M 302.40625 14.46875 C 302.91211 14.46875 303.40625 14.75781 303.84375 15.25 C 304.30859 15.75586 304.66211 16.48438 304.8125 17.25 C 303.92383 17.25 303.0957 17.23633 302.34375 17.03125 C 301.49609 16.78516 300.84375 16.38476 300.84375 15.6875 C 300.84375 15.14062 301.64063 14.46875 302.40625 14.46875 z M 248.5625 21.03125 C 248.19336 21.45508 247.80664 21.94531 247.4375 22.4375 C 247.98437 22.90234 248.5293 23.3379 249.0625 23.84375 C 249.52734 23.44727 249.88672 22.99219 250.1875 22.5 C 249.6543 21.93945 249.12305 21.44141 248.5625 21.03125 z M 290.6875 21.03125 C 290.31836 21.45508 289.96289 21.94531 289.59375 22.4375 C 290.14062 22.90234 290.6543 23.3379 291.1875 23.84375 C 291.65234 23.44727 292.04297 22.99219 292.34375 22.5 C 291.81055 21.93945 291.24805 21.44141 290.6875 21.03125 z M 192.78125 21.53125 C 192.43946 21.88672 192.07421 22.35156 191.71875 22.84375 C 192.26562 23.29492 192.75196 23.74805 193.3125 24.28125 C 193.69532 23.92579 193.96093 23.54688 194.34375 23 C 193.81054 22.42578 193.3418 21.96875 192.78125 21.53125 z M 190.15625 21.71875 C 189.81445 22.07421 189.41797 22.53907 189.0625 23.03125 C 189.60938 23.48243 190.09571 23.9043 190.65625 24.4375 C 191.03906 24.08203 191.33593 23.73437 191.71875 23.1875 C 191.18554 22.61328 190.7168 22.15625 190.15625 21.71875 z "
       transform="translate(-322.50001,200.51482)"
       id="path3042" />
    <path
       style="font-size:32px;font-style:normal;font-variant:normal;font-weight:normal;font-stretch:normal;line-height:125%;letter-spacing:0px;word-spacing:0px;fill:#000000;fill-opacity:1;stroke:none;font-family:Adobe Arabic;-inkscape-font-specification:Adobe Arabic"
       d="M 698.40625 2.65625 C 696.71875 3.3125 694.4375 4.07812 692.25 4.8125 L 692 5.875 L 692.03125 5.90625 C 693.92187 5.29688 695.89063 4.64062 697.8125 3.875 L 698.4375 2.6875 L 698.40625 2.65625 z M 696.875 8.59375 C 696.48438 9 696.03125 9.5 695.625 10.0625 C 696.24999 10.57813 696.82813 11.07813 697.46875 11.6875 C 697.90625 11.28125 698.21875 10.875 698.65625 10.25 C 698.04688 9.59375 697.51562 9.09375 696.875 8.59375 z M 693.84375 8.78125 C 693.45312 9.1875 693.03125 9.71875 692.625 10.28125 C 693.25 10.79687 693.79687 11.29687 694.4375 11.90625 C 694.875 11.5 695.1875 11.09375 695.625 10.46875 C 695.01562 9.8125 694.48437 9.28125 693.84375 8.78125 z M 696.84375 13.25 C 696.4375 13.75 696.0625 14.32813 695.6875 15 C 696.5 16.59375 697.25 18.14062 697.25 18.875 C 697.25 19.14062 696.89062 19.35937 696.34375 19.5625 C 695.65625 19.8125 694.60937 19.84375 693.28125 19.84375 L 693 19.84375 L 692.71875 19.84375 C 690.90625 19.84375 690.10937 18.60938 689.21875 16.46875 L 689.09375 16.5 C 688.82812 17.01562 688.5625 17.59375 688.25 18.3125 C 688.60938 19.0625 688.98437 19.76563 689.59375 20.625 C 689.79687 20.89063 689.95313 21.15625 690.03125 21.34375 C 689.6875 23.65625 686.9375 26.03125 684.84375 26.03125 C 684.04688 26.03125 683.45312 25.89062 683.03125 25.6875 L 682.8125 26.21875 C 684.10937 26.90625 685.54688 27.4375 686.71875 27.4375 C 687.875 27.4375 689.20312 26.48438 690.4375 24.3125 C 690.85937 23.5625 691.0625 22.64062 691.0625 21.90625 C 691.0625 21.73437 691.04685 21.53125 691.03125 21.34375 L 691.09375 21.34375 C 691.48437 21.70313 692 21.84375 692.6875 21.84375 L 693 21.84375 L 693.1875 21.84375 C 695.57812 21.84375 696.70313 21.60938 697.40625 20.90625 C 698.03125 20.07813 698.5 19.17188 698.5 18 C 698.5 16.45313 697.65625 14.51562 696.9375 13.25 L 696.84375 13.25 z M 674.625 13.96875 C 672.75 13.96875 671.375 15.04687 671.25 16.78125 L 672 18.84375 L 672.15625 18.84375 L 672.625 17.4375 L 672.4375 16.65625 C 672.875 16.15625 673.54688 15.875 674.4375 15.875 C 675.875 15.875 677.53125 16.29687 679.34375 16.96875 L 679.3125 17.03125 C 676.09375 18.96875 673.49999 19.84375 670.96875 19.84375 L 670.03125 19.84375 L 669.78125 19.84375 C 668.90625 19.84375 667.95313 19.46875 667.5 18.875 C 666.84375 18.04687 666.375 17.26563 665.59375 16.40625 C 664.78125 15.5 663.98437 14.71875 663.125 14.0625 L 663 14.0625 C 662.1875 14.95313 661.0625 15.9375 659.90625 16.96875 C 659.20313 17.57812 658.57812 18.54687 658.3125 19.65625 C 658.14062 20.32812 658.03125 20.92187 658.03125 21.5625 C 658.03125 22.70312 658.64063 24.54688 659.375 26.5625 C 660.0625 28.4375 660.73437 30.4375 661.09375 32.09375 L 661.28125 32.09375 C 661.4375 31.4375 661.625 30.51563 661.625 29.78125 C 661.625 28.98438 660.8125 26.40625 659.96875 23.78125 C 659.4375 22.10938 659.1875 21.04688 659.1875 20.375 C 659.1875 19.75 659.78125 18.90625 661.03125 17.9375 C 661.07815 20.625 662.84375 22.78125 665 22.78125 C 666.01562 22.78125 666.875 21.625 667 20.4375 L 667.09375 20.40625 C 667.78125 21.375 668.5 21.84375 669.71875 21.84375 L 670.03125 21.84375 L 670.84375 21.84375 C 673.28125 21.84375 675.5 21.10938 677.59375 19.75 L 680.21875 18.0625 C 680.73438 17.73437 681.59375 17.4375 682.90625 17.46875 L 683.75 15.84375 L 683.6875 15.8125 L 682.4375 15.8125 C 681.45313 15.7969 680.49999 15.60938 679.75 15.3125 C 677.3125 14.32813 675.67187 13.96875 674.625 13.96875 z M 662.9375 16.21875 C 664.29687 17.26563 665 18.09375 665.59375 18.875 C 666 19.40625 666.15625 19.8125 666.15625 20.09375 C 666.15625 20.42188 665.67187 20.6875 665.125 20.6875 C 664.26562 20.6875 663.67188 20.3125 663.21875 19.90625 C 662.51563 19.28125 662.03125 18.42188 662.03125 17.375 C 662.03125 16.92188 662.6875 16.46875 662.9375 16.21875 z M 675.75 24.1875 C 675.32813 24.67187 674.89062 25.21875 674.46875 25.78125 C 675.09374 26.3125 675.70312 26.79688 676.3125 27.375 C 676.84375 26.92188 677.28125 26.40625 677.625 25.84375 C 677.01563 25.20313 676.39062 24.65625 675.75 24.1875 z M 679.28125 29.0625 C 677.59375 29.71875 675.3125 30.48438 673.125 31.21875 L 672.875 32.3125 L 672.90625 32.34375 C 674.79687 31.73437 676.76563 31.04688 678.6875 30.28125 L 679.3125 29.125 L 679.28125 29.0625 z "
       transform="translate(-322.50001,200.51482)"
       id="path3029" />
    <path
       style="font-size:32px;font-style:normal;font-variant:normal;font-weight:normal;font-stretch:normal;line-height:125%;letter-spacing:0px;word-spacing:0px;fill:#000000;fill-opacity:1;stroke:none;font-family:Adobe Arabic;-inkscape-font-specification:Adobe Arabic"
       d="M 974.5625 323.21875 C 974.07812 323.65625 973.46875 324.3125 973.03125 324.875 C 973.28125 327.57812 973.59375 331.73438 973.59375 334.59375 L 973.59375 336.125 C 973.59375 337.15625 973.56253 338.26563 973.40625 339.25 L 973.625 339.375 C 974.53125 338.375 974.95312 337.70313 975 336.84375 C 975.0781 336.15625 975.09375 335.23437 975.09375 334.28125 C 975.09375 330.64062 975.01565 326.68749 974.6875 323.28125 L 974.5625 323.21875 z M 981.375 330.90625 C 980.98438 331.54688 980.64062 332.20312 980.28125 332.875 C 980.96875 333.92187 981.59375 335.0625 982.15625 336.3125 C 982.24995 336.57812 982.375 336.85938 982.375 337.125 C 982.375 337.29688 982.31248 337.54688 982.1875 337.8125 C 981.15625 340.125 978.92187 342.01563 976.71875 342.03125 C 976.03125 342.03125 975.45313 341.90625 974.96875 341.75 L 974.8125 342.28125 C 976.34375 343.0625 977.65626 343.5 978.8125 343.5 C 979.59375 343.5 980.45312 343.0625 981.40625 342.0625 C 982.625 340.59375 983.375 339.10937 983.375 337.71875 L 983.375 336 C 983.375 334.65625 983 333.8125 982.59375 333.03125 L 981.46875 330.9375 L 981.375 330.90625 z M 961.6875 331.09375 C 959.81251 331.09375 958.4375 332.17188 958.3125 333.90625 L 959.0625 335.96875 L 959.21875 335.96875 L 959.6875 334.5625 L 959.5 333.78125 C 959.9375 333.28125 960.60937 333 961.5 333 C 962.9375 333 964.59375 333.42188 966.40625 334.09375 L 966.375 334.15625 C 963.15626 336.09375 960.5625 337 958.03125 337 L 957.09375 337 C 956.25 337 956 337.5625 956 337.9375 C 956 338.35938 956.23437 339 957.09375 339 L 957.90625 339 C 960.34375 339 962.56251 338.26562 964.65625 336.90625 L 967.28125 335.1875 C 967.79687 334.85938 968.65626 334.59375 969.96875 334.625 L 970.8125 332.96875 L 970.75 332.9375 L 969.5 332.96875 C 968.51562 332.95315 967.5625 332.76562 966.8125 332.46875 C 964.37501 331.48437 962.73438 331.09375 961.6875 331.09375 z M 962.8125 341.3125 C 962.39062 341.79688 961.95313 342.34375 961.53125 342.90625 C 962.15625 343.4375 962.76563 343.95312 963.375 344.53125 C 963.90625 344.07812 964.34375 343.5625 964.6875 343 C 964.07812 342.35937 963.45312 341.78125 962.8125 341.3125 z "
       transform="translate(-322.50001,200.51482)"
       id="path3018" />
    <path
       id="path3022"
       style="font-size:32px;font-style:normal;font-variant:normal;font-weight:normal;font-stretch:normal;line-height:125%;letter-spacing:0px;word-spacing:0px;fill:#000000;fill-opacity:1;stroke:none;font-family:Adobe Arabic;-inkscape-font-specification:Adobe Arabic"
       d="m 643.86609,546.77069 -0.0312,-0.0469 c -1.6875,0.65625 -3.96875,1.42187 -6.15625,2.15625 l -0.23438,1.07812 0.0312,0.0312 c 1.89063,-0.60937 3.84376,-1.28125 5.76563,-2.04687 l 0.625,-1.17188" />
    <path
       id="path3026"
       style="font-size:32px;font-style:normal;font-variant:normal;font-weight:normal;font-stretch:normal;line-height:125%;letter-spacing:0px;word-spacing:0px;fill:#000000;fill-opacity:1;stroke:none;font-family:Adobe Arabic;-inkscape-font-specification:Adobe Arabic"
       d="m 628.44421,537.50507 c 1.51563,1.17187 3.56251,2.01562 5.40625,2.01562 l 0.73438,0 0,-2.01562 -0.90625,0 c -1.32812,0 -2.70313,-0.28125 -3.75,-0.84375 l 0,-0.0625 3.01562,-2.59375 0.375,-1.76563 c -1.15624,-0.48437 -2.65625,-0.71875 -4.46875,-0.71875 -1.53124,0 -2.96875,0.25 -4.1875,0.51563 l -0.73437,0.125 -0.67188,1.70312 0.0937,0.14063 c 0.23438,-0.0781 0.53125,-0.1875 0.76563,-0.1875 0.3125,0 0.67187,0.40625 1.0625,0.76562 0.60937,0.59375 1.20312,1.32813 1.85937,1.82813 -2.24999,1.40624 -4.35937,3.51562 -4.35937,6.3125 0,4.03124 3.20313,5.82812 7,5.82812 1.25,0 2.17187,-0.17187 2.67187,-0.45312 0.96875,-0.54688 1.82813,-1.15625 2.625,-1.75 l -0.10937,-0.28125 c -1.03125,0.26562 -2.4375,0.45312 -3.98438,0.45312 -4.26562,0 -7.14062,-1.79688 -7.14062,-4.42187 0,-1.6875 1.82813,-3.18751 4.60937,-4.59375 l 0.0937,0 m 0.10938,-1.6875 c -0.57813,-0.46875 -1.01563,-0.875 -1.5625,-1.34375 -0.34375,-0.3125 -0.875,-0.73438 -1.15625,-0.98438 l 0,-0.0781 c 0.85937,-0.1875 1.65625,-0.3125 3,-0.3125 1.09375,0 2.10937,0.17187 2.98437,0.35937 l 0,0.0937 c -1,0.95312 -2.1875,1.64063 -3.20312,2.28125 l -0.0625,-0.0156" />
    <path
       style="font-size:32px;font-style:normal;font-variant:normal;font-weight:normal;font-stretch:normal;line-height:125%;letter-spacing:0px;word-spacing:0px;fill:#000000;fill-opacity:1;stroke:none;font-family:Adobe Arabic;-inkscape-font-specification:Adobe Arabic"
       d="M 711.1875 563.84375 C 710.54688 563.84375 709.89062 564.17188 709.28125 564.71875 C 708.82812 565.17188 708.5625 565.67188 708.5625 566.09375 C 708.5625 566.76563 709.04688 567.25 709.78125 567.46875 L 709.78125 567.5 C 709.51563 567.5937 709.20313 567.85937 709.0625 568.03125 L 708.6875 568.6875 L 708.71875 568.71875 C 709.85938 568.20313 711.21875 567.8125 712.78125 567.5625 C 713 567.25 713.1875 566.89062 713.375 566.5 L 713.375 566.4375 C 712.84375 566.4687 712.3125 566.5 711.78125 566.5 C 710.85937 566.5 709.5625 566.25 709.5625 565.5 C 709.5625 565.26563 710.10938 564.96875 710.65625 564.96875 C 710.84375 564.96875 711.01562 564.9687 711.125 565 C 711.29687 565.0469 711.45312 565.28125 711.625 565.625 L 711.65625 565.625 C 711.90625 565.32812 712.15625 565 712.15625 564.59375 C 712.15625 564.1875 711.8125 563.84375 711.1875 563.84375 z M 711.625 568.9375 C 711.14063 569.375 710.53125 570.03125 710.09375 570.59375 C 710.34375 573.29688 710.65625 577.45313 710.65625 580.3125 L 710.65625 581.84375 C 710.65625 582.875 710.62502 583.98438 710.46875 584.96875 L 710.6875 585.09375 C 711.59375 584.09375 712.01563 583.42188 712.0625 582.5625 C 712.1406 581.875 712.15625 580.95312 712.15625 580 C 712.15625 576.35938 712.07815 572.40624 711.75 569 L 711.625 568.9375 z M 680.53125 573.6875 C 679.40625 573.6875 678.34375 574.34375 677.625 575.53125 C 677.15625 576.32812 676.9375 577.23438 676.9375 577.90625 C 676.9375 579.26563 677.59375 580.10938 679.28125 581.3125 C 677.78125 582.625 676.6875 584.32813 676.6875 586.375 C 676.6875 590.40624 679.89063 592.1875 683.6875 592.1875 C 684.9375 592.1875 685.84375 592.03125 686.34375 591.75 C 687.3125 591.20312 688.17187 590.59375 688.96875 590 L 688.875 589.71875 C 687.84375 589.98437 686.42187 590.15625 684.875 590.15625 C 680.60938 590.15625 677.75 588.375 677.75 585.75 C 677.75 584.53125 678.79688 583.23438 680.375 582.28125 C 681.85938 581.39063 683.71876 580.57813 685.6875 579.8125 L 686.28125 577.78125 L 686.1875 577.71875 C 684.78125 578.25 683.375 578.85938 681.96875 579.53125 C 681.70312 579.65625 681.4375 579.8125 681.125 579.8125 C 680.8125 579.8125 680.03125 579.375 679.46875 578.96875 C 678.51563 578.25 678.09375 577.70312 678.09375 577 C 678.09375 576.35937 679.48437 575.46875 681.21875 575.46875 C 682.04687 575.46875 682.84375 575.625 683.65625 576 L 683.90625 575.65625 C 682.95313 574.375 681.90625 573.6875 680.53125 573.6875 z M 691.78125 573.78125 C 691.42188 574.35938 690.96875 575.17188 690.96875 575.5625 C 690.96875 575.75 691.09375 575.96875 691.46875 576.15625 C 692.57812 576.71875 693.76562 577.54688 694.65625 578.5 C 695.57812 579.51563 696.125 580.625 696.125 581.46875 C 696.125 581.59375 696.01562 581.73438 695.8125 581.84375 C 694.67187 582.48438 693.65625 582.875 692.4375 582.875 C 690.48438 582.875 689.92188 581.8125 689.875 580.46875 L 689.25 580.46875 C 689.1719 580.96875 689.1875 581.34375 689.1875 581.59375 C 689.1875 583.90625 690.40626 584.90625 692.1875 584.90625 C 693.65625 584.90625 695.14063 584.26563 696.53125 583.4375 C 696.9375 582.59375 697.1875 581.6875 697.1875 580.71875 C 697.1875 579.40625 696.57812 578.1875 695.625 577 C 694.57812 575.70313 693.17188 574.5625 691.90625 573.78125 L 691.78125 573.78125 z M 703.75 576.15625 C 703.01563 576.15625 702.21875 576.65625 701.5 577.4375 C 700.89062 578.21875 700.5 579.09375 700.5 580.125 C 700.5 582.20313 702.07813 583.0625 703.90625 583.0625 C 704.60937 583.0625 705.32813 582.9688 706 582.78125 C 705.89063 583.70313 705.23438 584.64062 704.53125 585.40625 C 703.09375 587 701.51563 587.78125 699.9375 587.78125 C 699.17188 587.78125 698.42188 587.64063 697.65625 587.25 L 697.40625 587.75 C 698.96875 588.8125 700.46875 589.28125 701.90625 589.28125 C 703.20313 589.28125 704.51562 588.42188 705.90625 586.3125 C 706.73437 585.03125 707.09375 583.67187 707.09375 582.21875 C 707.09375 580.48438 706.6875 578.98438 706.09375 577.90625 C 705.48437 576.78125 704.65625 576.15625 703.75 576.15625 z M 703.21875 578.125 C 704.5625 578.125 705.48438 579.39062 705.90625 580.96875 C 705.34375 581.10937 704.71875 581.15625 704.125 581.15625 C 702.84375 581.15625 701.46875 580.46875 701.46875 579.5 C 701.46875 578.92188 702.48437 578.125 703.21875 578.125 z M 696.125 590 C 694.4375 590.65625 692.15625 591.42187 689.96875 592.15625 L 689.75 593.21875 L 689.78125 593.25 C 691.67188 592.64063 693.60938 591.98437 695.53125 591.21875 L 696.15625 590.03125 L 696.125 590 z "
       transform="translate(-322.50001,200.51482)"
       id="path3007" />
    <path
       style="font-size:28px;font-style:normal;font-variant:normal;font-weight:normal;font-stretch:normal;line-height:125%;letter-spacing:0px;word-spacing:0px;fill:#000000;fill-opacity:1;stroke:none;font-family:Adobe Arabic;-inkscape-font-specification:Adobe Arabic"
       d="M 713.4375 201.65625 C 713.0957 202.01172 712.69922 202.47656 712.34375 202.96875 C 712.89062 203.41992 713.37695 203.84179 713.9375 204.375 C 714.32031 204.01953 714.61719 203.67188 715 203.125 C 714.4668 202.55078 713.99804 202.09375 713.4375 201.65625 z M 710.78125 201.84375 C 710.43946 202.19921 710.07422 202.63282 709.71875 203.125 C 710.26562 203.57618 710.75195 204.0293 711.3125 204.5625 C 711.69531 204.20703 711.96094 203.82812 712.34375 203.28125 C 711.81055 202.70703 711.3418 202.28125 710.78125 201.84375 z M 795.53125 201.9375 C 795.18945 202.29297 794.82422 202.72656 794.46875 203.21875 C 795.01562 203.66992 795.50195 204.12305 796.0625 204.65625 C 796.44531 204.30078 796.71094 203.95312 797.09375 203.40625 C 796.56055 202.83203 796.09179 202.375 795.53125 201.9375 z M 826.78125 202.34375 C 826.35742 202.72656 825.82031 203.28907 825.4375 203.78125 C 825.65625 206.14649 825.9375 209.7793 825.9375 212.28125 L 825.9375 213.625 C 825.9375 214.52735 825.91794 215.51367 825.78125 216.375 L 825.96875 216.46875 C 826.76172 215.59375 827.11524 215.00195 827.15625 214.25 C 827.22465 213.64844 827.25 212.83398 827.25 212 C 827.25 208.81446 827.19332 205.35547 826.90625 202.375 L 826.78125 202.34375 z M 750.4375 204.53125 C 750.09571 204.88671 749.73047 205.32032 749.375 205.8125 C 749.92188 206.26368 750.40821 206.7168 750.96875 207.25 C 751.35157 206.89453 751.61718 206.54687 752 206 C 751.46679 205.42578 750.99805 204.96875 750.4375 204.53125 z M 797.4375 204.65625 C 797.0957 205.01172 796.73047 205.47657 796.375 205.96875 C 796.92188 206.41992 797.4082 206.8418 797.96875 207.375 C 798.35156 207.01953 798.61719 206.67187 799 206.125 C 798.4668 205.55078 797.99805 205.09375 797.4375 204.65625 z M 747.8125 204.71875 C 747.4707 205.07422 747.07422 205.50781 746.71875 206 C 747.26563 206.45117 747.75196 206.9043 748.3125 207.4375 C 748.69531 207.08203 748.99219 206.70313 749.375 206.15625 C 748.8418 205.58203 748.37305 205.15625 747.8125 204.71875 z M 794.8125 204.84375 C 794.4707 205.19922 794.07422 205.63281 793.71875 206.125 C 794.26562 206.57617 794.75195 207.0293 795.3125 207.5625 C 795.69531 207.20703 795.99219 206.85937 796.375 206.3125 C 795.8418 205.73828 795.37304 205.28125 794.8125 204.84375 z M 713.8125 205.71875 C 713.44336 206.04688 713.0918 206.44727 712.75 206.84375 L 712.84375 207.875 C 710.49219 209.17382 709.01563 210.43555 708.46875 211.625 C 708.16797 212.28125 708.03125 212.85352 708.03125 213.25 C 708.03125 214.34375 709.06445 214.84375 710.5 214.84375 C 711.5664 214.84375 712.43945 214.56054 713.21875 214.21875 C 713.73828 215.76367 714.69141 216.125 716.03125 216.125 L 716.34375 216.125 L 716.5625 216.125 C 718.03907 216.125 718.89844 215.40625 719.28125 214.53125 L 719.3125 214.53125 C 720.40625 215.70703 722.13476 216.45117 723.1875 216.4375 C 723.50195 216.4375 723.80664 216.26953 724.09375 215.96875 C 724.3125 215.72265 724.44922 215.375 724.53125 214.9375 L 724.59375 214.9375 C 725.16796 215.85352 725.89453 216.125 726.6875 216.125 L 726.9375 216.125 L 727.65625 216.125 C 729.78906 216.125 731.76172 215.50195 733.59375 214.3125 L 735.875 212.8125 C 736.32618 212.52539 737.07031 212.28516 738.21875 212.3125 L 738.96875 210.875 L 738.90625 210.84375 L 737.8125 210.84375 C 736.95117 210.83005 736.125 210.66602 735.46875 210.40625 C 733.33594 209.54493 731.91602 209.21875 731 209.21875 C 729.35938 209.21875 728.14062 210.16992 728.03125 211.6875 L 728.6875 213.5 L 728.8125 213.5 L 729.25 212.25 L 729.0625 211.59375 C 729.44531 211.15625 730.0332 210.90625 730.8125 210.90625 C 732.07031 210.90625 733.50781 211.25586 735.09375 211.84375 L 735.09375 211.90625 C 732.27734 213.60156 729.99609 214.375 727.78125 214.375 L 726.9375 214.375 L 726.71875 214.375 C 725.61133 214.375 724.89453 213.89258 724.59375 213.25 C 723.85547 211.69141 723.56055 211.17969 723.21875 210.6875 C 722.75391 210.01758 722.26368 209.78125 721.59375 209.78125 C 720.67774 209.78125 719.5957 210.66602 719.0625 212.375 C 718.65234 213.67383 718.18555 214.375 716.75 214.375 L 716.34375 214.375 L 716 214.375 C 715.39844 214.375 714.90821 214.30472 714.59375 214.03125 C 714.1836 213.67578 714.0625 213.02344 714.0625 212.09375 C 714.0488 209.97462 714.02345 207.83789 713.96875 205.71875 L 713.8125 205.71875 z M 764.75 206.1875 C 764.38086 206.61133 763.99414 207.10156 763.625 207.59375 C 764.17188 208.05859 764.7168 208.49414 765.25 209 C 765.71485 208.60351 766.07422 208.14843 766.375 207.65625 C 765.8418 207.0957 765.31055 206.59766 764.75 206.1875 z M 776.46875 207.71875 C 775.26563 207.71875 774.26758 208.49609 773.625 209.5625 C 773.25586 210.17773 773.03125 210.75586 773.03125 211.34375 C 773.03125 212.5332 773.66797 213.40234 774.625 214.03125 L 774.625 214.09375 C 773.84571 214.3125 773.14453 214.375 772.625 214.375 L 771.75 214.375 L 771.5625 214.375 C 770.23633 214.375 769.49024 214.20312 769.09375 213 C 768.7793 212.07031 768.50586 211.37304 768 210.375 L 767.875 210.375 C 767.51954 210.83984 767.24218 211.32031 766.96875 211.8125 C 767.26953 212.33203 767.59375 213.01953 768.03125 214.03125 C 768.4414 215.2207 768.53125 215.76563 768.53125 216.3125 C 768.53125 216.8457 768.13281 217.2539 767.53125 217.71875 C 766.66992 218.38867 765.3125 218.90625 764.21875 218.90625 C 763.19336 218.90625 762.1582 218.50586 761.625 218 C 761.0918 217.52149 760.71875 216.7871 760.71875 215.625 C 760.71875 214.99609 761.03515 213.93749 761.5 213.0625 L 760.96875 212.78125 C 760.33984 213.82031 759.78125 215.01368 759.78125 216.75 C 759.78125 219.18359 761.42969 220.90625 764 220.90625 C 765.61328 220.90625 767.68164 219.91796 768.625 218.6875 C 768.99414 218.19531 769.40039 216.91211 769.46875 215.53125 L 769.5 215.53125 C 770.01953 215.95508 770.66211 216.125 771.46875 216.125 L 771.75 216.125 L 772.1875 216.125 C 773.28125 216.125 774.32422 215.78906 775.5 215.40625 C 777.16797 214.85937 778.22851 214.73438 780.375 213.96875 L 781.09375 212.28125 L 781.03125 212.21875 C 779.4043 212.76562 778.16406 213.1875 777.125 213.1875 C 776.72852 213.1875 776.00196 212.84766 775.46875 212.4375 C 774.67579 211.82227 774.28125 211.14257 774.28125 210.5 C 774.28125 210.02148 775.33203 209.34375 776.78125 209.34375 C 777.77929 209.34375 778.48047 209.58984 779.21875 210.21875 L 779.5 209.96875 C 778.78906 208.57422 777.74023 207.71875 776.46875 207.71875 z M 750.4375 208.59375 C 750.08203 209.03125 749.73437 209.56836 749.40625 210.15625 C 750.11719 211.55078 750.78125 212.88867 750.78125 213.53125 C 750.78125 213.76367 750.47852 213.94727 750 214.125 C 749.39844 214.34375 748.44336 214.375 747.28125 214.375 L 747.0625 214.375 L 746.8125 214.375 C 745.22656 214.375 744.5293 213.31055 743.75 211.4375 L 743.65625 211.4375 C 743.42383 211.88868 743.17968 212.40235 742.90625 213.03125 C 743.2207 213.6875 743.56055 214.31055 744.09375 215.0625 C 744.27148 215.29492 744.36914 215.52343 744.4375 215.6875 C 744.13672 217.71093 741.73828 219.78125 739.90625 219.78125 C 739.20898 219.78125 738.71289 219.64648 738.34375 219.46875 L 738.125 219.9375 C 739.25977 220.53906 740.53711 221 741.5625 221 C 742.57422 221 743.73242 220.18164 744.8125 218.28125 C 745.18164 217.625 745.375 216.83008 745.375 216.1875 C 745.375 216.03711 745.35745 215.85156 745.34375 215.6875 L 745.40625 215.6875 C 745.74805 216.00195 746.17969 216.125 746.78125 216.125 L 747.0625 216.125 L 747.21875 216.125 C 749.31055 216.125 750.29101 215.92773 750.90625 215.3125 C 751.45312 214.58789 751.875 213.80664 751.875 212.78125 C 751.875 211.42773 751.12891 209.70118 750.5 208.59375 L 750.4375 208.59375 z M 821.71875 208.59375 C 821.36328 209.03125 821.01562 209.56836 820.6875 210.15625 C 821.39843 211.55078 822.0625 212.88867 822.0625 213.53125 C 822.0625 213.76367 821.75976 213.94727 821.28125 214.125 C 820.67969 214.34375 819.75586 214.375 818.59375 214.375 L 818.375 214.375 L 818 214.375 C 816.5918 214.375 815.61719 213.97461 815.5625 212.8125 L 815.53125 212.78125 L 815.03125 213.125 C 815.00395 213.38477 815 213.61523 815 213.875 C 815 215.51562 816.17383 216.125 817.9375 216.125 L 818.375 216.125 L 818.53125 216.125 C 820.62304 216.125 821.60352 215.92773 822.21875 215.3125 C 822.76563 214.58789 823.15625 213.80664 823.15625 212.78125 C 823.15625 211.42773 822.41015 209.70118 821.78125 208.59375 L 821.71875 208.59375 z M 789.40625 208.625 C 788.81836 209.73242 788.625 210.83008 788.625 211.9375 C 788.625 213.60547 789.40821 214.8457 790.625 215.625 C 791.82813 216.39062 793.43945 216.6875 795.3125 216.6875 C 797.00781 216.6875 799.03907 216.27735 800.625 215.8125 C 801.60938 215.5254 802.29882 215.21094 802.75 214.9375 C 803.26953 215.86719 804.19141 216.125 805.53125 216.125 L 805.84375 216.125 L 806.46875 216.125 C 808.68359 216.125 810.56836 215.52929 812.46875 214.3125 L 814.78125 212.8125 C 815.23243 212.52539 815.96875 212.28125 817.0625 212.28125 L 817.9375 210.875 L 817.90625 210.84375 L 816.71875 210.84375 C 815.85742 210.84375 815.03125 210.66602 814.375 210.40625 C 812.21485 209.54492 810.79102 209.21875 809.875 209.21875 C 808.23438 209.21875 807.01562 210.16992 806.90625 211.6875 L 807.59375 213.5 L 807.71875 213.5 L 808.125 212.25 L 807.96875 211.59375 C 808.35156 211.15625 808.93945 210.90625 809.71875 210.90625 C 810.97656 210.90625 812.41406 211.25586 814 211.84375 L 814 211.90625 C 811.18359 213.60156 808.90234 214.375 806.6875 214.375 L 805.84375 214.375 L 805.59375 214.375 C 804.86914 214.375 804.40625 214.24414 803.96875 213.875 C 803.6543 213.61523 803.5 213.26954 803.5 212.75 C 803.5 212.40821 803.6211 211.72656 803.8125 211.125 L 803.71875 211.03125 L 802.8125 211.71875 L 802.1875 213.625 C 801.62695 213.8711 801.00391 214.06836 800.375 214.21875 C 798.85743 214.57422 797.31836 214.8125 795.71875 214.8125 C 794.00977 214.8125 792.49609 214.60742 791.375 213.9375 C 790.29492 213.28125 789.5625 212.20899 789.5625 210.9375 C 789.5625 210.33594 789.70899 209.62304 789.96875 208.84375 L 789.40625 208.625 z M 712.9375 209.40625 L 713 212.78125 C 712.19336 213.04101 711.55664 213.15625 710.96875 213.15625 C 710.03906 213.15625 709.21875 212.90821 709.21875 212.375 C 709.21875 211.6504 710.50391 210.66406 712.9375 209.40625 z M 721.3125 211.375 C 721.90039 211.375 722.52929 211.78711 723.0625 212.59375 C 723.41797 213.14063 723.75 213.87305 723.75 214.40625 C 723.75 214.7207 723.47852 214.75 723.21875 214.75 C 722.74024 214.75 721.95899 214.51171 721.34375 214.15625 C 720.74219 213.81445 719.85547 213.09961 719.71875 212.59375 C 719.96484 211.88282 720.56054 211.375 721.3125 211.375 z M 731.96875 218.15625 C 731.59961 218.58007 731.21289 219.07031 730.84375 219.5625 C 731.39062 220.02734 731.93554 220.46289 732.46875 220.96875 C 732.93359 220.57227 733.29297 220.11718 733.59375 219.625 C 733.06055 219.06445 732.52929 218.5664 731.96875 218.15625 z M 821.1875 218.71875 C 820.81836 219.14258 820.43164 219.63282 820.0625 220.125 C 820.60938 220.58985 821.1543 221.02539 821.6875 221.53125 C 822.15235 221.13476 822.51172 220.67969 822.8125 220.1875 C 822.2793 219.62696 821.74805 219.12891 821.1875 218.71875 z "
       transform="translate(-322.50001,200.51482)"
       id="path2983" />
    <path
       style="font-size:28px;font-style:normal;font-variant:normal;font-weight:normal;font-stretch:normal;text-align:end;line-height:125%;letter-spacing:0px;word-spacing:0px;text-anchor:end;fill:#000000;fill-opacity:1;stroke:none;font-family:Adobe Arabic;-inkscape-font-specification:Adobe Arabic"
       d="m 327.83928,515.02375 c -0.17773,0.21875 -0.32227,0.42774 -0.5,0.6875 0.30078,0.65625 0.45508,1.22851 0.46875,1.40625 -0.0684,0.082 -0.20312,0.125 -0.3125,0.125 -0.13672,0 -0.30078,-0.0293 -0.4375,-0.125 -0.28711,-0.13672 -0.50391,-0.60157 -0.53125,-1.3125 l -0.0312,-0.0312 c -0.17774,0.10938 -0.28711,0.23828 -0.4375,0.375 l 0.0625,0.9375 c 0,0.27344 -0.16016,0.625 -0.625,0.625 -0.28711,0 -0.4375,-0.26367 -0.4375,-0.6875 0,-0.24609 0.0566,-0.50782 0.125,-0.78125 l -0.0625,0 c -0.16406,0.0957 -0.30469,0.18945 -0.46875,0.3125 -0.082,0.30078 -0.125,0.60547 -0.125,0.90625 0,0.38281 0.0508,0.69531 0.1875,0.96875 0.15039,0.23242 0.37695,0.40625 0.71875,0.40625 0.38281,0 0.80859,-0.27539 1.21875,-0.78125 l 0.0625,0 c 0.2461,0.20508 0.5293,0.28125 0.84375,0.28125 0.3418,0 0.60351,-0.20313 0.78125,-0.75 0.082,-0.25977 0.0625,-0.53515 0.0625,-0.78125 0,-0.35546 -0.14453,-1.05664 -0.5,-1.78125 l -0.0625,0 z M 213.40178,518.93 c -0.3418,0.35547 -0.73828,0.78906 -1.09375,1.28125 0.54687,0.45117 1.06445,0.90429 1.625,1.4375 0.38281,-0.35547 0.64844,-0.70312 1.03125,-1.25 -0.5332,-0.57421 -1.00196,-1.03125 -1.5625,-1.46875 z m 53.4375,0 c -0.34179,0.35547 -0.70703,0.78906 -1.0625,1.28125 0.54687,0.45117 1.0332,0.90429 1.59375,1.4375 0.38281,-0.35547 0.64844,-0.70312 1.03125,-1.25 -0.5332,-0.57421 -1.00195,-1.03125 -1.5625,-1.46875 z m -56.0625,0.15625 c -0.34179,0.35547 -0.73829,0.82031 -1.09375,1.3125 0.54687,0.45117 1.03321,0.9043 1.59375,1.4375 0.38282,-0.35547 0.64844,-0.73438 1.03125,-1.28125 -0.53321,-0.57422 -0.9707,-1.03125 -1.53125,-1.46875 z m 53.4375,0 c -0.34179,0.35547 -0.73828,0.82031 -1.09375,1.3125 0.54688,0.45117 1.03321,0.9043 1.59375,1.4375 0.38282,-0.35547 0.67968,-0.73438 1.0625,-1.28125 -0.53321,-0.57422 -1.00195,-1.03125 -1.5625,-1.46875 z m -34,0.21875 c -0.39648,0.31445 -0.81641,0.77539 -1.28125,1.28125 0.20507,2.89843 0.34375,5.62109 0.34375,8.21875 0,2.00976 0.041,2.96485 0.875,3.8125 0.56055,0.56055 1.23242,0.78125 2.3125,0.78125 l 0.15625,0 0.625,0 c 2.21484,0 4.09961,-0.62696 6,-1.84375 l 2.28125,-1.46875 c 0.45118,-0.28711 1.21875,-0.53125 2.3125,-0.53125 l 0.84375,-1.40625 0,-0.0312 -1.1875,0 c -0.86133,0 -1.6875,-0.17773 -2.34375,-0.4375 -2.16015,-0.86132 -3.58398,-1.1875 -4.5,-1.1875 -1.64062,0 -2.85938,0.95117 -2.96875,2.46875 l 0.6875,1.8125 0.125,0 0.40625,-1.25 -0.15625,-0.6875 c 0.38281,-0.4375 0.9707,-0.65625 1.75,-0.65625 1.25781,0 2.69531,0.34961 4.28125,0.9375 l -0.0312,0.0625 c -2.81641,1.69531 -5.06641,2.46875 -7.28125,2.46875 l -0.84375,0 -0.1875,0 c -0.17774,0 -0.53321,-0.0332 -0.875,-0.15625 -0.53321,-0.19141 -1.03125,-0.59375 -1.03125,-1.46875 l 0,-0.75 c 0,-3.36328 0,-6.91211 -0.21875,-9.90625 l -0.0937,-0.0625 z m -4.5625,0.0312 c -0.30078,0.25976 -0.55859,0.51758 -0.75,0.75 -0.27343,0.30078 -0.40625,0.60547 -0.40625,0.90625 0,0.50586 0.10153,1.08985 0.15625,1.71875 0.21875,2.51562 0.34766,4.90625 0.375,7.09375 0,0.71093 -0.24023,1.19531 -0.71875,1.46875 -0.58789,0.31445 -1.09375,0.375 -1.53125,0.375 l -0.28125,0 -0.25,0 c -0.72461,0 -1.28125,-0.17578 -1.71875,-0.53125 -0.32812,-0.25976 -0.4375,-0.67774 -0.4375,-1.15625 0,-0.30078 0.1211,-0.86523 0.3125,-1.5625 l -0.0937,-0.125 -0.9375,0.6875 -0.40625,1.5 c -0.20508,0.7793 -1.29102,1.1875 -2.34375,1.1875 l -0.3125,0 -0.3125,0 c -0.60156,0 -1.12304,-0.0703 -1.4375,-0.34375 -0.41015,-0.35547 -0.53125,-1.00782 -0.53125,-1.9375 -0.0137,-2.11914 -0.008,-4.25586 -0.0625,-6.375 l -0.15625,0 c -0.36914,0.32813 -0.75195,0.72851 -1.09375,1.125 l 0.0937,1.03125 c -2.35156,1.29882 -3.82812,2.56055 -4.375,3.75 -0.30078,0.65625 -0.4375,1.19727 -0.4375,1.59375 0,1.09375 1.03321,1.625 2.46875,1.625 1.06641,0 1.93945,-0.28321 2.71875,-0.625 0.51953,1.54492 1.50391,1.90625 2.84375,1.90625 l 0.28125,0 0.28125,0 c 1.17578,0 2.25391,-0.49024 2.71875,-1.40625 l 0.0312,0 c 0.46484,1.02539 1.47265,1.40625 2.8125,1.40625 l 0.34375,0 0.1875,0 c 0.5332,0 1.18555,-0.13281 1.71875,-0.40625 0.62891,-0.31445 0.96289,-0.89648 1.25,-1.59375 0.39649,-0.82031 0.53125,-1.96093 0.53125,-3.4375 0,-1.51757 -0.13281,-3.14648 -0.1875,-4.71875 0.32813,-0.23242 0.62891,-0.48633 0.875,-0.71875 -0.71093,-1.17578 -1.12109,-2.23633 -1.09375,-3.125 l -0.125,-0.0625 z m 22.65625,0 c -0.30078,0.25976 -0.55859,0.51758 -0.75,0.75 -0.27344,0.30078 -0.40625,0.60547 -0.40625,0.90625 0,0.50586 0.10153,1.08985 0.15625,1.71875 0.21875,2.51562 0.34765,4.90625 0.375,7.09375 0,0.71093 -0.24024,1.19531 -0.71875,1.46875 -0.58789,0.31445 -1.09375,0.375 -1.53125,0.375 l -0.3125,0 -0.34375,0 c -1.40821,0 -2.38281,-0.43164 -2.4375,-1.59375 l -0.0312,0 -0.5,0.3125 c -0.0273,0.25977 -0.0312,0.52148 -0.0312,0.78125 0,1.64062 1.17383,2.25 2.9375,2.25 l 0.40625,0 0.21875,0 c 0.5332,0 1.18555,-0.13281 1.71875,-0.40625 0.62891,-0.31445 0.96289,-0.89648 1.25,-1.59375 0.39648,-0.82031 0.53125,-1.96093 0.53125,-3.4375 0,-1.51757 -0.13281,-3.14648 -0.1875,-4.71875 0.32813,-0.23242 0.62891,-0.48633 0.875,-0.71875 -0.71094,-1.17578 -1.15235,-2.23633 -1.125,-3.125 l -0.0937,-0.0625 z m 58,0 c -0.30078,0.25976 -0.55859,0.51758 -0.75,0.75 -0.27343,0.30078 -0.40625,0.60547 -0.40625,0.90625 0,0.50586 0.0703,1.08985 0.125,1.71875 0.21875,2.51562 0.37891,4.90625 0.40625,7.09375 0,0.71093 -0.24023,1.19531 -0.71875,1.46875 -0.58789,0.31445 -1.09375,0.375 -1.53125,0.375 l -0.3125,0 -0.15625,0 c -0.38282,0 -0.76953,-0.1211 -1.125,-0.3125 -0.61523,-0.38281 -0.96485,-1.30469 -1.15625,-2.34375 -0.20508,-1.17578 -0.32031,-1.82422 -0.375,-2.125 l -0.125,0 c -0.45118,0.72461 -0.71875,1.51563 -1.15625,1.84375 -0.28711,0.23243 -0.6543,0.34375 -0.96875,0.34375 -0.45118,0 -0.8418,-0.0625 -1.15625,-0.28125 -0.28711,-0.21875 -0.64453,-0.54687 -1,-0.875 l -0.125,0 -0.4375,1.75 c 0.71094,0.75196 1.40429,1.48243 1.71875,2.34375 0,0.51953 -0.49609,1.16797 -1.125,1.90625 -1.0664,1.25781 -2.3418,1.9375 -3.75,1.9375 -0.46484,0 -0.92578,-0.17969 -1.28125,-0.34375 l -0.1875,0.4375 c 1.3125,0.65625 2.37305,1.09375 3.5625,1.09375 0.71093,0 1.77148,-0.70899 2.6875,-2.0625 0.5332,-0.79297 0.75391,-1.57031 0.78125,-1.84375 0.0274,-0.38281 0.0312,-0.55469 0.0312,-0.71875 0,-0.61523 -0.0235,-1.17773 -0.1875,-1.875 0.90234,0.0547 1.62109,-0.63476 2.03125,-1.46875 l 0.0625,0 0.34375,1.40625 c 0.54687,2.21485 1.2168,2.9375 2.84375,2.9375 l 0.25,0 0.21875,0 c 0.5332,0 1.18555,-0.13281 1.71875,-0.40625 0.62891,-0.31445 0.93165,-0.89648 1.21875,-1.59375 0.39649,-0.82031 0.5625,-1.96093 0.5625,-3.4375 0,-1.51757 -0.13281,-3.14648 -0.1875,-4.71875 0.32813,-0.23242 0.62891,-0.48633 0.875,-0.71875 -0.71093,-1.17578 -1.15234,-2.23633 -1.125,-3.125 l -0.0937,-0.0625 z m -53.40625,0.28125 c -0.42383,0.38281 -0.96094,0.94531 -1.34375,1.4375 0.21875,2.36523 0.46875,5.99805 0.46875,8.5 l 0,1.34375 c 0,0.90234 0.0117,1.88867 -0.125,2.75 l 0.15625,0.0937 c 0.79297,-0.875 1.17774,-1.4668 1.21875,-2.21875 0.0684,-0.60156 0.0937,-1.41601 0.0937,-2.25 0,-3.18554 -0.0879,-6.64453 -0.375,-9.625 l -0.0937,-0.0312 z m 57.96875,0 c -0.42382,0.38281 -0.92969,0.94531 -1.3125,1.4375 0.21875,2.36523 0.46875,5.99805 0.46875,8.5 l 0,1.34375 c 0,0.90234 -0.0196,1.88867 -0.15625,2.75 l 0.1875,0.0937 c 0.79297,-0.875 1.17773,-1.4668 1.21875,-2.21875 0.0684,-0.60156 0.0937,-1.41601 0.0937,-2.25 0,-3.18554 -0.0879,-6.64453 -0.375,-9.625 l -0.125,-0.0312 z m 17.625,0.53125 c -0.3418,0.35547 -0.70703,0.82031 -1.0625,1.3125 0.54688,0.45117 1.03321,0.87305 1.59375,1.40625 0.38281,-0.35546 0.64844,-0.70312 1.03125,-1.25 -0.5332,-0.57422 -1.00195,-1.03125 -1.5625,-1.46875 z m -2.625,0.1875 c -0.3418,0.35546 -0.73828,0.78907 -1.09375,1.28125 0.54688,0.45118 1.06445,0.9043 1.625,1.4375 0.38281,-0.35547 0.64844,-0.70313 1.03125,-1.25 -0.5332,-0.57422 -1.00195,-1.03125 -1.5625,-1.46875 z m -25.09375,2.15625 c -0.3418,0.35547 -0.73828,0.78906 -1.09375,1.28125 0.54687,0.45117 1.0332,0.9043 1.59375,1.4375 0.38281,-0.35546 0.67969,-0.73437 1.0625,-1.28125 -0.5332,-0.57422 -1.00196,-1 -1.5625,-1.4375 z m -2.65625,0.15625 c -0.34179,0.35547 -0.70703,0.82032 -1.0625,1.3125 0.54687,0.45117 1.0332,0.87305 1.59375,1.40625 0.38281,-0.35547 0.64844,-0.70313 1.03125,-1.25 -0.5332,-0.57422 -1.00195,-1.03125 -1.5625,-1.46875 z m -30.875,0.34375 c -0.36914,0.32813 -0.75195,0.72851 -1.09375,1.125 l 0.0937,1.03125 c -2.35156,1.29882 -3.82812,2.56055 -4.375,3.75 -0.30078,0.65625 -0.4375,1.19727 -0.4375,1.59375 0,1.09375 1.06446,1.625 2.5,1.625 1.06641,0 1.90821,-0.28321 2.6875,-0.625 0.51954,1.54492 1.50391,1.90625 2.84375,1.90625 l 0.28125,0 0.21875,0 c 1.47656,0 2.33593,-0.75 2.71875,-1.625 l 0.0625,0 c 1.09375,1.17578 2.82227,1.95117 3.875,1.9375 0.31446,0 0.58789,-0.16797 0.875,-0.46875 0.21875,-0.2461 0.35547,-0.59376 0.4375,-1.03125 l 0.0625,0 c 0.57422,0.91601 1.33204,1.1875 2.125,1.1875 l 0.25,0 0.71875,0 c 2.13281,0 4.07422,-0.6543 5.90625,-1.84375 l 2.28125,-1.46875 c 0.45117,-0.28711 1.22656,-0.52734 2.375,-0.5 l 0.71875,-1.4375 -0.0312,-0.0312 -1.125,0 c -0.86133,-0.0137 -1.6875,-0.17773 -2.34375,-0.4375 -2.13281,-0.86132 -3.55273,-1.1875 -4.46875,-1.1875 -1.64062,0 -2.85938,0.95117 -2.96875,2.46875 l 0.65625,1.8125 0.15625,0 0.40625,-1.25 -0.15625,-0.6875 c 0.38281,-0.4375 0.93945,-0.65625 1.71875,-0.65625 1.25781,0 2.72656,0.34961 4.3125,0.9375 l -0.0312,0.0625 c -2.8164,1.69531 -5.0664,2.46875 -7.28125,2.46875 l -0.84375,0 -0.25,0 c -1.10742,0 -1.82421,-0.48242 -2.125,-1.125 -0.73828,-1.55859 -1.03321,-2.07031 -1.375,-2.5625 -0.46485,-0.66992 -0.95508,-0.90625 -1.625,-0.90625 -0.91601,0 -1.99805,0.88477 -2.53125,2.59375 -0.41016,1.29883 -0.87696,2 -2.3125,2 l -0.40625,0 -0.3125,0 c -0.60156,0 -1.12304,-0.0703 -1.4375,-0.34375 -0.41015,-0.35547 -0.53125,-1.00782 -0.53125,-1.9375 -0.0137,-2.11914 -0.008,-4.25586 -0.0625,-6.375 l -0.15625,0 z m 61.0625,2.03125 c -0.90234,0 -1.77149,0.78125 -2.25,1.65625 -0.27344,0.49218 -0.5,1.10157 -0.5,1.59375 0,1.01172 0.20312,1.7168 0.96875,2.25 0.60156,0.41016 1.48828,0.59375 2.5,0.59375 0.58789,0 1.11132,-0.0742 1.5625,-0.15625 0.10937,0.25977 0.1875,0.55274 0.1875,0.8125 0,0.38282 -0.85351,1.0957 -1.6875,1.65625 -1.51757,0.99805 -3.10352,1.3125 -4.375,1.3125 -2.50195,0 -4.28125,-1.78515 -4.28125,-4.65625 0,-0.69726 0.19531,-1.44336 0.46875,-2.25 L 320.30803,527.68 c -0.50586,1.05274 -0.8125,2.44922 -0.8125,3.84375 0,3.33594 2.4629,5.1875 5.15625,5.1875 2.33789,0 4.41016,-1.12305 5.75,-2.3125 0.45117,-0.41016 0.93164,-1.01758 1,-1.46875 0.16406,-0.58789 0.21875,-1.25781 0.21875,-1.96875 0,-1.14843 -0.36523,-2.5332 -0.625,-3.3125 -0.71093,-1.76367 -1.58008,-2.625 -2.6875,-2.625 z m 9.1875,1.3125 c -0.34179,0.56055 -0.6543,1.13086 -0.96875,1.71875 0.60156,0.91602 1.13282,1.90625 1.625,3 0.082,0.23242 0.1875,0.48632 0.1875,0.71875 0,0.15039 -0.0156,0.36133 -0.125,0.59375 -0.90234,2.02343 -2.88477,3.67383 -4.8125,3.6875 -0.60156,0 -1.10742,-0.082 -1.53125,-0.21875 l -0.125,0.4375 c 1.33985,0.6836 2.48828,1.0625 3.5,1.0625 0.68359,0 1.41602,-0.375 2.25,-1.25 1.06641,-1.28516 1.71875,-2.56446 1.71875,-3.78125 l 0,-1.5 c 0,-1.17578 -0.33203,-1.9414 -0.6875,-2.625 l -0.96875,-1.84375 -0.0625,0 z m -124.59375,0.3125 0.0625,3.375 c -0.80664,0.25976 -1.44336,0.40625 -2.03125,0.40625 -0.92969,0 -1.75,-0.24804 -1.75,-0.78125 0,-0.7246 1.28515,-1.74218 3.71875,-3 z m 53.4375,0 0.0625,3.375 c -0.80664,0.25976 -1.44336,0.40625 -2.03125,0.40625 -0.92969,0 -1.75,-0.24804 -1.75,-0.78125 0,-0.7246 1.28515,-1.74218 3.71875,-3 z m 61.71875,0.15625 c 1.01172,0 1.81641,0.91016 2.28125,2.46875 -0.3418,0.0684 -0.75781,0.0625 -1.25,0.0625 -1.92773,0 -2.6875,-0.67578 -2.6875,-1.25 0,-0.66992 0.87695,-1.28125 1.65625,-1.28125 z m -53.34375,1.8125 c 0.58789,0 1.2168,0.44336 1.75,1.25 0.35547,0.54688 0.6875,1.2793 0.6875,1.8125 0,0.31446 -0.24024,0.34375 -0.5,0.34375 -0.47852,0 -1.25977,-0.23829 -1.875,-0.59375 -0.60156,-0.3418 -1.48828,-1.05664 -1.625,-1.5625 0.24609,-0.71093 0.81055,-1.25 1.5625,-1.25 z m 10.65625,6.8125 c -0.36914,0.42383 -0.72461,0.91406 -1.09375,1.40625 0.54688,0.46484 1.06055,0.90039 1.59375,1.40625 0.46485,-0.39648 0.85547,-0.85156 1.15625,-1.34375 -0.5332,-0.56055 -1.09571,-1.0586 -1.65625,-1.46875 z m -65.09375,0.53125 c -0.3418,0.35547 -0.70703,0.78906 -1.0625,1.28125 0.54687,0.45117 1.0332,0.9043 1.59375,1.4375 0.38281,-0.35547 0.64844,-0.70313 1.03125,-1.25 -0.5332,-0.57422 -1.00196,-1.03125 -1.5625,-1.46875 z m -2.625,0.1875 c -0.3418,0.35547 -0.73828,0.78906 -1.09375,1.28125 0.54687,0.45117 1.0332,0.90429 1.59375,1.4375 0.38281,-0.35547 0.67969,-0.73437 1.0625,-1.28125 -0.5332,-0.57421 -1.00196,-1 -1.5625,-1.4375 z M 298.43303,554.18 c -0.36914,0.42382 -0.75586,0.88281 -1.125,1.375 0.54688,0.46484 1.09179,0.90039 1.625,1.40625 0.46484,-0.39648 0.82422,-0.85157 1.125,-1.34375 -0.5332,-0.56055 -1.06446,-1.02735 -1.625,-1.4375 z m -36.3125,0.125 c -0.39649,0.31445 -0.81641,0.77539 -1.28125,1.28125 0.20508,2.89843 0.375,5.62109 0.375,8.21875 0,2.00976 0.01,2.96485 0.84375,3.8125 0.56054,0.56055 1.23242,0.78125 2.3125,0.78125 l 0.15625,0 0.25,0 c 0.92969,0 2.16992,-0.25977 3.90625,-0.875 1.73632,0.61523 3.10156,0.875 4.46875,0.875 l 0.40625,0 0.21875,0 c 0.53321,0 1.1543,-0.13281 1.6875,-0.40625 0.6289,-0.31445 0.96289,-0.89648 1.25,-1.59375 0.39648,-0.82031 0.5625,-1.96093 0.5625,-3.4375 0,-1.51757 -0.13281,-3.14648 -0.1875,-4.71875 0.32812,-0.23242 0.59765,-0.48633 0.84375,-0.71875 -0.71094,-1.17578 -1.1211,-2.23633 -1.09375,-3.125 l -0.0937,-0.0625 c -0.30078,0.25976 -0.55859,0.51758 -0.75,0.75 -0.27344,0.30078 -0.40625,0.60547 -0.40625,0.90625 0,0.50586 0.0703,1.08985 0.125,1.71875 0.21875,2.51562 0.3789,4.90625 0.40625,7.09375 0,0.71093 -0.24024,1.19531 -0.71875,1.46875 -0.58789,0.31445 -1.09375,0.375 -1.53125,0.375 l -0.3125,0 -0.4375,0 c -0.91602,0 -1.60547,-0.0996 -2.125,-0.25 0.54688,-0.94335 0.90625,-1.92969 0.90625,-3.1875 0,-0.66992 -0.20313,-1.30859 -0.53125,-1.9375 -0.50586,-0.9707 -1.10157,-1.5 -1.59375,-1.5 -0.49219,0 -1.35156,0.48437 -2.0625,1.25 -0.91601,0.95703 -1.21875,2.17969 -1.21875,3.21875 0,0.66992 0.0312,1.35547 0.46875,2.09375 -0.60156,0.13672 -1.43555,0.3125 -2.1875,0.3125 l -0.25,0 -0.1875,0 c -0.17773,0 -0.5332,-0.0332 -0.875,-0.15625 -0.5332,-0.19141 -1.03125,-0.59375 -1.03125,-1.46875 l 0,-0.75 c 0,-3.36328 0,-6.91211 -0.21875,-9.90625 l -0.0937,-0.0625 z m -4.53125,0.0312 c -0.30078,0.25976 -0.55859,0.51758 -0.75,0.75 -0.27344,0.30078 -0.4375,0.60547 -0.4375,0.90625 0,0.50586 0.10153,1.08985 0.15625,1.71875 0.21875,2.51562 0.34765,4.90625 0.375,7.09375 0,0.71093 -0.24024,1.19531 -0.71875,1.46875 -0.58789,0.31445 -1.09375,0.375 -1.53125,0.375 l -0.28125,0 -0.25,0 c -0.72461,0 -1.23633,-0.17578 -1.6875,-0.53125 -0.35547,-0.27344 -0.46875,-0.64063 -0.46875,-1.1875 0,-0.4375 0.16211,-1.09375 0.3125,-1.53125 l -0.0937,-0.125 -0.875,0.6875 -0.59375,1.9375 c -0.56055,0.2461 -1.1836,0.44336 -1.8125,0.59375 -1.51758,0.35546 -3.08789,0.59375 -4.6875,0.59375 -1.70899,0 -3.22266,-0.20508 -4.34375,-0.875 -1.08008,-0.65625 -1.78125,-1.75976 -1.78125,-3.03125 0,-0.60156 0.11523,-1.2832 0.375,-2.0625 l -0.53125,-0.25 c -0.58789,1.10742 -0.8125,2.20508 -0.8125,3.3125 0,1.66797 0.7832,2.93945 2,3.71875 1.20312,0.76562 2.81446,1.0625 4.6875,1.0625 1.69531,0 3.72656,-0.41016 5.3125,-0.875 0.98437,-0.28711 1.67383,-0.60157 2.125,-0.875 0.51953,0.92968 1.47266,1.1875 2.8125,1.1875 l 0.3125,0 0.1875,0 c 0.53321,0 1.18555,-0.13281 1.71875,-0.40625 0.6289,-0.31445 0.96289,-0.89648 1.25,-1.59375 0.39648,-0.82031 0.53125,-1.96093 0.53125,-3.4375 0,-1.51757 -0.10156,-3.14648 -0.15625,-4.71875 0.32813,-0.23242 0.59765,-0.48633 0.84375,-0.71875 -0.71094,-1.17578 -1.1211,-2.23633 -1.09375,-3.125 l -0.0937,-0.0625 z m 74.90625,0 c -0.30078,0.25976 -0.5586,0.51758 -0.75,0.75 -0.27344,0.30078 -0.40625,0.60547 -0.40625,0.90625 0,0.50586 0.10156,1.08985 0.15625,1.71875 0.21875,2.51562 0.3164,4.67188 0.34375,6.3125 0,0.49219 -0.004,1.00782 -0.0312,1.5 -0.31445,0.39649 -0.92383,0.76758 -2.46875,1 l -0.65625,1.40625 0.125,0.125 c 2.02344,0.15039 4.28125,0.60547 4.28125,1.125 -0.31445,0.42382 -1.02148,0.95118 -1.71875,1.375 -1.24414,0.75196 -2.625,1.03125 -3.9375,1.03125 -1.28515,0 -2.31836,-0.57813 -3.125,-1.5625 -0.57422,-0.82031 -0.78125,-1.7168 -0.78125,-2.6875 0,-0.94336 0.23828,-1.87696 0.59375,-2.875 l -0.53125,-0.21875 c -0.56055,1.28515 -1.03125,2.64062 -1.03125,4.28125 0,1.46289 0.50782,2.70313 1.4375,3.6875 0.76563,0.72461 1.96875,1.28125 3.28125,1.28125 1.80469,0 3.97852,-0.67579 6.125,-2.78125 0.41016,-0.79297 0.5625,-1.3789 0.5625,-1.84375 0,-1.14843 -0.26172,-1.61719 -1.875,-2 0.73828,-1.27149 0.875,-2.42968 0.875,-3.90625 0,-1.51757 -0.10156,-3.11524 -0.15625,-4.6875 0.32812,-0.23242 0.66016,-0.51758 0.90625,-0.75 -0.71093,-1.17578 -1.15234,-2.23633 -1.125,-3.125 l -0.0937,-0.0625 z m -51.1875,0.28125 c -0.42383,0.38281 -0.96093,0.94531 -1.34375,1.4375 0.21875,2.36523 0.5,5.99805 0.5,8.5 l 0,1.34375 c 0,0.90234 -0.0196,1.88867 -0.15625,2.75 l 0.1875,0.0937 c 0.79296,-0.875 1.14649,-1.4668 1.1875,-2.21875 0.0684,-0.60156 0.0937,-1.41601 0.0937,-2.25 0,-3.18554 -0.0567,-6.64453 -0.34375,-9.625 l -0.125,-0.0312 z m 9.8125,0 c -0.42382,0.38281 -0.96094,0.94531 -1.34375,1.4375 0.21875,2.36523 0.5,5.99805 0.5,8.5 l 0,1.34375 c 0,0.90234 -0.0196,1.88867 -0.15625,2.75 l 0.1875,0.0937 c 0.79297,-0.875 1.14648,-1.4668 1.1875,-2.21875 0.0684,-0.60156 0.125,-1.41601 0.125,-2.25 0,-3.18554 -0.0879,-6.64453 -0.375,-9.625 l -0.125,-0.0312 z m 46.96875,0 c -0.42383,0.38281 -0.92968,0.94531 -1.3125,1.4375 0.21875,2.36523 0.46875,5.99805 0.46875,8.5 l 0,1.34375 c 0,0.90234 0.0117,1.88867 -0.125,2.75 l 0.15625,0.0937 c 0.79297,-0.875 1.17773,-1.4668 1.21875,-2.21875 0.0684,-0.60156 0.0937,-1.41601 0.0937,-2.25 0,-3.18554 -0.0879,-6.64453 -0.375,-9.625 l -0.125,-0.0312 z m -68,0.6875 c -0.3418,0.35547 -0.70703,0.78906 -1.0625,1.28125 0.54688,0.45117 1.03321,0.9043 1.59375,1.4375 0.38281,-0.35546 0.64844,-0.73437 1.03125,-1.28125 -0.5332,-0.57422 -1.00195,-1 -1.5625,-1.4375 z m -2.625,0.15625 c -0.3418,0.35547 -0.73828,0.82032 -1.09375,1.3125 0.54688,0.45117 1.06445,0.87305 1.625,1.40625 0.38281,-0.35547 0.64844,-0.70313 1.03125,-1.25 -0.5332,-0.57422 -1.00195,-1.03125 -1.5625,-1.46875 z m 32.25,3 c -0.35546,0.4375 -0.6543,0.92773 -0.96875,1.40625 0.64258,2.33788 1.15625,4.13282 1.15625,5.0625 0,0.32813 -0.40039,0.74415 -0.90625,1.03125 -0.64257,0.36914 -1.49414,0.6875 -2.21875,0.6875 -1.3125,0 -1.88281,-0.70899 -1.9375,-1.84375 l -0.53125,0.0625 c -0.0273,0.3418 -0.0312,0.65821 -0.0312,1 0,1.59961 0.84375,2.53125 2.375,2.53125 0.91602,0 1.84766,-0.35937 2.75,-0.90625 0.58789,-0.35547 0.85938,-0.79297 0.96875,-1.3125 l 0.0937,0 c 0.53321,1.70899 1.55078,2.21875 2.78125,2.21875 l 0.25,0 0.3125,0 c 1.05274,0 2.23242,-0.30859 3.75,-0.9375 1.79101,0.57422 3.52148,0.9375 4.65625,0.9375 1.87304,0 2.71875,-1.20899 2.71875,-2.5625 0,-1.2168 -0.49805,-2.03515 -1.6875,-2.9375 -1.58594,-1.20312 -3.51367,-2.38476 -4.8125,-3.65625 l -0.0937,0 c -0.12304,0.46485 -0.20898,0.9375 -0.25,1.375 -0.5332,0.30078 -0.96094,0.76172 -1.34375,1.28125 -0.60157,0.83398 -0.875,1.63476 -0.875,2.46875 0,0.64257 0.0937,1.30079 0.3125,1.875 -0.84766,0.32813 -1.76758,0.40625 -2.4375,0.40625 l -0.25,0 -0.21875,0 c -1.02539,0 -1.91015,-0.70899 -2.15625,-2.0625 -0.36914,-2.00977 -0.80665,-4.125 -1.3125,-6.09375 l -0.0937,-0.0312 z m -30.25,3.3125 c 0.56055,0 1.00586,0.52539 1.375,1.25 0.13672,0.27344 0.3125,0.72656 0.3125,1.21875 0,0.56054 -1.21289,1.46485 -2.15625,1.65625 -1.17578,-0.35546 -1.68359,-1.05078 -1.875,-1.84375 0.2461,-1.01171 1.27735,-2.28125 2.34375,-2.28125 z m 39.34375,0.375 c 0.58789,0 1.40625,1.03906 1.40625,2.1875 0,0.75195 -1.48633,1.33007 -2.15625,1.5625 -0.99805,-0.50586 -1.5,-1.15625 -1.5,-1.59375 0,-0.71094 1.22461,-2.15625 2.25,-2.15625 z m 2.34375,1.15625 c 1.72265,1.09375 2.9375,2.04883 2.9375,2.9375 0,0.35547 -0.70312,0.625 -1.46875,0.625 -0.99804,0 -1.79297,-0.12891 -2.53125,-0.375 0.60156,-1.05274 0.95312,-2.09375 1.0625,-3.1875 z m 26.78125,6.09375 c -0.56054,0 -1.12305,0.30274 -1.65625,0.78125 -0.39649,0.39649 -0.625,0.84961 -0.625,1.21875 0,0.58789 0.41992,0.9961 1.0625,1.1875 l 0,0.0312 c -0.23243,0.082 -0.50195,0.31836 -0.625,0.46875 l -0.34375,0.5625 0.0312,0.0312 c 0.99804,-0.45117 2.19531,-0.78125 3.5625,-1 0.1914,-0.27343 0.36719,-0.59571 0.53125,-0.9375 l 0,-0.0312 c -0.46484,0.0273 -0.94141,0.0312 -1.40625,0.0312 -0.80664,0 -1.9375,-0.21875 -1.9375,-0.875 0,-0.20508 0.45899,-0.46875 0.9375,-0.46875 0.16406,0 0.3418,0.004 0.4375,0.0312 0.15039,0.041 0.28711,0.23047 0.4375,0.53125 l 0.0312,0 c 0.21875,-0.25976 0.4375,-0.51953 0.4375,-0.875 0,-0.35547 -0.32812,-0.6875 -0.875,-0.6875 z m -93.59375,2 c -0.36914,0.42383 -0.75586,0.91406 -1.125,1.40625 0.54688,0.46484 1.09179,0.90039 1.625,1.40625 0.46484,-0.39648 0.82422,-0.85156 1.125,-1.34375 -0.5332,-0.56055 -1.06446,-1.0586 -1.625,-1.46875 z"
       id="path2928" />
    <path
       style="font-size:28px;font-style:normal;font-variant:normal;font-weight:normal;font-stretch:normal;line-height:125%;letter-spacing:0px;word-spacing:0px;fill:#000000;fill-opacity:1;stroke:none;font-family:Adobe Arabic;-inkscape-font-specification:Adobe Arabic"
       d="M 546 120.59375 C 545.60352 120.9082 545.1836 121.36914 544.71875 121.875 C 544.92383 124.77344 545.0625 127.49609 545.0625 130.09375 C 545.0625 132.10351 545.07229 133.08985 545.90625 133.9375 C 546.4668 134.49805 547.16992 134.71875 548.25 134.71875 C 548.29655 134.72366 548.35467 134.71875 548.40625 134.71875 L 548.65625 134.71875 C 549.58594 134.71875 550.82617 134.45898 552.5625 133.84375 C 554.29883 134.45898 555.66407 134.71875 557.03125 134.71875 L 557.40625 134.71875 L 557.625 134.71875 C 558.1582 134.71875 558.81055 134.55469 559.34375 134.28125 C 559.97266 133.9668 560.27539 133.41601 560.5625 132.71875 C 560.95899 131.89843 561.125 130.75781 561.125 129.28125 C 561.125 127.76367 560.99219 126.10351 560.9375 124.53125 C 561.26563 124.29882 561.56641 124.07617 561.8125 123.84375 C 561.10156 122.66797 560.66015 121.60742 560.6875 120.71875 L 560.59375 120.625 C 560.29296 120.88477 560.03516 121.14258 559.84375 121.375 C 559.57032 121.67579 559.4375 122.01172 559.4375 122.3125 C 559.4375 122.81836 559.53904 123.3711 559.59375 124 C 559.8125 126.51563 559.94141 128.90625 559.96875 131.09375 C 559.96875 131.80468 559.72852 132.32031 559.25 132.59375 C 558.66211 132.9082 558.15625 132.96875 557.71875 132.96875 L 557.40625 132.96875 L 556.96875 132.96875 C 556.05273 132.96875 555.36328 132.86914 554.84375 132.71875 C 555.39062 131.77539 555.75 130.78906 555.75 129.53125 C 555.75 128.86133 555.57813 128.22266 555.25 127.59375 C 554.74414 126.62305 554.14844 126.0625 553.65625 126.0625 C 553.16406 126.0625 552.30468 126.57813 551.59375 127.34375 C 550.67773 128.30078 550.34375 129.52344 550.34375 130.5625 C 550.34375 131.23242 550.40624 131.88671 550.84375 132.625 C 550.24219 132.76171 549.37696 132.96875 548.625 132.96875 L 548.40625 132.96875 L 548.21875 132.96875 C 548.04102 132.96875 547.68555 132.93559 547.34375 132.8125 C 546.81055 132.62109 546.3125 132.21875 546.3125 131.34375 L 546.3125 130.5625 C 546.3125 127.19922 546.3125 123.65039 546.09375 120.65625 L 546 120.59375 z M 541.4375 120.625 C 541.13672 120.88477 540.87891 121.14258 540.6875 121.375 C 540.41407 121.67579 540.28125 122.01172 540.28125 122.3125 C 540.28125 122.81836 540.35153 123.3711 540.40625 124 C 540.625 126.51563 540.78516 128.90625 540.8125 131.09375 C 540.8125 131.80468 540.57227 132.32031 540.09375 132.59375 C 539.50586 132.9082 539 132.96875 538.5625 132.96875 L 538.25 132.96875 L 538 132.96875 C 537.27539 132.96875 536.76368 132.79297 536.3125 132.4375 C 535.95704 132.16406 535.84375 131.76563 535.84375 131.21875 C 535.84375 130.78125 536.00586 130.125 536.15625 129.6875 L 536.0625 129.59375 L 535.1875 130.28125 L 534.59375 132.1875 C 534.0332 132.43359 533.41016 132.63086 532.78125 132.78125 C 531.26368 133.13672 529.72461 133.40625 528.125 133.40625 C 526.41602 133.40625 524.90235 133.20117 523.78125 132.53125 C 522.70118 131.875 521.96875 130.77148 521.96875 129.5 C 521.96875 128.89843 522.11524 128.18555 522.375 127.40625 L 521.8125 127.1875 C 521.22461 128.29492 521 129.39258 521 130.5 C 521 132.16797 521.81446 133.4082 523.03125 134.1875 C 524.23437 134.95313 525.84571 135.25 527.71875 135.25 C 529.41407 135.25 531.41407 134.87109 533 134.40625 C 533.98438 134.11914 534.70508 133.77343 535.15625 133.5 C 535.67579 134.42968 536.59765 134.71875 537.9375 134.71875 L 538.25 134.71875 L 538.46875 134.71875 C 539.00195 134.71875 539.62305 134.55469 540.15625 134.28125 C 540.78516 133.9668 541.11914 133.41601 541.40625 132.71875 C 541.80274 131.89843 541.96875 130.75781 541.96875 129.28125 C 541.96875 127.76367 541.83594 126.10351 541.78125 124.53125 C 542.10938 124.29882 542.37891 124.07617 542.625 123.84375 C 541.91407 122.66797 541.50391 121.60742 541.53125 120.71875 L 541.4375 120.625 z M 592.375 120.625 C 592.07422 120.88477 591.8164 121.14258 591.625 121.375 C 591.35156 121.67579 591.1875 122.01172 591.1875 122.3125 C 591.1875 122.81836 591.28903 123.3711 591.34375 124 C 591.5625 126.51563 591.72266 128.90625 591.75 131.09375 C 591.75 131.80468 591.47851 132.32031 591 132.59375 C 590.41211 132.9082 589.90625 132.96875 589.46875 132.96875 L 589.1875 132.96875 L 588.9375 132.96875 C 588.21289 132.96875 587.6875 132.76171 587.25 132.40625 C 586.92187 132.14648 586.78125 131.75976 586.78125 131.28125 C 586.78125 130.98047 586.90234 130.38477 587.09375 129.6875 L 587 129.59375 L 586.0625 130.28125 L 585.65625 131.75 C 585.45117 132.52929 584.36523 132.96875 583.3125 132.96875 L 583 132.96875 L 582.78125 132.96875 C 581.75586 132.96875 580.87109 132.22851 580.625 130.875 C 580.25586 128.86523 579.81836 126.78125 579.3125 124.8125 L 579.25 124.75 C 578.89453 125.18749 578.5957 125.67773 578.28125 126.15625 C 578.92383 128.49414 579.40625 130.32031 579.40625 131.25 C 579.40625 131.57812 579.00586 131.99414 578.5 132.28125 C 577.85742 132.65039 577.00585 132.96875 576.28125 132.96875 C 574.96875 132.96875 574.39844 132.25976 574.34375 131.125 L 573.8125 131.15625 C 573.7851 131.49805 573.78125 131.84571 573.78125 132.1875 C 573.78125 133.78711 574.625 134.71875 576.15625 134.71875 C 577.07226 134.71875 578.0039 134.32813 578.90625 133.78125 C 579.49414 133.42579 579.79688 132.98829 579.90625 132.46875 L 579.96875 132.46875 C 580.50195 134.17774 581.51954 134.71875 582.75 134.71875 L 583 134.71875 L 583.28125 134.71875 C 584.45703 134.71875 585.53515 134.22851 586 133.3125 L 586.0625 133.3125 C 586.52735 134.33789 587.53516 134.71875 588.875 134.71875 L 589.1875 134.71875 L 589.375 134.71875 C 589.90821 134.71875 590.56054 134.55469 591.09375 134.28125 C 591.72265 133.9668 592.05664 133.41601 592.34375 132.71875 C 592.74023 131.89843 592.875 130.75781 592.875 129.28125 C 592.875 127.76367 592.77344 126.10351 592.71875 124.53125 C 593.04687 124.29882 593.3164 124.07617 593.5625 123.84375 C 592.85156 122.66797 592.44141 121.60742 592.46875 120.71875 L 592.375 120.625 z M 565.15625 120.90625 C 564.73242 121.28906 564.22656 121.85156 563.84375 122.34375 C 564.0625 124.70898 564.3125 128.37305 564.3125 130.875 L 564.3125 132.1875 C 564.3125 133.08984 564.3242 134.07617 564.1875 134.9375 L 564.34375 135.03125 C 565.13672 134.15625 565.52149 133.59571 565.5625 132.84375 C 565.6309 132.24219 565.65625 131.39649 565.65625 130.5625 C 565.65625 127.37696 565.56832 123.91797 565.28125 120.9375 L 565.15625 120.90625 z M 553.96875 121.59375 C 553.62696 121.94922 553.23046 122.41406 552.875 122.90625 C 553.42187 123.35742 553.9082 123.77929 554.46875 124.3125 C 554.85156 123.95703 555.14844 123.60938 555.53125 123.0625 C 554.99805 122.48828 554.5293 122.03125 553.96875 121.59375 z M 551.3125 121.78125 C 550.97071 122.13671 550.60547 122.57032 550.25 123.0625 C 550.79688 123.51368 551.28321 123.9668 551.84375 124.5 C 552.22657 124.14453 552.49218 123.76562 552.875 123.21875 C 552.34179 122.64453 551.87305 122.21875 551.3125 121.78125 z M 606.15625 123.09375 C 605.81445 123.44922 605.41797 123.91406 605.0625 124.40625 C 605.60938 124.85742 606.09571 125.2793 606.65625 125.8125 C 607.03906 125.45703 607.33594 125.10937 607.71875 124.5625 C 607.18555 123.98828 606.7168 123.53125 606.15625 123.09375 z M 629.21875 123.09375 C 628.87695 123.44922 628.51172 123.91406 628.15625 124.40625 C 628.70312 124.85742 629.18945 125.2793 629.75 125.8125 C 630.13281 125.45703 630.39844 125.10937 630.78125 124.5625 C 630.24805 123.98828 629.77929 123.53125 629.21875 123.09375 z M 603.5 123.28125 C 603.1582 123.63672 602.79297 124.07031 602.4375 124.5625 C 602.98438 125.01367 603.4707 125.46679 604.03125 126 C 604.41406 125.64453 604.67969 125.29688 605.0625 124.75 C 604.5293 124.17579 604.06055 123.71875 603.5 123.28125 z M 626.59375 123.28125 C 626.25196 123.63672 625.85546 124.07031 625.5 124.5625 C 626.04687 125.01367 626.5332 125.46679 627.09375 126 C 627.47656 125.64453 627.77344 125.29688 628.15625 124.75 C 627.62305 124.17579 627.1543 123.71875 626.59375 123.28125 z M 606.125 127.15625 C 605.76953 127.59375 605.42187 128.13086 605.09375 128.71875 C 605.80469 130.11328 606.46875 131.45117 606.46875 132.09375 C 606.46875 132.32617 606.16601 132.50977 605.6875 132.6875 C 605.08594 132.90625 604.16211 132.96875 603 132.96875 L 602.78125 132.96875 L 601.5625 132.96875 C 601.17969 130.16602 599.88281 128.375 598.625 128.375 C 597.76367 128.375 597.01953 128.93555 596.5 129.6875 C 596.10352 130.24805 595.8125 130.97656 595.8125 131.90625 C 595.8125 133.82031 597.24219 134.71875 600.03125 134.71875 L 600.6875 134.71875 C 600.50977 135.41602 600.0625 135.95508 599.40625 136.625 C 598.23047 137.82813 596.9746 138.5 595.59375 138.5 C 594.77343 138.5 594.12695 138.28711 593.59375 138 L 593.375 138.46875 C 594.6875 139.27539 596.06836 139.84375 597.3125 139.84375 C 598.03711 139.84375 599.54102 139.09961 600.59375 137.5 C 601.16797 136.63868 601.55664 135.58008 601.625 134.71875 L 602.78125 134.71875 L 602.9375 134.71875 C 605.0293 134.71875 606.00977 134.49023 606.625 133.875 C 607.17188 133.15039 607.5625 132.36914 607.5625 131.34375 C 607.5625 129.99023 606.8164 128.26367 606.1875 127.15625 L 606.125 127.15625 z M 629.21875 127.15625 C 628.86329 127.59375 628.51563 128.13086 628.1875 128.71875 C 628.89844 130.11328 629.5625 131.45117 629.5625 132.09375 C 629.5625 132.32617 629.25977 132.50977 628.78125 132.6875 C 628.17969 132.90625 627.25586 132.96875 626.09375 132.96875 L 625.84375 132.96875 L 625.625 132.96875 C 624.85938 132.96875 624.02148 132.61328 623.625 132.09375 C 623.05078 131.36914 622.65234 130.68945 621.96875 129.9375 C 621.25781 129.14453 620.56445 128.48046 619.8125 127.90625 L 619.6875 127.90625 C 618.97656 128.68554 618.01172 129.53516 617 130.4375 C 616.38476 130.97071 615.82617 131.81054 615.59375 132.78125 C 615.44336 133.36914 615.375 133.87696 615.375 134.4375 C 615.375 135.43555 615.88868 137.08008 616.53125 138.84375 C 617.13282 140.48437 617.7168 142.20703 618.03125 143.65625 L 618.21875 143.65625 C 618.35547 143.08203 618.5 142.29883 618.5 141.65625 C 618.5 140.95899 617.76953 138.70313 617.03125 136.40625 C 616.5664 134.94336 616.375 133.99414 616.375 133.40625 C 616.375 132.85938 616.875 132.12891 617.96875 131.28125 C 618.00975 133.63281 619.55078 135.53125 621.4375 135.53125 C 622.32617 135.53125 623.07812 134.50781 623.1875 133.46875 L 623.28125 133.4375 C 623.88281 134.28515 624.49609 134.71875 625.5625 134.71875 L 625.84375 134.71875 L 626 134.71875 C 628.09179 134.71875 629.07227 134.49023 629.6875 133.875 C 630.23437 133.15039 630.65625 132.36914 630.65625 131.34375 C 630.65625 129.99023 629.91016 128.26367 629.28125 127.15625 L 629.21875 127.15625 z M 553.34375 128.09375 C 553.90429 128.09375 554.31836 128.58789 554.6875 129.3125 C 554.82422 129.58594 555 130.07031 555 130.5625 C 555 131.12305 553.78711 131.99609 552.84375 132.1875 C 551.66797 131.83203 551.16015 131.16796 550.96875 130.375 C 551.21484 129.36328 552.27734 128.09375 553.34375 128.09375 z M 619.65625 129.78125 C 620.84571 130.69726 621.44922 131.41016 621.96875 132.09375 C 622.32422 132.5586 622.46875 132.94141 622.46875 133.1875 C 622.46875 133.47461 622.04101 133.6875 621.5625 133.6875 C 620.81054 133.6875 620.27148 133.35547 619.875 133 C 619.25976 132.45312 618.84375 131.69727 618.84375 130.78125 C 618.84375 130.38477 619.4375 130 619.65625 129.78125 z M 598.21875 130.1875 C 598.72461 130.1875 599.21875 130.47656 599.65625 130.96875 C 600.1211 131.47461 600.47461 132.20313 600.625 132.96875 C 599.73633 132.96875 598.9082 132.95508 598.15625 132.75 C 597.30859 132.50391 596.65625 132.10351 596.65625 131.40625 C 596.65625 130.85937 597.45313 130.1875 598.21875 130.1875 z M 586.96875 137.25 C 586.62696 137.60547 586.26172 138.07031 585.90625 138.5625 C 586.45313 139.01367 586.93946 139.43555 587.5 139.96875 C 587.88282 139.61329 588.14843 139.26563 588.53125 138.71875 C 587.99804 138.14453 587.5293 137.6875 586.96875 137.25 z M 584.34375 137.4375 C 584.00195 137.79296 583.60547 138.25782 583.25 138.75 C 583.79688 139.20117 584.28321 139.62305 584.84375 140.15625 C 585.22656 139.80078 585.52344 139.45312 585.90625 138.90625 C 585.37305 138.33203 584.9043 137.87499 584.34375 137.4375 z M 528.1875 137.6875 C 527.81836 138.11133 527.46289 138.60157 527.09375 139.09375 C 527.64062 139.5586 528.1543 139.99414 528.6875 140.5 C 529.15234 140.10351 529.54297 139.64844 529.84375 139.15625 C 529.31055 138.59571 528.74805 138.09766 528.1875 137.6875 z "
       transform="translate(-322.50001,200.51482)"
       id="path2901" />
    <path
       style="fill:none;stroke:#000000;stroke-width:5;stroke-linecap:butt;stroke-linejoin:miter;stroke-miterlimit:4;stroke-opacity:1;stroke-dasharray:none"
       d="M 17.142857,226.6479 200,298.07647 c 0,0 5.77996,-18.23896 25.71429,-32.85714 C 245.64862,250.60115 290,229.50504 290,229.50504"
       id="path3810"
       inkscape:connector-curvature="0"
       sodipodi:nodetypes="cczc" />
    <path
       style="fill:none;stroke:#000000;stroke-width:5;stroke-linecap:butt;stroke-linejoin:miter;stroke-miterlimit:4;stroke-opacity:1;stroke-dasharray:none"
       d="m 267.14286,220.93361 25.71428,10 -14.28571,21.42857"
       id="path3812"
       inkscape:connector-curvature="0" />
    <path
       style="fill:none;stroke:#999999;stroke-width:5;stroke-linecap:butt;stroke-linejoin:miter;stroke-miterlimit:4;stroke-opacity:1;stroke-dasharray:none"
       d="m 435.71429,226.6479 c 0,0 97.14286,25.71427 151.42857,107.14285 54.28571,81.42858 54.28571,174.28572 54.28571,174.28572"
       id="path3814"
       inkscape:connector-curvature="0"
       sodipodi:nodetypes="czc" />
    <path
       style="fill:none;stroke:#999999;stroke-width:5;stroke-linecap:butt;stroke-linejoin:miter;stroke-miterlimit:4;stroke-opacity:1;stroke-dasharray:none"
       d="M 658.1113,488.89903 642.816,511.86157 624.96046,493.30234"
       id="path3812-0"
       inkscape:connector-curvature="0" />
    <path
       style="fill:none;stroke:#999999;stroke-width:5;stroke-linecap:butt;stroke-linejoin:miter;stroke-miterlimit:4;stroke-opacity:1;stroke-dasharray:none"
       d="m 644.28571,559.50504 c 0,0 -24.39468,106.2894 -98.57142,160 -74.17674,53.7106 -108.57143,48.57143 -108.57143,48.57143"
       id="path3834"
       inkscape:connector-curvature="0"
       sodipodi:nodetypes="czc" />
    <path
       style="fill:none;stroke:#999999;stroke-width:5;stroke-linecap:butt;stroke-linejoin:miter;stroke-miterlimit:4;stroke-opacity:1;stroke-dasharray:none"
       d="m 460.76868,781.51064 -24.8269,-12.03536 15.96257,-20.21043"
       id="path3812-0-5"
       inkscape:connector-curvature="0" />
    <path
       style="fill:none;stroke:#999999;stroke-width:5;stroke-linecap:butt;stroke-linejoin:miter;stroke-miterlimit:4;stroke-opacity:1;stroke-dasharray:none"
       d="m 318.57143,778.07647 c 0,0 -122.09137,-27.40674 -177.14286,-131.42858 C 93.125124,548.32797 89.700003,439.75995 160,353.79075"
       id="path3854"
       inkscape:connector-curvature="0"
       sodipodi:nodetypes="ccc" />
    <path
       style="fill:none;stroke:#999999;stroke-width:5;stroke-linecap:butt;stroke-linejoin:miter;stroke-miterlimit:4;stroke-opacity:1;stroke-dasharray:none"
       d="m 136.16402,351.77672 27.56073,-1.27689 -4.37778,25.37913"
       id="path3812-5"
       inkscape:connector-curvature="0" />
    <path
       style="fill:none;stroke:#000000;stroke-width:5;stroke-linecap:butt;stroke-linejoin:miter;stroke-miterlimit:4;stroke-opacity:1;stroke-dasharray:none"
       d="m 345.47169,305.27386 2.52075,27.4749 -25.551,-3.22671"
       id="path3812-3"
       inkscape:connector-curvature="0" />
    <path
       style="fill:none;stroke:#000000;stroke-width:5;stroke-linecap:butt;stroke-linejoin:miter;stroke-miterlimit:4;stroke-opacity:1;stroke-dasharray:none"
       d="m 326.9476,495.70073 -26.98261,-5.75873 10.6747,-23.43749"
       id="path3812-3-6"
       inkscape:connector-curvature="0" />
    <path
       style="font-size:28px;font-style:normal;font-variant:normal;font-weight:normal;font-stretch:normal;line-height:125%;letter-spacing:0px;word-spacing:0px;fill:#000000;fill-opacity:1;stroke:none;font-family:Adobe Arabic;-inkscape-font-specification:Adobe Arabic"
       d="M 137.1875 87.84375 C 136.8457 88.19921 136.44922 88.63282 136.09375 89.125 C 136.64063 89.57617 137.15821 90.0293 137.71875 90.5625 C 138.10156 90.20703 138.36719 89.82812 138.75 89.28125 C 138.2168 88.70703 137.74805 88.28124 137.1875 87.84375 z M 134.5625 88 C 134.2207 88.35547 133.82422 88.82031 133.46875 89.3125 C 134.01563 89.76367 134.50195 90.18555 135.0625 90.71875 C 135.44531 90.36328 135.71094 90.01562 136.09375 89.46875 C 135.56055 88.89453 135.12305 88.4375 134.5625 88 z M 66.625 88.8125 C 66.26954 89.25 65.9707 89.74024 65.65625 90.21875 C 66.29883 92.55664 66.78125 94.35156 66.78125 95.28125 C 66.78125 95.60937 66.41211 96.02539 65.90625 96.3125 C 65.26368 96.68164 64.41211 97 63.6875 97 C 62.375 97 61.80469 96.29102 61.75 95.15625 L 61.21875 95.21875 C 61.19145 95.56054 61.15625 95.87695 61.15625 96.21875 C 61.15625 97.81835 62.03125 98.75 63.5625 98.75 C 64.47852 98.75 65.41016 98.39062 66.3125 97.84375 C 66.90039 97.48828 67.17188 97.05078 67.28125 96.53125 L 67.34375 96.53125 C 67.87696 98.24023 68.89453 98.75 70.125 98.75 L 70.40625 98.75 L 70.5625 98.75 C 72.6543 98.75 73.63476 98.55273 74.25 97.9375 C 74.79687 97.21289 75.1875 96.40039 75.1875 95.375 C 75.1875 94.02149 74.47266 92.32617 73.84375 91.21875 L 73.75 91.21875 C 73.39453 91.65625 73.07813 92.16211 72.75 92.75 C 73.46094 94.14453 74.09375 95.51367 74.09375 96.15625 C 74.09375 96.38867 73.79102 96.57226 73.3125 96.75 C 72.71094 96.96875 71.78711 97 70.625 97 L 70.40625 97 L 70.15625 97 C 69.13086 97 68.2461 96.29101 68 94.9375 C 67.63086 92.92774 67.2246 90.81249 66.71875 88.84375 L 66.625 88.8125 z M 83.1875 88.8125 C 82.83204 89.25 82.5332 89.74024 82.21875 90.21875 C 82.86133 92.55664 83.34375 94.35156 83.34375 95.28125 C 83.34375 95.60937 82.9746 96.02539 82.46875 96.3125 C 81.82617 96.68164 80.94336 97 80.21875 97 C 78.90625 97 78.36718 96.29102 78.3125 95.15625 L 77.78125 95.21875 C 77.75395 95.56054 77.71875 95.87695 77.71875 96.21875 C 77.71875 97.81835 78.5625 98.75 80.09375 98.75 C 81.00977 98.75 81.94141 98.39062 82.84375 97.84375 C 83.43164 97.48828 83.73438 97.05078 83.84375 96.53125 L 83.90625 96.53125 C 84.43946 98.24023 85.45703 98.75 86.6875 98.75 L 86.96875 98.75 L 87.65625 98.75 C 89.78906 98.75 91.76172 98.0957 93.59375 96.90625 L 95.875 95.4375 C 96.32618 95.15039 97.10156 94.91015 98.25 94.9375 L 98.96875 93.5 L 98.90625 93.46875 L 97.8125 93.46875 C 96.95117 93.45505 96.125 93.29101 95.46875 93.03125 C 93.33594 92.16992 91.91601 91.84375 91 91.84375 C 89.35937 91.84375 88.14062 92.79493 88.03125 94.3125 L 88.6875 96.125 L 88.84375 96.125 L 89.25 94.875 L 89.0625 94.1875 C 89.44532 93.75 90.03321 93.53125 90.8125 93.53125 C 92.07031 93.53125 93.50781 93.88086 95.09375 94.46875 L 95.09375 94.53125 C 92.27734 96.22656 89.99609 97 87.78125 97 L 86.96875 97 L 86.71875 97 C 85.69336 97 84.8086 96.29101 84.5625 94.9375 C 84.19336 92.92774 83.75586 90.81249 83.25 88.84375 L 83.1875 88.8125 z M 120.8125 91.84375 C 119.17187 91.84375 117.95312 92.79493 117.84375 94.3125 L 118.53125 96.125 L 118.65625 96.125 L 119.0625 94.875 L 118.90625 94.1875 C 119.28907 93.75 119.87696 93.53125 120.65625 93.53125 C 121.91406 93.53125 123.35157 93.88086 124.9375 94.46875 L 124.9375 94.53125 C 122.1211 96.22656 119.83984 97 117.625 97 L 116.78125 97 L 116.5625 97 C 115.79688 97 114.95898 96.67578 114.5625 96.15625 C 113.98828 95.43164 113.58984 94.75195 112.90625 94 C 112.19531 93.20703 111.50195 92.51172 110.75 91.9375 L 110.625 91.9375 C 109.91406 92.7168 108.94922 93.5664 107.9375 94.46875 C 107.32226 95.00195 106.79492 95.8418 106.5625 96.8125 C 106.41211 97.40039 106.3125 97.93945 106.3125 98.5 C 106.3125 99.49804 106.82618 101.11133 107.46875 102.875 C 108.07032 104.51562 108.6543 106.26953 108.96875 107.71875 L 109.15625 107.71875 C 109.29296 107.14453 109.4375 106.33007 109.4375 105.6875 C 109.4375 104.99023 108.70703 102.73437 107.96875 100.4375 C 107.5039 98.97461 107.3125 98.05664 107.3125 97.46875 C 107.3125 96.92187 107.8125 96.19141 108.90625 95.34375 C 108.94725 97.69531 110.48828 99.5625 112.375 99.5625 C 113.26367 99.5625 114.01563 98.53906 114.125 97.5 L 114.21875 97.46875 C 114.82031 98.3164 115.43359 98.75 116.5 98.75 L 116.78125 98.75 L 117.5 98.75 C 119.63281 98.75 121.57422 98.0957 123.40625 96.90625 L 125.6875 95.4375 C 126.13867 95.15039 126.91406 94.91015 128.0625 94.9375 L 128.78125 93.5 L 128.75 93.46875 L 127.65625 93.46875 C 126.79493 93.45505 125.96875 93.29101 125.3125 93.03125 C 123.17969 92.16992 121.72851 91.84375 120.8125 91.84375 z M 144.875 92.125 C 144.21875 92.125 143.66211 92.47266 143.15625 92.9375 C 142.65039 93.48438 142.30664 94.04688 142.15625 94.59375 C 141.66406 96.31641 140.85546 97 139.84375 97 L 139.5625 97 L 139.375 97 C 138.99219 97 138.63672 96.87891 138.28125 96.6875 C 137.66602 96.30469 137.28516 95.38281 137.09375 94.34375 C 136.88867 93.16797 136.80469 92.51953 136.75 92.21875 L 136.59375 92.21875 C 136.14258 92.94335 135.875 93.73437 135.4375 94.0625 C 135.15039 94.29492 134.7832 94.40625 134.46875 94.40625 C 134.01758 94.40625 133.65821 94.34378 133.34375 94.125 C 133.05664 93.90625 132.69921 93.57812 132.34375 93.25 L 132.21875 93.25 L 131.75 95 C 132.46093 95.75195 133.1543 96.48242 133.46875 97.34375 C 133.46875 97.86328 133.0039 98.51172 132.375 99.25 C 131.30859 100.50781 130.0332 101.1875 128.625 101.1875 C 128.16015 101.1875 127.69922 101.00781 127.34375 100.84375 L 127.125 101.28125 C 128.4375 101.9375 129.5293 102.375 130.71875 102.375 C 131.42969 102.375 132.49024 101.66601 133.40625 100.3125 C 133.93945 99.51953 134.16015 98.74219 134.1875 98.46875 C 134.2148 98.08594 134.21875 97.91406 134.21875 97.75 C 134.21875 97.13476 134.1641 96.57226 134 95.875 C 134.90234 95.9297 135.6211 95.24023 136.03125 94.40625 L 136.09375 94.40625 L 136.4375 95.8125 C 136.98437 98.02734 137.68555 98.75 139.3125 98.75 L 139.5625 98.75 L 139.78125 98.75 C 141.01171 98.75 141.80078 98.17187 142.15625 96.96875 L 142.25 96.96875 C 143.60352 97.9668 144.95899 98.59375 146.3125 98.59375 C 146.96875 98.59375 147.46289 98.05664 147.75 96.8125 C 147.53125 94.41992 146.54296 92.125 144.875 92.125 z M 144.53125 93.71875 C 145.39258 93.71875 146.29101 94.62305 146.6875 96.6875 C 146.6328 96.81055 146.45507 96.84375 146.25 96.84375 C 145.70312 96.84375 145.14453 96.6875 144.625 96.46875 C 143.80469 96.12695 143.1289 95.67773 142.71875 95.0625 C 143.11523 94.16015 143.75195 93.71875 144.53125 93.71875 z M 110.59375 93.84375 C 111.78321 94.75976 112.38672 95.47265 112.90625 96.15625 C 113.26172 96.62109 113.40625 96.97266 113.40625 97.21875 C 113.40625 97.50586 112.97851 97.71875 112.5 97.71875 C 111.74804 97.71875 111.20898 97.41797 110.8125 97.0625 C 110.19726 96.51563 109.78125 95.75976 109.78125 94.84375 C 109.78125 94.44726 110.375 94.0625 110.59375 93.84375 z M 91.96875 100.78125 C 91.59961 101.20508 91.21289 101.69532 90.84375 102.1875 C 91.39062 102.65235 91.93555 103.08789 92.46875 103.59375 C 92.93359 103.19726 93.29297 102.74219 93.59375 102.25 C 93.06055 101.68946 92.5293 101.19141 91.96875 100.78125 z M 121.78125 100.78125 C 121.41211 101.20508 121.05664 101.69532 120.6875 102.1875 C 121.23437 102.65235 121.7793 103.08789 122.3125 103.59375 C 122.77734 103.19726 123.13672 102.74219 123.4375 102.25 C 122.9043 101.68946 122.3418 101.19141 121.78125 100.78125 z M 74.09375 101.3125 C 73.75195 101.66797 73.35547 102.10157 73 102.59375 C 73.54687 103.04492 74.06445 103.49804 74.625 104.03125 C 75.00781 103.67578 75.27344 103.32813 75.65625 102.78125 C 75.12305 102.20704 74.65429 101.75 74.09375 101.3125 z M 71.4375 101.5 C 71.0957 101.85547 70.73047 102.28906 70.375 102.78125 C 70.92187 103.23242 71.4082 103.68555 71.96875 104.21875 C 72.35156 103.86328 72.61719 103.48437 73 102.9375 C 72.4668 102.36328 71.99804 101.9375 71.4375 101.5 z "
       transform="translate(-322.50001,200.51482)"
       id="path2884" />
    <path
       style="font-size:28px;font-style:normal;font-variant:normal;font-weight:normal;font-stretch:normal;line-height:125%;letter-spacing:0px;word-spacing:0px;fill:#000000;fill-opacity:1;stroke:none;font-family:Adobe Arabic;-inkscape-font-specification:Adobe Arabic"
       d="M 239.15625 157.375 C 238.81445 157.73047 238.41797 158.16406 238.0625 158.65625 C 238.60938 159.10742 239.0957 159.56055 239.65625 160.09375 C 240.03906 159.73828 240.33594 159.39062 240.71875 158.84375 C 240.18555 158.26953 239.7168 157.8125 239.15625 157.375 z M 236.5 157.53125 C 236.1582 157.88672 235.79297 158.35156 235.4375 158.84375 C 235.98437 159.29492 236.4707 159.74805 237.03125 160.28125 C 237.41406 159.92579 237.67969 159.54688 238.0625 159 C 237.5293 158.42578 237.06055 157.96875 236.5 157.53125 z M 276.15625 160.25 C 275.81445 160.60547 275.41797 161.03906 275.0625 161.53125 C 275.60938 161.98242 276.12695 162.43555 276.6875 162.96875 C 277.07031 162.61329 277.33594 162.23438 277.71875 161.6875 C 277.18555 161.11328 276.7168 160.6875 276.15625 160.25 z M 319.4375 160.25 C 319.0957 160.60547 318.73047 161.03906 318.375 161.53125 C 318.92187 161.98242 319.4082 162.43555 319.96875 162.96875 C 320.35156 162.61329 320.61719 162.23438 321 161.6875 C 320.4668 161.11328 319.99805 160.6875 319.4375 160.25 z M 273.53125 160.40625 C 273.18945 160.76171 272.79297 161.22657 272.4375 161.71875 C 272.98438 162.16992 273.4707 162.5918 274.03125 163.125 C 274.41406 162.76953 274.67969 162.42187 275.0625 161.875 C 274.5293 161.30078 274.0918 160.84374 273.53125 160.40625 z M 316.8125 160.40625 C 316.4707 160.76171 316.07422 161.22657 315.71875 161.71875 C 316.26562 162.16992 316.75195 162.5918 317.3125 163.125 C 317.69531 162.76953 317.99219 162.42187 318.375 161.875 C 317.8418 161.30078 317.37305 160.84374 316.8125 160.40625 z M 239.53125 161.4375 C 239.16211 161.76562 238.81055 162.16602 238.46875 162.5625 L 238.53125 163.59375 C 236.17969 164.89258 234.70312 166.15429 234.15625 167.34375 C 233.85547 168 233.71875 168.54101 233.71875 168.9375 C 233.71875 170.03124 234.7832 170.5625 236.21875 170.5625 C 237.28516 170.5625 238.1582 170.2793 238.9375 169.9375 C 239.45703 171.48242 240.41016 171.84375 241.75 171.84375 L 242.0625 171.84375 L 242.25 171.84375 C 243.72656 171.84375 244.58594 171.09375 244.96875 170.21875 L 245.03125 170.21875 C 246.125 171.39453 247.85352 172.16993 248.90625 172.15625 C 249.2207 172.15625 249.52539 171.98828 249.8125 171.6875 C 250.03125 171.44141 250.16797 171.09375 250.25 170.65625 L 250.3125 170.65625 C 250.88672 171.57226 251.61328 171.84375 252.40625 171.84375 L 252.65625 171.84375 L 253.375 171.84375 C 255.50781 171.84375 257.48047 171.18945 259.3125 170 L 261.59375 168.53125 C 262.04492 168.24414 262.78906 168.0039 263.9375 168.03125 L 264.65625 166.59375 L 264.625 166.5625 L 263.53125 166.5625 C 262.66992 166.5488 261.84375 166.38476 261.1875 166.125 C 259.05469 165.26367 257.60352 164.9375 256.6875 164.9375 C 255.04688 164.9375 253.82812 165.88868 253.71875 167.40625 L 254.40625 169.21875 L 254.53125 169.21875 L 254.9375 167.96875 L 254.78125 167.28125 C 255.16406 166.84375 255.75195 166.625 256.53125 166.625 C 257.78906 166.625 259.22656 166.97461 260.8125 167.5625 L 260.8125 167.625 C 257.9961 169.32031 255.71484 170.09375 253.5 170.09375 L 252.65625 170.09375 L 252.4375 170.09375 C 251.33008 170.09375 250.61328 169.61133 250.3125 168.96875 C 249.57422 167.41016 249.2793 166.89843 248.9375 166.40625 C 248.47266 165.73633 247.95117 165.5 247.28125 165.5 C 246.36524 165.5 245.2832 166.38476 244.75 168.09375 C 244.33984 169.39257 243.9043 170.09375 242.46875 170.09375 L 242.0625 170.09375 L 241.71875 170.09375 C 241.11719 170.09375 240.5957 170.02347 240.28125 169.75 C 239.87109 169.39454 239.78125 168.74219 239.78125 167.8125 C 239.76758 165.69336 239.74219 163.55663 239.6875 161.4375 L 239.53125 161.4375 z M 291.03125 161.90625 C 290.67578 162.34375 290.37695 162.83399 290.0625 163.3125 C 290.70508 165.65039 291.1875 167.44531 291.1875 168.375 C 291.1875 168.70312 290.81836 169.11914 290.3125 169.40625 C 289.66992 169.77539 288.78711 170.09375 288.0625 170.09375 C 286.75 170.09375 286.21094 169.38477 286.15625 168.25 L 285.625 168.3125 C 285.59766 168.65429 285.5625 168.9707 285.5625 169.3125 C 285.5625 170.9121 286.40625 171.84375 287.9375 171.84375 C 288.85351 171.84375 289.78516 171.48437 290.6875 170.9375 C 291.27539 170.58203 291.57812 170.14453 291.6875 169.625 L 291.75 169.625 C 292.2832 171.33398 293.30078 171.84375 294.53125 171.84375 L 294.8125 171.84375 L 295.5 171.84375 C 297.63281 171.84375 299.60547 171.18945 301.4375 170 L 303.71875 168.53125 C 304.16992 168.24414 304.94531 168.0039 306.09375 168.03125 L 306.8125 166.59375 L 306.75 166.5625 L 305.65625 166.5625 C 304.79492 166.5488 303.96875 166.38476 303.3125 166.125 C 301.17969 165.26367 299.75977 164.9375 298.84375 164.9375 C 297.20313 164.9375 295.98438 165.88868 295.875 167.40625 L 296.53125 169.21875 L 296.6875 169.21875 L 297.09375 167.96875 L 296.90625 167.28125 C 297.28906 166.84375 297.87695 166.625 298.65625 166.625 C 299.91406 166.625 301.35156 166.97461 302.9375 167.5625 L 302.9375 167.625 C 300.1211 169.32031 297.83984 170.09375 295.625 170.09375 L 294.8125 170.09375 L 294.5625 170.09375 C 293.53711 170.09375 292.65234 169.38476 292.40625 168.03125 C 292.03711 166.02149 291.63086 163.90624 291.125 161.9375 L 291.03125 161.90625 z M 276.15625 164.3125 C 275.80078 164.75 275.45312 165.25586 275.125 165.84375 C 275.83594 167.23828 276.46875 168.60743 276.46875 169.25 C 276.46875 169.48243 276.19727 169.66601 275.71875 169.84375 C 275.11719 170.0625 274.16211 170.09375 273 170.09375 L 272.78125 170.09375 L 272.53125 170.09375 C 270.94531 170.09375 270.24805 169.02929 269.46875 167.15625 L 269.375 167.15625 C 269.14258 167.60742 268.86719 168.12109 268.59375 168.75 C 268.9082 169.40625 269.2793 170.02929 269.8125 170.78125 C 269.99023 171.01367 270.08789 171.24219 270.15625 171.40625 C 269.85547 173.42969 267.45703 175.5 265.625 175.5 C 264.92774 175.5 264.43164 175.36524 264.0625 175.1875 L 263.84375 175.65625 C 264.97851 176.25781 266.25586 176.71875 267.28125 176.71875 C 268.29297 176.71875 269.45117 175.90039 270.53125 174 C 270.90039 173.34375 271.09375 172.51758 271.09375 171.875 C 271.09375 171.72461 271.07617 171.57031 271.0625 171.40625 L 271.125 171.40625 C 271.4668 171.72071 271.89844 171.84375 272.5 171.84375 L 272.78125 171.84375 L 272.9375 171.84375 C 275.02929 171.84375 276.00977 171.64648 276.625 171.03125 C 277.17187 170.30664 277.5625 169.49414 277.5625 168.46875 C 277.5625 167.11524 276.84765 165.41992 276.21875 164.3125 L 276.15625 164.3125 z M 319.4375 164.3125 C 319.08203 164.75 318.73437 165.25586 318.40625 165.84375 C 319.11719 167.23828 319.78125 168.60743 319.78125 169.25 C 319.78125 169.48243 319.47852 169.66601 319 169.84375 C 318.39844 170.0625 317.44336 170.09375 316.28125 170.09375 L 316.0625 170.09375 L 314.84375 170.09375 C 314.46094 167.29102 313.16406 165.53125 311.90625 165.53125 C 311.04492 165.53125 310.33203 166.09179 309.8125 166.84375 C 309.41602 167.40429 309.09375 168.10156 309.09375 169.03125 C 309.09375 170.94531 310.52344 171.84375 313.3125 171.84375 L 314 171.84375 C 313.82227 172.54102 313.34375 173.08007 312.6875 173.75 C 311.51172 174.95312 310.28711 175.65625 308.90625 175.65625 C 308.08594 175.65625 307.4082 175.44336 306.875 175.15625 L 306.65625 175.59375 C 307.96875 176.40039 309.34961 177 310.59375 177 C 311.31836 177 312.82227 176.25585 313.875 174.65625 C 314.44922 173.79492 314.86914 172.70508 314.9375 171.84375 L 316.0625 171.84375 L 316.21875 171.84375 C 318.31054 171.84375 319.29102 171.64648 319.90625 171.03125 C 320.45312 170.30664 320.875 169.49414 320.875 168.46875 C 320.875 167.11524 320.12891 165.41992 319.5 164.3125 L 319.4375 164.3125 z M 238.625 165.09375 L 238.71875 168.46875 C 237.91211 168.72852 237.27539 168.875 236.6875 168.875 C 235.75781 168.875 234.9375 168.62695 234.9375 168.09375 C 234.9375 167.36914 236.19141 166.35156 238.625 165.09375 z M 247.03125 167.0625 C 247.61914 167.0625 248.24805 167.50586 248.78125 168.3125 C 249.13672 168.85937 249.46875 169.59179 249.46875 170.125 C 249.46875 170.43945 249.19726 170.46875 248.9375 170.46875 C 248.45899 170.46875 247.67773 170.23047 247.0625 169.875 C 246.46094 169.5332 245.57422 168.81836 245.4375 168.3125 C 245.68359 167.60156 246.2793 167.0625 247.03125 167.0625 z M 311.5 167.34375 C 312.00586 167.34375 312.53125 167.60156 312.96875 168.09375 C 313.43359 168.59961 313.75586 169.32813 313.90625 170.09375 C 313.01758 170.09375 312.2207 170.11133 311.46875 169.90625 C 310.6211 169.66016 309.96875 169.22851 309.96875 168.53125 C 309.96875 167.98437 310.73438 167.34375 311.5 167.34375 z M 257.65625 173.875 C 257.28711 174.29883 256.93164 174.78907 256.5625 175.28125 C 257.10938 175.7461 257.6543 176.18164 258.1875 176.6875 C 258.65234 176.29101 259.01172 175.83594 259.3125 175.34375 C 258.7793 174.78321 258.2168 174.28516 257.65625 173.875 z M 299.8125 173.875 C 299.44336 174.29883 299.05664 174.78907 298.6875 175.28125 C 299.23438 175.7461 299.7793 176.18164 300.3125 176.6875 C 300.77734 176.29101 301.13672 175.83594 301.4375 175.34375 C 300.9043 174.78321 300.37305 174.28516 299.8125 173.875 z "
       transform="translate(-322.50001,200.51482)"
       id="path2865" />
    <path
       style="fill:none;stroke:#000000;stroke-width:5;stroke-miterlimit:4;stroke-opacity:1"
       d="m -105.71429,298.79074 c 0,20.90792 -47.96949,37.85714 -107.14286,37.85714 -59.17337,0 -107.14286,-16.94922 -107.14286,-37.85714 0,-20.90792 47.96949,-37.85714 107.14286,-37.85714 59.17337,0 107.14286,16.94922 107.14286,37.85714 z"
       id="path3920" />
    <path
       style="fill:none;stroke:#000000;stroke-width:5;stroke-linecap:butt;stroke-linejoin:miter;stroke-miterlimit:4;stroke-opacity:1;stroke-dasharray:none"
       d="m 60.357133,358.41639 c 0,0 148.898387,-57.48303 189.999997,-65 41.1016,-7.51697 81.42857,19.2857 81.42857,19.2857"
       id="path3922"
       inkscape:connector-curvature="0"
       sodipodi:nodetypes="czc" />
    <path
       style="fill:none;stroke:#000000;stroke-width:5;stroke-linecap:butt;stroke-linejoin:miter;stroke-miterlimit:4;stroke-opacity:1;stroke-dasharray:none"
       d="m -186.78573,248.41638 34.28572,-32.85714"
       id="path3932"
       inkscape:connector-curvature="0" />
    <path
       style="fill:none;stroke:#000000;stroke-width:5;stroke-linecap:butt;stroke-linejoin:miter;stroke-miterlimit:4;stroke-opacity:1;stroke-dasharray:none"
       d="m -186.78572,346.98782 45.71429,24.28571"
       id="path3934"
       inkscape:connector-curvature="0" />
    <path
       style="fill:none;stroke:#000000;stroke-width:5;stroke-linecap:butt;stroke-linejoin:miter;stroke-miterlimit:4;stroke-opacity:1;stroke-dasharray:none"
       d="m -176.6198,213.45318 27.59027,-0.0352 -5.51556,25.15638"
       id="path3812-6"
       inkscape:connector-curvature="0" />
    <path
       style="fill:none;stroke:#000000;stroke-width:5;stroke-linecap:butt;stroke-linejoin:miter;stroke-miterlimit:4;stroke-opacity:1;stroke-dasharray:none"
       d="m -151.6312,346.10202 10.85078,25.36701 -25.30453,4.79017"
       id="path3812-6-6"
       inkscape:connector-curvature="0" />
  </g>
</svg>
